<svg xmlns="http://www.w3.org/2000/svg" viewBox="0 0 399.55 166.73"><title>Asset 3</title><g id="Layer_2" data-name="Layer 2"><g id="Layer_1-2" data-name="Layer 1"><path d="M45.19,29.13A31.29,31.29,0,0,1,107.62,29a5.25,5.25,0,0,0,2.37-.85,29.65,29.65,0,0,1,14.22-2.06A30.39,30.39,0,0,1,141.28,33a31,31,0,0,1,10.25,15.27,36.45,36.45,0,0,1,1.19,6.43A29.68,29.68,0,0,1,151,67.87a30.5,30.5,0,0,1-9.66,13.78c-.7.58-2,.9-2,1.77,0,.72,1.3,1.09,2,1.66a30.69,30.69,0,0,1,10.85,18.15,28.76,28.76,0,0,1,.68,7.15,31.59,31.59,0,0,1-17,26.88,31.06,31.06,0,0,1-10.43,3.19,36.11,36.11,0,0,1-5.59.18A28.66,28.66,0,0,1,109,138.14c-.25-.11-.48-.26-.74-.35a4.94,4.94,0,0,0-.67-.12,31.29,31.29,0,0,1-62.43,0c-1.87.62-3.63,1.48-5.52,2a32.88,32.88,0,0,1-12.06.83,31.14,31.14,0,0,1-23.19-15,28.83,28.83,0,0,1-4-10.75A31.53,31.53,0,0,1,10,86.33a26.48,26.48,0,0,1,3-2.45c.63-.44.67-.55,0-1A30.89,30.89,0,0,1,.34,61.76,32.21,32.21,0,0,1,2.08,46a32.05,32.05,0,0,1,5.17-8.71,29.94,29.94,0,0,1,10-7.94,30.13,30.13,0,0,1,10.23-3,32.17,32.17,0,0,1,15,1.7C43.3,28.33,44.19,28.72,45.19,29.13Zm68.61,93.19a15.73,15.73,0,0,1-4.63-4.15c-2.68-3.48-3.26-7.5-2.68-11.62a14,14,0,0,1,5.4-9.15,15.07,15.07,0,0,1,16.53-1.56c.53.3.7.1,1-.34q3.3-5.84,6.66-11.64a.75.75,0,0,0,0-1c-2.3-3.92-4.55-7.88-6.82-11.82-.15-.26,0-.74-.67-.41a15.09,15.09,0,0,1-22.22-15.19,15.85,15.85,0,0,1,5.2-9.7c.63-.58,1.75-.84,1.94-1.62s-.71-1.57-1.14-2.34c-1.78-3.23-3.65-6.42-5.51-9.62a1.15,1.15,0,0,0-1.07-.6c-4.52,0-9,0-13.55,0-.3,0-.74-.11-.67.41a5.9,5.9,0,0,1-.26,1.62A14.12,14.12,0,0,1,84.42,44.3,15.07,15.07,0,0,1,61.31,32.5c0-.74-.19-.93-.93-.93-4.36,0-8.71,0-13.07,0a1.14,1.14,0,0,0-1.23.65c-1.35,2.45-2.8,4.84-4.21,7.26-.85,1.45-1.7,2.88-2.52,4.34-.11.2-.53.4,0,.77,5.25,3.55,7.82,8.4,7.06,14.81a14,14,0,0,1-5.37,9.77c-5.09,4-10.59,4.43-16.4,1.85-.73-.33-.94-.18-1.3.45-2.1,3.69-4.24,7.35-6.38,11a1.5,1.5,0,0,0-.05,1.65q3.41,5.79,6.76,11.6c.28.48.51.41.92.2a14.47,14.47,0,0,1,8.46-1.59,15.12,15.12,0,0,1,7,27.51c-.86.62-.88,1-.31,1.72a17.43,17.43,0,0,1,1.17,2c1.74,3,3.5,6,5.22,9a.93.93,0,0,0,.92.55q6.78,0,13.55,0c.51,0,.6-.22.77-.63.3-.71,0-1.42.2-2.12a15.29,15.29,0,0,1,4.68-8.34,15,15,0,0,1,25.26,10.07c0,.59.19,1,1,1,4.4,0,8.8,0,13.19,0a1.22,1.22,0,0,0,1.17-.65ZM76.38,135.38H62.71c-.28,0-.56,0-.84,0s-.36.1-.28.37c.34,1.08.28,2.22.59,3.33a14.88,14.88,0,0,0,5.44,8,14.23,14.23,0,0,0,11,2.85,14.39,14.39,0,0,0,9.73-5.74,13.9,13.9,0,0,0,3-7.85c0-.82-.25-1-1-1C85.65,135.39,81,135.38,76.38,135.38Zm44.69-11.25a14.09,14.09,0,0,0,7.14-1.74c5.51-3.26,8.54-8,7.92-14.63a14.45,14.45,0,0,0-6.47-10.89c-.56-.4-.65-.22-.9.22-1.88,3.31-3.75,6.63-5.66,9.92-2.83,4.88-5.69,9.73-8.53,14.6-.2.33-.24.59.28.86A15.67,15.67,0,0,0,121.07,124.13ZM16.66,57.54A14.68,14.68,0,0,0,23,69.7c.73.55,1,.2,1.27-.28,1-1.75,2-3.53,3-5.28,2-3.47,4-6.94,6-10.41,1.66-2.86,3.3-5.73,5-8.58.35-.59.15-.87-.4-1.09a15.15,15.15,0,0,0-9.16-1.18C21.74,44.45,16.49,50.31,16.66,57.54Zm15,66.57a11.85,11.85,0,0,0,5.89-1.2c.75-.33,1.31-.57.54-1.53a20.7,20.7,0,0,1-1.59-2.71c-2.45-4.24-4.93-8.47-7.37-12.71-1.63-2.83-3.21-5.68-4.83-8.52-.35-.62-.69-.82-1.35-.18-.83.81-1.79,1.44-2.58,2.34A14.26,14.26,0,0,0,17,112.38C18.31,118.94,24.57,124.43,31.7,124.11ZM136.14,57.34a12.29,12.29,0,0,0-.45-3.61A14.93,14.93,0,0,0,115,43.93c-.8.35-.69.74-.34,1.33q3.41,5.79,6.78,11.59c2.07,3.56,4.11,7.15,6.19,10.7.48.83.73,2.26,1.68,2.21S131,68.71,131.7,68A14.91,14.91,0,0,0,136.14,57.34ZM76.38,31.11H90.51c.39,0,1,0,.73-.54a12.94,12.94,0,0,1-.36-2.2,15.05,15.05,0,0,0-5.69-8.74,14.69,14.69,0,0,0-20.42,2.63A15,15,0,0,0,61.53,30c-.11.87.14,1.15,1.07,1.14C67.19,31.08,71.78,31.11,76.38,31.11Z" style="fill:#fff"/><path d="M237.81,87.25c-.56,1.29-1.12,2.57-1.66,3.86-1.68,4-3.34,8-5,12l-5.55,13.42c-1.49,3.59-3,7.17-4.49,10.75s-2.95,7-4.36,10.55a7.52,7.52,0,0,0-.78,1.92c0,.33-.41.41-.77.41q-3.23,0-6.47,0c-.41,0-.52-.13-.69-.54q-3.69-9.07-7.48-18.12c-3-7.31-6.13-14.6-9.17-21.91-1.61-3.86-3.15-7.76-4.73-11.64a1.4,1.4,0,0,0-.64-.68v1.17q0,25.23,0,50.45c0,1.05-.23,1.37-1.29,1.29a30.84,30.84,0,0,0-4.19,0c-.86.05-1.05-.21-1-1,0-9.23,0-18.46,0-27.68q0-15.4,0-30.8c0-.93.22-1.19,1.16-1.16q4,.09,8,0a1.27,1.27,0,0,1,1.38,1c1.66,4,3.35,7.93,5,11.9,1.54,3.69,3.05,7.39,4.59,11.07s3.1,7.38,4.65,11.06c1.8,4.25,3.62,8.49,5.41,12.74.67,1.59,1.29,3.2,1.94,4.81.09.22.22.44.49.43s.16-.31.23-.47q4.5-10.68,9-21.35,4.31-10.26,8.58-20.54,2-4.89,4-9.8a1.15,1.15,0,0,1,1.25-.81c2.67,0,5.35.07,8,0,1,0,1.25.19,1.24,1.21,0,15.1,0,30.2,0,45.3,0,4.39,0,8.78,0,13.18,0,.74-.12,1-1,1-1.6-.07-3.2,0-4.8,0-.55,0-.81-.11-.75-.71a13.83,13.83,0,0,0,0-1.44V87.35Z" style="fill:#fff"/><path d="M309.26,140.17c-2.11,0-4.15,0-6.18,0a.86.86,0,0,1-1-.64q-2.53-6.75-5.22-13.43c-.3-.77-.66-.82-1.28-.81-6.39,0-12.79,0-19.19,0a1.56,1.56,0,0,1-1.72-1c-.82-1.68-1.89-3.24-2.94-5h22.74L280.88,84.7l-3,7.6-6.24,15.76q-3.48,8.79-6.95,17.58-2.78,7-5.52,14.06c-.2.49-.56.47-1,.47h-6.07l1.9-4.84c2.67-6.79,5.32-13.59,8-20.38,2-4.93,4-9.82,6-14.75q3.77-9.48,7.44-19c.44-1.15.91-1.84,2.38-1.72,2.27.18,4.56.06,6.84,0a1,1,0,0,1,1.17.8c3.27,8.42,6.68,16.78,9.94,25.2,3.56,9.21,7.12,18.43,10.81,27.59C307.54,135.42,308.37,137.78,309.26,140.17Z" style="fill:#fff"/><path d="M322.25,107c0,8.62,0,17.25,0,25.87,0,1,.17,1.39,1.32,1.38,9.55-.06,19.1,0,28.65-.06,1.1,0,1.33.31,1.26,1.31a37.64,37.64,0,0,0,0,3.83c0,.63-.09.9-.82.9q-16.72,0-33.44,0a.92.92,0,0,1-1-.73q-1.07-3.11-2.15-6.2a5.08,5.08,0,0,1-.26-1.73q0-25.4,0-50.79c0-1,.19-1.31,1.21-1.24a31,31,0,0,0,4.2,0c.88-.05,1.11.18,1.11,1.09C322.23,89.39,322.25,98.17,322.25,107Z" style="fill:#fff"/><path d="M399.55,140.17H366a1.1,1.1,0,0,1-1.19-.7,23.18,23.18,0,0,0-1.48-2.48,9.29,9.29,0,0,1-1.56-5.37c.08-17,.05-33.93,0-50.9,0-1,.23-1.29,1.23-1.23a40.91,40.91,0,0,0,4.43,0c.68,0,.87.19.85.86,0,2.08,0,4.15,0,6.23q0,23.12,0,46.23c0,1,.18,1.39,1.32,1.38,8.31-.06,16.62,0,24.93-.06a2.1,2.1,0,0,1,2.29,1.27C397.57,137,398.56,138.48,399.55,140.17Z" style="fill:#fff"/><path d="M229.67,52.79c0-8.23,0-16.5,0-24.78,0-1,.18-1.28,1.21-1.24,2.17.09,2.17,0,2.17,2.17,0,8.75,0,17.5,0,26.24,0,.86-.14,1.25-1.08,1.12a5.57,5.57,0,0,0-1.91,0c-1.73.38-2.5-.65-3.27-1.92-3.52-5.76-7.09-11.49-10.63-17.24-1.17-1.91-2.35-3.81-3.49-5.73a2.44,2.44,0,0,0-.74-.8v1.23c0,7.79,0,15.57,0,23.36,0,.9-.21,1.13-1.11,1.1-2.27-.06-2.27,0-2.27-2.3,0-8.71,0-17.42,0-26.12,0-.9.2-1.23,1.1-1.09a3.45,3.45,0,0,0,1.2,0c2.11-.48,3.22.61,4.22,2.32,2.38,4.06,4.93,8,7.41,12S227.28,48.93,229.67,52.79Z" style="fill:#fff"/><path d="M313.83,44.79l8.67,11.49c-1.25,0-2.39,0-3.52,0-.7,0-.82-.58-1.07-.91-3.14-4.2-6.23-8.43-9.34-12.64-.36-.48-.26-.6.28-.6,1.31,0,2.63,0,3.95,0a6,6,0,0,0,6-6.14,5.72,5.72,0,0,0-6-6.07c-2.76,0-5.52,0-8.27,0-1,0-1.08.28-1.08,1.13,0,8,0,16.06.05,24.08,0,1-.3,1.24-1.26,1.2-1.89-.07-1.89,0-1.89-2,0-8.74,0-17.49,0-26.24,0-1.14.35-1.33,1.38-1.32,3.6.07,7.19,0,10.79.05a9.72,9.72,0,0,1,7.16,2.83c2.85,2.94,3.12,8.72.56,12A8.31,8.31,0,0,1,313.83,44.79Z" style="fill:#fff"/><path d="M275.24,41.54c0-4.59,0-9.18,0-13.78,0-.77.18-1,1-1q9.36,0,18.71,0c.77,0,1,.18,1,1,0,2.16,0,2.16-2.17,2.16-4.72,0-9.43,0-14.15,0-.77,0-1,.18-1,1,.06,2.8.05,5.59,0,8.39,0,.77.19,1,1,1,4.48,0,9,0,13.43-.05,1,0,1.29.22,1.23,1.23-.09,1.67,0,1.68-1.71,1.68-4.31,0-8.63,0-12.94,0-.78,0-1,.19-1,1,0,2.79,0,5.59,0,8.38,0,.79.2,1,1,1,5,0,10.07,0,15.1,0,1,0,1.39.23,1.21,1.22a2.17,2.17,0,0,0,0,.72c.13.79-.19,1-1,1-4.76,0-9.51,0-14.27,0-1.48,0-3-.05-4.43,0-.79,0-1-.2-1-1C275.26,50.73,275.24,46.13,275.24,41.54Z" style="fill:#fff"/><path d="M325.6,49.65A20.07,20.07,0,0,0,332.24,53c3.24.86,6.47,1.06,9.6-.33a4.38,4.38,0,0,0,3-3.55c.22-2.1-.87-3.42-2.64-4.34-2.7-1.42-5.72-1.79-8.59-2.64a15.56,15.56,0,0,1-6.31-3c-2.28-2-2.07-6.59-.39-8.72a10.5,10.5,0,0,1,6.88-3.64A17.91,17.91,0,0,1,344,28a18.86,18.86,0,0,1,2.52,1.41,1.34,1.34,0,0,1,.65,1.3c-.07.88,0,1.76,0,2.7a40.87,40.87,0,0,0-3.74-2.26,14.57,14.57,0,0,0-11.34-.74c-1.68.58-3.45,2.5-3.4,4.2a3.39,3.39,0,0,0,1.85,3c2.23,1.34,4.75,1.76,7.22,2.34,3.05.72,6.12,1.5,8.46,3.75,2.93,2.82,2.27,8.31-.86,10.47-3.3,2.28-6.85,2.77-10.76,2.38a22.76,22.76,0,0,1-8.26-2.78c-.51-.26-.81-.51-.77-1.15C325.65,51.74,325.6,50.82,325.6,49.65Z" style="fill:#fff"/><path d="M359.77,46.2h11c-2.16-5.5-4.29-10.9-6.51-16.56-1.35,3.44-2.59,6.64-3.86,9.83-1.9,4.78-3.79,9.57-5.75,14.33-1.05,2.57-1.1,2.55-3.9,2.48l-.47-.07c1.15-2.88,2.29-5.72,3.42-8.57,2.56-6.46,5.13-12.91,7.66-19.39a2,2,0,0,1,2.11-1.53c2.3-.17,3.43.48,4.23,2.8,2,5.76,4.39,11.39,6.62,17.08l3.79,9.68a15.26,15.26,0,0,0-2.35,0c-1,.18-1.37-.43-1.67-1.18-.7-1.79-1.46-3.55-2.05-5.37-.21-.64-.48-.67-1-.67-2.64,0-5.28-.07-7.91,0a2.25,2.25,0,0,1-2.57-1.41C360.36,47.26,360.1,46.83,359.77,46.2Z" style="fill:#fff"/><path d="M203.76,37.11c0,2.59,0,5.19,0,7.78a11.11,11.11,0,0,1-9,11.54,12.42,12.42,0,0,1-11.63-2.94,10.25,10.25,0,0,1-3.36-7.55c-.08-6,0-12,0-18,0-.87.12-1.25,1.13-1.2,2,.09,2,0,2,2,0,5.11-.06,10.22,0,15.33a10,10,0,0,0,2,6.29,8.37,8.37,0,0,0,4.58,3,8.62,8.62,0,0,0,8.67-2.43,8.74,8.74,0,0,0,2.43-6.24c.06-5.59,0-11.18,0-16.77,0-.9.21-1.14,1.11-1.11,2,.07,2,0,2,2.07Z" style="fill:#fff"/><path d="M258.65,53c.73-1.84,1.47-3.64,2.17-5.46q3.31-8.65,6.6-17.33c.14-.36.26-.72.38-1.09.79-2.34.79-2.32,3.23-2.31.87,0,1,.25.7,1-1.3,3.33-2.54,6.68-3.81,10-2.28,6-4.57,12-6.8,18-.19.51-.41.45-.75.46a14.73,14.73,0,0,0-2.74,0c-1.29.26-1.71-.5-2-1.42Q251,42.17,246,29.56c-.14-.35-.18-.75-.31-1.11-.58-1.65-.58-1.58,1.2-1.68a1.84,1.84,0,0,1,2.2,1.4c1.68,4.66,3.49,9.27,5.24,13.91,1.32,3.52,2.62,7.05,3.94,10.58C258.34,52.75,258.47,52.82,258.65,53Z" style="fill:#fff"/><path d="M384.37,40.1c0,4.12,0,8.23,0,12.34,0,.78.19,1,1,1,4.39,0,8.79,0,13.19,0,.78,0,1,.2,1,1,0,1.92,0,1.92-1.95,1.92-4.79,0-9.59,0-14.38,0a1,1,0,0,1-1.14-.8,17.44,17.44,0,0,1-1-6.17c.08-7.15,0-14.3,0-21.45,0-.89.2-1.13,1.1-1.11,2.28.07,2.28,0,2.28,2.31Z" style="fill:#fff"/><path d="M241.66,42.66c0,4.19,0,8.38,0,12.57,0,.8-.13,1.1-1,1.07-2.12,0-2.12,0-2.12-2.09,0-8.75,0-17.49,0-26.24,0-.38-.45-1.19.48-1.14.74,0,1.75-.54,2.09.76a12.09,12.09,0,0,1,.55,3.33C241.62,34.83,241.66,38.74,241.66,42.66Z" style="fill:#fff"/><path d="M309.55,61.68a3.51,3.51,0,0,1,.7.12c.4.16,1-.75,1.15.06a2.71,2.71,0,0,1-.21,2.29c-.29.37-.93-.4-1.33.16a1.57,1.57,0,0,1-.3-.59C309.52,63,309.55,62.37,309.55,61.68Z" style="fill:#fff"/></g></g></svg>