<svg width="265" height="191" viewBox="0 0 265 191" fill="none" xmlns="http://www.w3.org/2000/svg">
<path d="M253.567 190.549C236.852 190.549 10.8561 190.06 10.8561 190.032C10.7625 189.813 -17.8327 154.721 18.1747 118.032C36.0166 99.848 1.79026 76.3007 18.1747 56.0795C46.2409 21.4401 74.0116 40.9452 97.145 31.2062C101.232 29.4861 105.333 26.719 109.44 22.4712C111.727 20.112 114.261 18.0062 116.998 16.1905C117.413 15.9127 117.833 15.642 118.258 15.3785C119.883 14.3701 121.564 13.4552 123.292 12.6385C124.457 12.0881 125.644 11.5795 126.852 11.1126C128.784 10.3684 130.754 9.7275 132.753 9.19261C135.644 8.41973 138.583 7.84205 141.552 7.46346C142.86 7.29329 144.18 7.15889 145.51 7.06026C171.358 5.11426 200.444 16.0584 215.461 32.0533C218.484 35.2744 232.227 51.9413 221.393 74.8482C214.552 89.3116 243.209 103.126 253.391 119.641C279.288 161.629 253.804 190.001 253.567 190.549Z" fill="#EBF3FA"/>
<g opacity="0.8">
<path d="M195.079 92.919C194.402 94.787 193.558 96.5904 192.558 98.3075C188.672 104.949 182.582 110.017 175.35 112.629C168.117 115.241 160.199 115.232 152.973 112.604C140.367 108.016 132.27 96.5094 131.407 83.9164C131.292 82.2447 131.306 80.5667 131.449 78.8972C131.902 73.6448 133.602 68.5766 136.406 64.1142C136.419 64.0905 136.433 64.0701 136.447 64.0464C140.771 57.2415 147.435 52.259 155.179 50.0416C155.981 49.8112 156.793 49.6116 157.615 49.443C163.558 48.2175 169.725 48.6732 175.424 50.7588C176.21 51.0441 176.977 51.3566 177.726 51.6962C183.073 54.1004 187.674 57.9038 191.045 62.7058C193.571 66.2966 195.358 70.3558 196.3 74.646C196.501 75.5654 196.663 76.4945 196.787 77.4335C197.47 82.6579 196.883 87.9701 195.077 92.919H195.079Z" fill="#D7E5FF"/>
<path d="M158.731 64.0204C156.79 65.526 157.304 69.5546 153.943 67.2833C150.581 65.0121 148.472 63.7821 147.521 65.7597C146.57 67.7374 149.552 68.8261 148.762 70.9856C147.972 73.145 146.383 73.3732 144.701 71.6C143.019 69.8268 142.971 68.1202 140.247 68.1767C137.522 68.2332 136.36 67.1117 136.494 65.064C136.516 64.745 136.486 64.4245 136.404 64.1153C136.418 64.0916 136.432 64.0713 136.446 64.0475C140.769 57.2426 147.434 52.2601 155.178 50.0427C155.98 49.8123 156.792 49.6128 157.613 49.4441C158.563 49.8304 159.581 50.6142 160.121 52.1875C161.307 55.6469 163.23 54.8326 161.596 57.7307C159.963 60.6288 160.635 61.3448 162.418 61.8711C164.2 62.3975 166.253 63.1508 165.975 64.5626C165.698 65.9743 160.673 62.5149 158.731 64.0204Z" fill="#AEC3FF"/>
<path d="M195.079 92.919C194.402 94.787 193.558 96.5904 192.558 98.3075C190.24 102.279 187.112 105.716 183.377 108.395C182.473 108.379 181.606 108.037 180.934 107.431C177.644 104.487 182.005 101.359 184.301 99.8378C186.598 98.3165 182.334 97.8116 180.184 94.8469C178.034 91.8822 183.067 87.8637 179.833 87.6468C176.599 87.43 172.663 87.2199 172.005 83.7503C171.346 80.2807 174.749 80.9945 174.148 78.0716C173.547 75.1486 176.367 74.6009 179.377 75.4355C182.388 76.2702 182.762 74.0463 186.492 75.056C190.222 76.0657 188.467 80.6636 192.583 81.8134C196.699 82.9631 196.184 83.8226 196.184 83.8226C196.475 83.9204 196.74 84.0847 196.956 84.3026C196.719 87.2459 196.087 90.1439 195.079 92.919Z" fill="#AEC3FF"/>
<path d="M196.79 77.4335C192.87 77.8446 193.135 72.9451 189.807 73.2354C186.451 73.5279 187.89 71.1392 186.227 68.6714C184.564 66.2036 178.964 67.542 180.102 65.0459C181.24 62.5499 184.367 64.5027 185.833 62.708C187.3 60.9134 190.398 62.6245 190.398 62.6245C190.616 62.6212 190.834 62.6486 191.045 62.7058C193.572 66.2966 195.358 70.3558 196.3 74.646C196.502 75.5654 196.665 76.4945 196.79 77.4335Z" fill="#AEC3FF"/>
<path d="M171.951 58.3541C171.951 58.3541 174.612 56.4669 172.11 54.714C169.608 52.9611 169.304 53.9539 167.231 52.9385C165.158 51.9232 163.704 53.2864 164.659 55.7C165.615 58.1136 165.652 62.0925 167.793 60.7587C169.934 59.4248 170.165 57.908 171.951 58.3541Z" fill="#AEC3FF"/>
</g>
<path d="M18.3202 190.126H29.7797C30.3934 189.605 29.3545 188.421 28.2682 188.341C27.7967 188.306 27.2011 188.404 26.5198 188.548C26.3618 186.451 25.4605 177.023 22.0663 177.402C18.2503 177.826 22.0663 181.554 23.1459 183.761C23.9445 185.395 24.7883 187.74 25.1763 188.843C24.8672 188.91 24.5457 188.976 24.2186 189.036C23.7121 187.481 21.8306 182.251 19.4369 182.554C16.627 182.911 17.7562 185.009 19.7483 186.254C21.2091 187.169 23.0037 188.47 23.8565 189.1C23.1165 189.228 22.3662 189.288 21.6151 189.279C19.6501 189.236 18.6913 189.816 18.3202 190.126Z" fill="#A8D29F"/>
<path d="M200.709 190.126H190.064C189.5 189.643 190.459 188.545 191.468 188.468C191.906 188.434 192.46 188.527 193.093 188.66C193.239 186.712 194.076 177.956 197.228 178.307C200.773 178.701 197.228 182.164 196.226 184.214C195.483 185.732 194.7 187.909 194.343 188.937C194.631 189 194.928 189.061 195.233 189.116C195.703 187.672 197.451 182.814 199.674 183.097C202.284 183.429 201.235 185.377 199.385 186.532C198.031 187.383 196.361 188.591 195.569 189.175C196.256 189.295 196.954 189.351 197.651 189.342C199.474 189.299 200.364 189.837 200.709 190.126Z" fill="#A8D29F"/>
<path d="M208.312 120.263C208.312 120.263 208.565 117.739 207.248 117.826C205.93 117.913 205.58 118.517 205.728 119.003C205.876 119.489 207.157 121.092 207.157 121.092L208.312 120.263Z" fill="#FFB27D"/>
<path d="M228.844 125.319C228.844 125.319 227.386 127.034 224.249 129.015C223.951 129.203 223.641 129.393 223.313 129.58C221.93 130.383 220.494 131.091 219.015 131.697C218.833 131.771 218.62 131.854 218.381 131.941C216.501 132.618 213.042 133.584 210.898 133.67C210.712 133.678 210.534 133.678 210.37 133.67C207.108 133.539 206.709 120.86 206.709 120.86C206.709 120.86 207.073 119.591 208.749 119.911C208.749 119.911 211.295 127.07 212.207 127.654C213.017 128.173 217.675 121.104 221.683 120.61C224.382 120.284 228.844 125.319 228.844 125.319Z" fill="#739AF0"/>
<path d="M220.076 187.146C220.076 187.146 220.317 189.936 219.728 190.227L212.187 190.211C212.187 190.211 212.187 189.34 213.399 189.146C214.61 188.952 216.737 188.242 217.097 186.661C217.457 185.08 220.076 187.146 220.076 187.146Z" fill="#1C3154"/>
<path d="M214.549 153.366C214.586 155.191 214.674 157.074 214.846 158.765C215.66 166.793 215.946 176.497 216.063 178.363C216.266 181.609 216.907 186.795 216.907 186.795C216.907 186.795 218.177 188.003 220.653 187.426C220.653 187.426 222.705 179.957 223.163 172.092C223.171 171.963 223.177 171.833 223.184 171.703C223.237 170.664 223.297 169.475 223.35 168.193C223.727 159.609 224.14 146.847 224.14 146.847L214.678 144.623C214.678 144.623 214.451 148.816 214.549 153.366Z" fill="#2A4E96"/>
<path d="M214.549 153.366C216.947 157.508 221.518 165.141 223.348 168.193C223.724 159.609 224.137 146.847 224.137 146.847L214.675 144.623C214.675 144.623 214.451 148.816 214.549 153.366Z" fill="#233862"/>
<path d="M218.384 131.944C216.504 132.622 213.045 133.587 210.901 133.673C211.229 133.612 213.616 133.139 214.499 132.072C215.447 130.924 217.043 127.809 218.313 129.08C218.908 129.679 218.732 130.862 218.384 131.944Z" fill="#6385DB"/>
<path d="M234.282 152.021C234.282 152.021 234.869 154.327 234.773 154.845C234.677 155.362 234.102 157.092 233.745 157.524C233.387 157.955 233.373 155.651 233.136 155.29C232.899 154.928 233.023 156.149 232.836 156.25C232.648 156.35 232.327 155.325 232.186 154.961C232.045 154.597 232.693 153.332 232.75 152.425C232.806 151.518 234.282 152.021 234.282 152.021Z" fill="#FFB27D"/>
<path d="M238.865 183.973C238.865 183.973 240.207 185.2 239.945 186.072C239.684 186.943 238.472 187.523 238.308 188.588C238.145 189.653 237.49 190.235 236.901 190.235H234.091C234.091 190.235 233.658 189.485 234.704 189.259C235.751 189.033 236.147 187.781 236.082 186.619C236.016 185.457 236.18 183.909 236.18 183.909L238.407 183.393L238.865 183.973Z" fill="#1C3154"/>
<path d="M216.16 147.042C216.16 147.042 225.017 166.016 229.731 174.346C234.445 182.675 235.918 184.995 235.918 184.995C235.918 184.995 238.619 183.93 238.865 183.204C238.865 183.204 237.06 167.13 233.901 163.213C232.118 160.999 230.022 154.355 229.924 152.032C229.826 149.709 227.757 144.162 227.757 144.162L216.16 147.042Z" fill="#2A4E96"/>
<path d="M214.509 146.055C214.509 146.055 217.393 149.163 222.292 150.102C224.442 150.514 228.808 150.913 229.891 149.379C230.146 149.019 230.148 148.485 230.092 147.654C229.945 145.49 229.403 141.309 231.856 132.905C232.073 132.17 232.231 131.419 232.328 130.659C232.864 126.359 232.805 123.114 229.079 121.38C223.498 118.783 221.207 120.92 221.207 120.92C221.207 120.92 218.238 122.309 216.881 126.357C214.171 134.454 214.509 146.055 214.509 146.055Z" fill="#739AF0"/>
<path d="M225.733 120.668C225.124 121.079 224.416 121.322 223.683 121.37C222.949 121.418 222.216 121.27 221.559 120.941C221.438 120.88 221.453 120.045 221.483 119.225C221.513 118.405 221.589 117.63 221.589 117.63L223.576 116.324L225.471 115.082C225.247 119.362 226.157 120.364 225.733 120.668Z" fill="#FFB27D"/>
<path d="M225.141 116.847C225.141 116.847 223.852 118.784 221.486 119.219C221.517 118.414 221.599 117.525 221.599 117.525L223.576 116.316L225.141 116.847Z" fill="#ED985F"/>
<path d="M219.813 117.127C219.813 117.127 224.619 118.922 225.688 115.958C226.758 112.994 228.098 111.228 225.075 109.956C222.051 108.685 221.044 109.603 220.443 110.505C219.842 111.408 218.591 116.583 219.813 117.127Z" fill="#FFB27D"/>
<path d="M228.682 110.29C228.737 110.248 228.849 110.226 229.082 110.259C228.965 110.158 228.825 110.086 228.674 110.051C228.69 109.72 228.631 109.116 228.11 108.868C228.189 108.938 228.252 109.025 228.293 109.123C228.334 109.221 228.353 109.326 228.348 109.432C227.837 108.642 226.557 107.894 222.692 107.442C217.598 106.846 218.617 110.389 219.195 110.901C219.774 111.412 221.61 110.685 222.805 111.02C224 111.356 223.88 113.151 224.243 113.472C224.606 113.793 224.529 113.338 225.133 113.196C225.738 113.053 225.609 113.986 225.331 114.551C225.052 115.116 225.66 116.06 225.66 116.06L226.594 115.382C227.529 114.704 228.952 111.325 228.749 110.505C228.717 110.437 228.7 110.364 228.682 110.29Z" fill="#2C3A64"/>
<path d="M230.095 147.654C229.949 145.49 229.406 141.309 231.86 132.905C232.076 132.17 232.234 131.419 232.331 130.659C230.508 130.057 227.187 131.395 227.187 131.395C227.187 131.395 226.406 142.504 230.095 147.654Z" fill="#6385DB"/>
<path d="M230.088 121.942C230.088 121.942 232.331 122.758 233.761 128.705C234.707 132.633 236.447 138.408 236.644 140.225C236.84 142.042 234.654 152.663 234.654 152.663C234.654 152.663 234.346 152.889 233.59 152.737C233.172 152.661 232.795 152.435 232.531 152.102C232.531 152.102 232.009 145.022 232.143 141.678C232.199 140.289 225.721 131.506 222.225 130.374C220.851 129.927 230.088 121.942 230.088 121.942Z" fill="#739AF0"/>
<path d="M198.715 114.245C198.715 114.245 205.198 114.061 212.679 115.44L213.461 113.468L214.318 111.307C214.318 111.307 206.807 108.069 202.292 103.562L198.715 114.245Z" fill="#AEC3FF"/>
<path d="M202.395 103.455L198.672 114.456C198.543 114.418 198.423 114.354 198.32 114.268C198.216 114.182 198.131 114.076 198.07 113.956C198.009 113.836 197.973 113.704 197.965 113.57C197.956 113.436 197.975 113.301 198.02 113.174L201.291 103.931C201.329 103.825 201.388 103.728 201.465 103.646C201.541 103.564 201.634 103.498 201.737 103.454C201.84 103.409 201.951 103.386 202.063 103.387C202.175 103.387 202.286 103.41 202.389 103.455H202.395Z" fill="#F99746"/>
<path d="M205.948 122.43C206.297 122.499 206.659 122.426 206.955 122.229C207.251 122.032 207.456 121.725 207.527 121.376L208.809 114.955C208.877 114.606 208.805 114.244 208.608 113.947C208.411 113.651 208.104 113.445 207.756 113.374C207.407 113.305 207.045 113.377 206.749 113.575C206.453 113.773 206.247 114.08 206.177 114.429L204.896 120.848C204.827 121.198 204.899 121.56 205.096 121.856C205.293 122.153 205.599 122.359 205.948 122.43Z" fill="#F99746"/>
<path d="M198.715 114.245C198.715 114.245 205.198 114.061 212.679 115.44L213.461 113.468C206.427 112.03 198.715 114.245 198.715 114.245Z" fill="#739AF0"/>
<path d="M210.61 115.044L212.641 115.401C212.61 115.401 214.523 115.773 215.15 114.076C215.207 113.96 215.248 113.836 215.271 113.709C215.758 111.593 214.594 111.203 214.594 111.203L211.986 110.187L211.158 113.124V113.134L210.61 115.044Z" fill="#F99746"/>
<path d="M210.61 115.044L212.641 115.401C212.61 115.401 214.523 115.772 215.15 114.075C214.004 113.241 211.162 113.121 211.162 113.121V113.131L210.61 115.044Z" fill="#ED7D2B"/>
<path d="M206.121 116.218C206.121 116.218 207.112 116.613 206.931 117.05C206.749 117.488 205.489 118.088 205.289 117.744C205.09 117.399 205.498 115.847 206.121 116.218Z" fill="#FFB27D"/>
<path d="M208.33 119.865C208.423 119.375 208.489 118.881 208.529 118.384C208.541 117.918 208.596 117.537 208.486 117.523C208.377 117.51 208.297 117.596 208.253 117.749C208.209 117.903 208.036 118.829 208.036 118.829L208.123 119.733L208.33 119.865Z" fill="#FFB27D"/>
<path d="M110.32 119.203L104.706 186.042C104.706 186.042 104.117 190.093 107.127 190.101C112.077 190.113 131.76 190.101 131.76 190.101C131.76 190.101 128.038 189.258 128.081 187.36C128.134 185.123 134.643 118.57 134.643 118.57L110.32 119.203Z" fill="#7599EA"/>
<path d="M133.608 188.915C132.635 188.915 113.578 188.95 108.758 188.888C106.658 188.862 106.29 187.018 106.276 185.825C106.27 185.492 106.292 185.16 106.341 184.83L106.486 183.093L106.858 178.665L107.187 174.754L107.61 169.727L107.965 165.483L111.955 117.989L136.278 117.357C136.278 117.357 133.536 145.209 131.597 165.483C131.38 167.742 131.175 169.908 130.984 171.93C130.922 172.576 130.863 173.207 130.806 173.822C130.626 175.742 130.461 177.501 130.319 179.057C130.243 179.876 130.173 180.638 130.11 181.336C129.863 184.069 129.719 185.815 129.717 186.147C129.714 186.329 129.73 186.51 129.764 186.688C130.159 188.818 133.243 188.915 133.608 188.915Z" fill="#90AFF4"/>
<path d="M51.2448 82.831L64.9198 137.832L66.7923 145.365L73.1622 170.982H191.497L168.019 82.831H51.2448Z" fill="#AEC3FF"/>
<path d="M51.2448 82.831L49.3486 83.4635L70.6422 172.896L73.1622 170.982L51.2448 82.831Z" fill="#90AFF4"/>
<path d="M70.6422 172.896H188.248L191.496 170.982H73.1622L70.6422 172.896Z" fill="#7599EA"/>
<path d="M111.941 190.126H137.405V188.914H111.941V190.126Z" fill="#AEC3FF"/>
<path d="M130.932 172.895L130.802 173.822L106.854 178.665L107.182 174.754L107.339 172.895H130.932Z" fill="#5888DD"/>
<path opacity="0.4" d="M133.608 188.915C132.635 188.915 113.578 188.95 108.758 188.888C106.658 188.862 106.29 187.018 106.276 185.825L130.11 181.336C129.863 184.069 129.719 185.815 129.717 186.147C129.714 186.329 129.73 186.51 129.764 186.688C130.159 188.818 133.243 188.915 133.608 188.915Z" fill="#5888DD"/>
<path d="M51.2448 82.831H168.019L186.967 153.676H68.8599L51.2448 82.831Z" fill="#AEC3FF"/>
<path d="M181.459 150.607H72.121L68.2147 135.023L66.7031 128.993L66.0861 126.534L62.0704 110.519L61.8628 109.684L59.7399 101.219L58.7901 97.431L57.9802 94.1997L56.0817 86.6258H163.842L165.928 94.1997L166.817 97.431L167.86 101.219L174.731 126.173V126.174L175.313 128.288L175.584 129.269L180.327 146.498L181.459 150.607Z" fill="#739AF0"/>
<path d="M165.928 94.2009H57.9802L56.0817 86.6258H163.842L165.928 94.2009Z" fill="#607CF4"/>
<path d="M60.5397 90.0493C60.4088 89.5263 60.7269 89.1027 61.2493 89.1027C61.5207 89.116 61.7811 89.2147 61.9933 89.3846C62.2056 89.5545 62.3589 89.7871 62.4317 90.0493C62.5614 90.5723 62.2432 90.9959 61.7209 90.9959C61.4496 90.9826 61.1893 90.884 60.9772 90.714C60.7651 90.5441 60.612 90.3114 60.5397 90.0493Z" fill="#E9F3FE"/>
<path d="M63.6823 90.0493C63.5514 89.5263 63.8696 89.1027 64.3919 89.1027C64.6634 89.116 64.9237 89.2147 65.136 89.3846C65.3482 89.5545 65.5016 89.7871 65.5743 90.0493C65.704 90.5723 65.3859 90.9959 64.8635 90.9959C64.5922 90.9826 64.332 90.884 64.1199 90.714C63.9078 90.5441 63.7546 90.3114 63.6823 90.0493Z" fill="#E9F3FE"/>
<path d="M67.0652 90.0493C66.9355 89.5263 67.2536 89.1027 67.776 89.1027C68.0473 89.1159 68.3076 89.2145 68.5197 89.3845C68.7318 89.5545 68.8849 89.7871 68.9572 90.0493C69.0881 90.5723 68.7699 90.9959 68.2476 90.9959C67.9762 90.9825 67.7158 90.8839 67.5036 90.714C67.2913 90.544 67.1379 90.3114 67.0652 90.0493Z" fill="#E9F3FE"/>
<path d="M142.407 42.5885C146.825 37.3931 153.641 26.9584 158.228 21.614C158.439 21.3677 158.575 21.0659 158.62 20.7444C158.665 20.423 158.617 20.0954 158.481 19.8007C158.345 19.506 158.127 19.2566 157.854 19.0821C157.581 18.9076 157.263 18.8154 156.939 18.8164H148.592L156.465 0.987328C156.804 0.226097 155.766 -0.380403 155.267 0.287086L136.226 25.803C136.103 25.9687 136.03 26.1671 136.018 26.3735C136.007 26.58 136.055 26.7854 136.159 26.9642C136.263 27.143 136.417 27.2874 136.602 27.3793C136.787 27.4713 136.995 27.5068 137.2 27.4813L146.651 26.3158L141.028 41.781C140.719 42.6337 141.82 43.2786 142.407 42.5885Z" fill="#8CCC8B"/>
<path d="M103.101 74.2315C104.096 69.1254 104.723 59.6428 105.773 54.3751C105.822 54.1325 105.799 53.8811 105.709 53.6508C105.619 53.4205 105.464 53.221 105.264 53.076C105.064 52.9311 104.826 52.8468 104.579 52.8333C104.333 52.8197 104.087 52.8774 103.872 52.9995L98.3271 56.1258L96.8968 41.3371C96.8359 40.7057 95.921 40.6899 95.8398 41.3201L92.7231 65.3938C92.7029 65.5501 92.7291 65.7089 92.7983 65.8504C92.8676 65.992 92.9768 66.11 93.1125 66.1899C93.2482 66.2698 93.4043 66.308 93.5615 66.2998C93.7187 66.2916 93.87 66.2373 93.9966 66.1437L99.8386 61.8305L101.881 74.2089C101.995 74.8934 102.968 74.9092 103.101 74.2315Z" fill="#AEC3FF"/>
<path d="M186.236 152.114L91.2308 160.133C84.0115 160.742 78.7966 153.378 81.7554 146.761L122.005 56.5685C125.059 49.7253 134.445 48.9336 138.6 55.168L193.348 137.338C197.365 143.371 193.448 151.506 186.236 152.114Z" fill="#E6EFFF"/>
<path d="M186.538 155.713L91.5319 163.732C89.2592 163.923 86.9758 163.518 84.9072 162.556C82.8386 161.594 81.0562 160.109 79.736 158.247C78.4158 156.385 77.6034 154.21 77.3789 151.937C77.1544 149.665 77.5256 147.373 78.4559 145.288L118.707 55.0946C120.684 50.6628 124.75 47.7737 129.58 47.366C134.41 46.9582 138.902 49.1267 141.592 53.1644L196.347 135.342C197.613 137.242 198.362 139.44 198.521 141.719C198.679 143.997 198.241 146.278 197.25 148.335C196.259 150.392 194.75 152.155 192.87 153.45C190.991 154.745 188.807 155.526 186.534 155.717L186.538 155.713ZM130.186 54.5581C129.132 54.6392 128.119 55.0057 127.257 55.6184C126.395 56.2312 125.715 57.0671 125.291 58.0368L85.0413 148.229C84.6223 149.168 84.455 150.199 84.556 151.222C84.657 152.245 85.0227 153.224 85.617 154.062C86.2114 154.901 87.0138 155.569 87.9451 156.002C88.8763 156.435 89.9042 156.617 90.9273 156.53L185.932 148.511C186.955 148.425 187.938 148.073 188.784 147.491C189.629 146.908 190.309 146.114 190.754 145.189C191.2 144.263 191.397 143.236 191.326 142.211C191.254 141.186 190.917 140.197 190.347 139.342L135.588 57.1671C135.008 56.2827 134.199 55.5727 133.248 55.1132C132.296 54.6536 131.238 54.4617 130.186 54.5581Z" fill="#8CCC8B"/>
<path d="M127.96 138.316C127.849 137.151 127.975 135.976 128.33 134.861C128.667 133.805 129.221 132.832 129.956 132.003C130.72 131.151 131.649 130.462 132.685 129.976C133.77 129.455 135.016 129.134 136.423 129.015C137.723 128.888 139.035 128.996 140.297 129.334C141.41 129.633 142.451 130.157 143.355 130.872C144.218 131.567 144.926 132.434 145.435 133.418C145.971 134.458 146.291 135.595 146.377 136.762C146.488 137.918 146.361 139.084 146.005 140.189C145.662 141.234 145.108 142.198 144.377 143.02C143.606 143.879 142.667 144.571 141.619 145.053C140.432 145.598 139.156 145.924 137.853 146.017C136.447 146.136 135.165 146.028 134.007 145.695C132.904 145.39 131.874 144.866 130.978 144.154C130.12 143.466 129.413 142.61 128.9 141.637C128.363 140.606 128.043 139.476 127.96 138.316ZM142.648 121.107L128.963 122.261L123.085 75.6083L140.647 74.1265L142.648 121.107Z" fill="#8CCC8B"/>
<path d="M68.9648 123.968C68.9648 123.968 69.2638 123.297 69.4567 122.98C69.6497 122.662 70.4721 121.737 70.6143 121.942C70.7564 122.146 71.316 123.571 71.017 123.968C70.7181 124.366 71.0362 125.056 69.5504 125.475L68.9648 123.968Z" fill="#FFB27D"/>
<path d="M52.4879 119.733C52.4879 119.733 60.0783 126.075 63.0382 125.493C65.3518 125.034 69.0111 123.872 69.0111 123.872C69.0111 123.872 69.9766 124.791 69.7037 125.894C69.7037 125.894 65.0416 130.285 61.7207 130.314C56.5318 130.358 54.0817 127.738 54.0817 127.738L52.4879 119.733Z" fill="#ED7D2B"/>
<path d="M39.1761 186.644C39.1761 186.644 39.4017 190.203 40.0841 190.258C40.1755 190.265 43.572 190.265 43.572 190.265L47.9081 190.24C47.9081 190.24 47.8799 189.194 46.612 188.973C45.3441 188.752 43.2279 187.861 42.4564 186.183C41.6487 184.415 39.1761 186.644 39.1761 186.644Z" fill="#113C68"/>
<path d="M38.9268 186.891C38.9268 186.891 40.2443 187.333 41.2731 187.333C42.0141 187.324 42.7507 187.218 43.4648 187.02C43.4648 187.02 43.713 184.617 45.0779 179.323C45.7942 176.549 46.8162 172.982 48.2713 168.549C52.2927 156.297 53.5155 149.129 53.6271 148.45C53.6271 148.414 53.635 148.396 53.635 148.396L53.6226 148.391L41.2584 142.956C41.2584 142.956 42.7869 159.842 40.8365 166.322C40.5407 167.343 40.3046 168.38 40.1293 169.428C38.8986 176.468 38.9268 186.891 38.9268 186.891Z" fill="#2A4E96"/>
<path d="M45.0779 179.323C45.7942 176.549 46.8162 172.982 48.2713 168.549C52.2927 156.297 53.5155 149.129 53.6272 148.45C53.6272 148.43 53.6272 148.411 53.6272 148.391L41.263 142.956C41.263 142.956 42.7914 159.842 40.8411 166.322C40.5636 167.228 45.0779 179.323 45.0779 179.323Z" fill="#233862"/>
<path d="M48.8331 186.644C48.8331 186.644 49.053 190.203 49.7355 190.258C49.8269 190.265 53.2233 190.265 53.2233 190.265L57.5594 190.24C57.5594 190.24 57.5301 189.194 56.2633 188.973C54.9966 188.752 52.8793 187.861 52.1066 186.183C51.3046 184.415 48.8331 186.644 48.8331 186.644Z" fill="#15447C"/>
<path d="M55.8426 143.353C55.8426 143.353 56.0039 154.295 54.1122 167.731C52.2205 181.166 52.8624 186.869 52.8624 186.869C52.8624 186.869 51.564 187.29 51.0395 187.333C49.7039 187.446 48.3323 187.019 48.3323 187.019C48.3323 187.019 45.625 173.579 46.4011 166.854C47.1772 160.13 42.6978 143.776 42.6978 143.776L55.8426 143.353Z" fill="#2A4E96"/>
<path d="M47.0757 117.747L49.4896 119.328L51.6882 118.706C52.0897 118.132 52.1958 117.025 52.2025 116.067C52.205 115.48 52.176 114.893 52.1157 114.309L48.8591 112.87L47.6442 112.335C47.6442 112.354 47.739 113.333 47.757 113.477C47.9792 116.02 47.0757 117.747 47.0757 117.747Z" fill="#FFB27D"/>
<path d="M55.8979 146.395C52.894 149.3 41.5258 148.811 40.8253 145.611C40.1248 142.411 41.589 118.375 46.7203 116.865C47.7852 116.552 53.4783 118.394 53.4783 118.394C54.1062 120.127 54.6006 121.905 54.9571 123.713C55.0699 124.292 55.4027 130.435 55.6509 136.182C55.7637 138.868 55.8652 141.471 55.9148 143.376C55.9611 145.159 55.9633 146.332 55.8979 146.395Z" fill="#F99746"/>
<path d="M47.9961 113.525C48.6561 114.644 50.9746 115.622 52.2032 116.07C52.2056 115.483 52.1766 114.897 52.1163 114.313L48.8592 112.874C48.1394 112.865 47.7017 113.026 47.9961 113.525Z" fill="#FCA56B"/>
<path d="M53.3441 114.115C53.3441 114.115 48.0977 115.754 47.1287 112.466C46.1597 109.178 44.8298 107.177 48.1383 105.992C51.4467 104.807 52.471 105.868 53.0609 106.887C53.6509 107.905 54.6842 113.603 53.3441 114.115Z" fill="#FFB27D"/>
<path d="M52.8545 106.569C52.8545 106.569 52.5161 110.395 51.7265 110.229C50.9369 110.062 50.0672 109.707 50.1834 110.86C50.2995 112.013 49.4152 113.989 48.2759 113.985C45.8326 113.975 43.1772 107.697 43.8461 106.507C45.7796 103.072 55.6441 102.379 52.8545 106.569Z" fill="#163560"/>
<path d="M52.0829 116.947C52.0153 116.919 48.1777 115.196 47.7288 115.344C47.2798 115.492 46.7203 116.865 46.7203 116.865L53.4783 118.394C53.4783 118.394 52.9459 117.312 52.0829 116.947Z" fill="#ED7D2B"/>
<path d="M75.9766 135.564L54.463 155.844C54.0412 156.241 53.5087 156.368 53.2809 156.126L52.5544 155.353C52.3288 155.111 52.4845 154.587 52.9064 154.189L74.4199 133.908C74.8418 133.512 75.3742 133.384 75.6021 133.627L76.3285 134.399C76.5564 134.642 76.3985 135.166 75.9766 135.564Z" fill="#1F4D84"/>
<path d="M63.9034 146.945L54.463 155.844C54.0412 156.241 53.5087 156.368 53.2809 156.126L52.5544 155.353C52.3288 155.111 52.4845 154.587 52.9064 154.189L62.3468 145.289L63.9034 146.945Z" fill="#739AF0"/>
<path d="M71.0313 127.906C71.7806 130.366 73.0811 132.622 74.8336 134.502C76.5862 136.382 78.7445 137.836 81.1438 138.753C83.5431 139.671 86.12 140.028 88.6779 139.796C91.2359 139.565 93.7072 138.751 95.9034 137.418C98.0996 136.085 99.9626 134.267 101.35 132.103C102.738 129.939 103.614 127.486 103.91 124.932C104.207 122.378 103.917 119.789 103.063 117.364C102.208 114.939 100.812 112.741 98.9802 110.939C98.8945 110.853 98.8054 110.767 98.7163 110.684C96.0085 108.134 92.5351 106.551 88.8362 106.182C85.1372 105.812 81.42 106.677 78.2626 108.641C75.1051 110.605 72.6843 113.559 71.3766 117.043C70.0689 120.527 69.9475 124.346 71.0313 127.906ZM75.8514 112.32C77.9564 110.08 80.6777 108.515 83.6712 107.823C86.6647 107.131 89.7959 107.343 92.6688 108.433C95.5417 109.523 98.0272 111.442 99.8111 113.946C101.595 116.45 102.597 119.428 102.691 122.503C102.784 125.577 101.965 128.611 100.337 131.219C98.7084 133.827 96.3441 135.894 93.5428 137.157C90.7415 138.42 87.6291 138.823 84.5991 138.315C81.5691 137.807 78.7576 136.41 76.5203 134.302C75.0332 132.904 73.8361 131.226 72.9975 129.364C72.1589 127.502 71.6953 125.493 71.6332 123.452C71.571 121.41 71.9116 119.377 72.6354 117.467C73.3593 115.558 74.4521 113.81 75.8514 112.324V112.32Z" fill="#1F4D84"/>
<g opacity="0.5">
<path d="M98.4761 133.635C96.3711 135.875 93.6498 137.441 90.6563 138.133C87.6627 138.825 84.5315 138.612 81.6585 137.523C78.7855 136.433 76.2999 134.514 74.5159 132.01C72.7319 129.505 71.7298 126.528 71.6362 123.453C71.5427 120.378 72.3619 117.345 73.9902 114.736C75.6186 112.128 77.983 110.061 80.7844 108.798C83.5858 107.535 86.6983 107.133 89.7283 107.641C92.7584 108.149 95.5699 109.546 97.8072 111.654C99.2996 113.049 100.501 114.726 101.344 116.588C102.186 118.451 102.651 120.461 102.713 122.505C102.775 124.548 102.433 126.584 101.706 128.494C100.979 130.404 99.8809 132.151 98.4761 133.635Z" fill="#B3CFF9"/>
</g>
<path d="M55.9148 143.376C44.0605 134.918 45.0464 123.633 45.0464 123.633C49.3791 126.079 53.6791 131.489 55.6497 136.182C55.767 138.868 55.8652 141.471 55.9148 143.376Z" fill="#ED7D2B"/>
<path d="M67.6148 139.524C68.4508 139.33 69.0127 138.698 69.1289 138.587C69.1289 138.587 69.4854 138.612 69.0713 139.378C69.0364 139.441 68.9585 139.604 68.901 139.717C68.8955 139.728 68.8929 139.74 68.8933 139.752C68.8937 139.764 68.8971 139.776 68.9033 139.787C68.9094 139.797 68.9181 139.806 68.9285 139.812C68.939 139.819 68.9508 139.822 68.963 139.823C69.4459 139.859 69.9299 139.668 70.8595 139.863C70.9881 139.89 71.0254 140.201 71.0208 140.328C71.0392 140.62 70.9501 140.908 70.7704 141.139C70.6215 141.337 70.2063 141.549 69.2721 141.924C68.9179 142.067 67.9048 141.959 66.9548 141.633L66.1956 141.28L66.4302 139.868L66.622 139.908C66.9244 139.972 67.2989 139.597 67.6148 139.524Z" fill="#FFB27D"/>
<path d="M48.7304 118.394C48.7304 118.394 38.0786 120.427 51.8641 135.869C54.0682 138.339 65.9801 141.555 65.9801 141.555C65.9801 141.555 67.1882 140.525 66.5791 139.692C66.5791 139.692 58.3772 133.73 56.5724 132.782C55.7614 132.355 53.4219 123.264 52.0987 121.074C50.7755 118.884 48.7304 118.394 48.7304 118.394Z" fill="#F99746"/>
<path d="M69.2535 124.156C69.2535 124.156 69.6022 123.489 69.671 123.139C69.7398 122.789 70.1775 121.762 70.358 121.581C70.4302 121.509 70.6694 121.603 70.6965 121.914C70.6835 122.148 70.6253 122.379 70.525 122.591C70.3344 123.069 70.3659 123.721 70.2994 123.932C70.1358 124.463 69.2535 124.156 69.2535 124.156Z" fill="#FFB27D"/>
<path d="M73.4927 97.6953C73.4098 97.7869 73.3551 97.9006 73.3351 98.0226C73.3151 98.1446 73.3306 98.2698 73.3799 98.3831C73.5457 98.8417 74.0928 99.3544 74.7335 99.8661C74.8147 99.9316 74.8869 99.9914 74.9501 100.047L74.9986 100.091L75.0358 100.124C75.6292 100.671 75.4058 100.801 76.4707 101.908C77.6855 103.174 78.5225 103.198 78.7605 103.083C78.9613 102.984 78.553 102.312 78.0995 101.558C78.0781 101.522 78.0567 101.485 78.0341 101.445C77.9732 101.344 77.9134 101.243 77.8536 101.141C77.3223 100.238 77.4588 99.8073 77.5852 98.4554C77.6878 97.3576 79.2941 92.3204 79.2941 92.3204L76.9659 91.9183C76.9659 91.9183 76.2631 95.9289 75.4904 96.5489C75.0776 96.8776 74.6151 96.8878 74.218 97.1261C74.1898 97.143 74.1616 97.16 74.1346 97.178C73.8985 97.321 73.6826 97.495 73.4927 97.6953Z" fill="#FFB27D"/>
<path d="M73.4927 97.6954C73.4098 97.787 73.3551 97.9007 73.3351 98.0227C73.3151 98.1447 73.3306 98.2699 73.3799 98.3833C73.583 98.8419 74.1166 99.3514 74.7338 99.862C74.8139 99.9286 74.8849 99.9896 74.9481 100.047L74.9966 100.091L75.0339 100.124C75.6273 100.672 75.4039 100.802 76.4689 101.909C77.684 103.175 78.5211 103.199 78.7592 103.084C78.96 102.985 78.5516 102.313 78.098 101.559C77.2482 101.226 76.501 100.674 75.9319 99.9602C75.2279 99.0566 74.7495 97.91 74.2701 97.2051L74.1324 97.1792C73.8972 97.322 73.6821 97.4956 73.4927 97.6954Z" fill="#233862"/>
<path d="M92.2719 96.2451C92.4152 96.9657 93.4394 96.846 94.5844 96.5659C95.7293 96.2858 95.4563 96.619 97.0863 96.4394C98.7163 96.2598 99.2092 95.6488 99.2589 95.4082C99.3029 95.1936 98.4986 95.1168 97.6345 95.0174L97.3085 94.9779C96.3339 94.8548 95.6165 94.2257 94.7344 93.7073C93.8963 93.2171 92.6453 91.2226 92.6453 91.2226L90.4107 91.3988C90.4107 91.3988 91.5827 93.1821 92.0362 93.9569C92.3024 94.4087 92.2877 95.0163 92.255 95.4816C92.2258 95.7357 92.2315 95.9926 92.2719 96.2451Z" fill="#FFB27D"/>
<path d="M94.5821 96.5659C95.727 96.2869 95.4541 96.619 97.084 96.4394C98.714 96.2598 99.207 95.6488 99.2566 95.4082C99.3006 95.1936 98.4963 95.1168 97.6323 95.0174L97.6244 95.0344C96.9263 95.4822 96.1203 95.7327 95.2916 95.7595C94.1862 95.7854 93.0153 95.4681 92.2528 95.4805C92.2234 95.735 92.2291 95.9922 92.2697 96.2451C92.4129 96.9657 93.4372 96.846 94.5821 96.5659Z" fill="#233862"/>
<path d="M83.7125 81.9399L81.6223 87.5655L78.8925 94.9068C78.4058 94.9428 77.9164 94.8982 77.4441 94.7746C76.7922 94.5849 76.0432 94.097 76.0432 94.097C76.0432 94.097 76.8034 86.2079 78.2168 81.6801C78.5801 80.5179 78.9862 79.5782 79.434 79.0485C81.6235 76.4622 83.7125 81.9399 83.7125 81.9399Z" fill="#233862"/>
<path d="M81.5918 73.0027C80.4029 72.6176 77.3054 72.9948 73.9371 73.6036C73.4827 73.6854 73.0142 73.6273 72.5935 73.437C72.1728 73.2466 71.8196 72.9329 71.5807 72.5374L63.1138 71.8722C63.1138 71.8722 60.3174 78.075 61.8459 82.0291C62.0715 82.6096 62.5633 82.9722 63.3247 82.9846C63.3247 82.9846 68.4414 82.9936 70.0781 82.9948C74.289 82.9948 78.9895 80.0989 79.5986 79.9781C80.5947 79.7793 80.9917 81.7727 81.9866 83.8655C82.9815 85.9584 91.339 93.137 91.339 93.137C91.339 93.137 92.625 93.1505 93.1551 92.9506C93.7259 92.7372 93.9357 92.4582 93.9357 92.4582C93.9357 92.4582 84.6769 74 81.5918 73.0027Z" fill="#2A4E96"/>
<path d="M70.6895 47.6415C70.201 47.3506 69.6402 47.2042 69.072 47.2191C68.8109 47.2265 68.5497 47.2106 68.2914 47.1717C65.0596 46.6962 63.1126 51.3957 62.9976 52.8188C62.7878 55.4266 61.4093 55.8231 59.4703 57.4551C55.5809 60.7304 56.7202 64.5332 58.8453 65.9472C60.1211 66.7954 62.3693 65.9472 62.3693 65.9472C62.4009 65.9687 68.5192 62.5251 71.5344 60.8648C76.0555 60.2199 72.5056 48.7247 70.6895 47.6415Z" fill="#233862"/>
<path d="M69.0083 59.447C69.0219 59.4561 67.5248 59.9666 66.5263 59.5227C65.5843 59.1059 64.8712 57.5538 64.8859 57.5527C65.3146 57.5335 65.7885 57.1585 66.1472 54.6982L66.33 54.7637L69.3964 55.8696C69.3964 55.8696 69.1708 56.8557 69.0298 57.7899C68.9068 58.5806 68.8414 59.3352 69.0083 59.447Z" fill="#FFB27D"/>
<path d="M69.394 55.8696C69.394 55.8696 69.2721 56.4016 69.0927 57.3945C67.3316 57.076 66.5757 55.7171 66.3275 54.7637L69.394 55.8696Z" fill="#ED975D"/>
<path d="M69.8503 56.8475C69.8503 56.8475 65.6541 56.2828 66.0467 53.6715C66.4392 51.0603 66.1595 49.2306 68.8554 49.4803C71.5514 49.7299 71.9214 50.8051 72.0015 51.7086C72.0816 52.6121 70.9524 56.9231 69.8503 56.8475Z" fill="#FFB27D"/>
<path d="M71.8548 50.2776C71.8548 50.2776 69.1679 52.5941 67.3427 52.7804C65.5176 52.9668 64.8239 52.3795 64.8239 52.3795C65.5533 51.7266 66.1408 50.9304 66.5497 50.0404C66.6427 49.831 66.7899 49.6502 66.9762 49.5169C67.1624 49.3837 67.3809 49.3028 67.6089 49.2826C68.9073 49.1696 71.3799 49.1188 71.8548 50.2776Z" fill="#233862"/>
<path d="M70.1707 50.0699C70.1707 50.0699 71.0732 50.9397 71.3519 51.5858C71.6249 52.2082 71.7061 53.697 71.4884 54.289C71.4884 54.289 72.8896 51.5632 72.0976 50.2382C71.2571 48.8341 70.1707 50.0699 70.1707 50.0699Z" fill="#233862"/>
<path d="M72.5384 65.6355C72.4087 74.1389 72.5023 72.3624 71.5728 73.1688C71.3472 73.363 70.7189 73.4782 69.8909 73.5336C67.2863 73.7052 62.7088 73.2738 62.5351 72.7927C61.935 71.1245 62.3592 70.6072 61.8583 68.0491C61.8064 67.778 61.7455 67.4844 61.6666 67.1636C61.2492 65.4108 60.842 64.8144 62.3264 61.9976C63.671 59.4474 65.0687 57.376 65.1939 57.4517C68.7404 59.5603 69.0291 57.7905 69.0291 57.7905C69.0291 57.7905 72.6027 61.4883 72.5384 65.6355Z" fill="#F99746"/>
<path d="M81.6223 87.5655L78.8925 94.9068C78.4058 94.9428 77.9164 94.8982 77.4441 94.7746C76.7922 94.5849 76.0432 94.097 76.0432 94.097C76.0432 94.097 76.8034 86.2079 78.2168 81.6801L81.6223 87.5655Z" fill="#2A4E96"/>
<path d="M69.0269 57.7928C69.0269 57.7928 72.6771 58.414 73.1046 59.9873C73.5322 61.5605 74.9399 71.1109 74.9399 71.1109C74.9399 71.1109 73.9112 72.1173 73.0539 71.2589C72.1966 70.4005 70.359 62.3218 70.359 62.3218L69.0269 57.7928Z" fill="#F99746"/>
<path d="M69.891 73.5336C67.2864 73.7052 62.7089 73.2738 62.5351 72.7927C61.935 71.1245 62.3592 70.6072 61.8583 68.0491L63.1161 64.5083C63.1161 64.5083 62.9074 68.4523 64.0681 69.4902C65.2289 70.5282 68.8238 71.4938 69.3879 72.3601C69.6331 72.7131 69.8042 73.1124 69.891 73.5336Z" fill="#ED7D2B"/>
<path d="M66.9073 71.8734C66.9073 71.8734 69.4773 71.3018 69.8925 71.5345C70.3077 71.7672 71.3197 72.5952 71.446 72.8844C71.5724 73.1736 70.5232 72.6641 70.1824 72.5726C69.9568 72.5127 69.378 72.7149 69.0903 72.8121C67.8775 73.2165 67.1341 73.0075 67.1341 73.0075L66.9073 71.8734Z" fill="#FFB27D"/>
<path d="M65.1916 57.454C65.1916 57.454 61.7421 57.6652 60.5475 59.3333C58.8657 61.6803 55.5267 71.6836 57.4376 73.0185C59.5899 74.5229 67.2299 73.4127 67.2299 73.4127C67.2299 73.4127 67.4849 72.2234 67.1318 71.6474C66.7787 71.0714 61.0258 70.1374 60.7653 69.8754C60.5047 69.6133 64.085 64.6936 64.085 63.8962C64.085 63.0988 65.1916 57.454 65.1916 57.454Z" fill="#F99746"/>
<path d="M70.0161 72.246C70.0161 72.246 70.5543 72.9419 70.7303 73.0243C70.8193 73.0728 70.9203 73.0948 71.0213 73.0876L70.6581 72.4336L70.0161 72.246Z" fill="#FFB27D"/>
<path d="M69.892 71.53L71.4568 72.2913C71.4262 72.3294 71.3861 72.3587 71.3405 72.3763C71.295 72.394 71.2456 72.3993 71.1974 72.3919C70.9664 72.351 70.7398 72.2886 70.5204 72.2055L69.892 71.53Z" fill="#FFB27D"/>
<path d="M83.2568 73.3235L66.9073 73.3178V73.6793L83.1113 73.6849L83.2568 73.3235Z" fill="#233862"/>
<path d="M70.7302 73.6804L83.1113 73.6849L86.8383 64.4135L74.4763 64.409L70.7302 73.6804Z" fill="#233862"/>
<path d="M79.988 69.0476C80.0806 68.7211 79.8933 68.4568 79.5672 68.4568C79.3957 68.4663 79.2311 68.528 79.0955 68.6335C78.9598 68.7391 78.8595 68.8835 78.808 69.0476C78.7143 69.3729 78.9027 69.6373 79.2288 69.6373C79.4001 69.6275 79.5644 69.5659 79.7 69.4606C79.8356 69.3553 79.936 69.2113 79.988 69.0476Z" fill="white"/>
<path d="M163.778 108.651C162.11 108.096 160.958 108.796 160.958 108.796C156.155 108.994 155.977 113.923 156.541 115.757C157.33 118.332 154.531 120.364 157.638 121.404C161.248 122.614 164.269 121.178 164.068 121.802C175.46 122.702 167.572 109.911 163.778 108.651Z" fill="#163560"/>
<path d="M158.797 132.62C158.43 133.307 158 133.958 157.513 134.565C156.516 135.816 151.28 132.846 151.731 132.62C152.182 132.395 154.813 124.806 155.439 123.852C156.065 122.897 158.201 122.403 158.201 122.403L158.797 132.62Z" fill="#F99746"/>
<path d="M176.466 183.807C176.466 183.807 177.911 185.127 177.629 186.066C177.347 187.004 176.043 187.629 175.867 188.776C175.691 189.924 174.986 190.549 174.351 190.549H171.327C171.327 190.549 170.86 189.741 171.988 189.498C173.116 189.255 173.541 187.907 173.47 186.657C173.399 185.406 173.576 183.737 173.576 183.737L175.973 183.181L176.466 183.807Z" fill="#1F447F"/>
<path d="M164.239 184.367C164.239 184.367 164.759 189.961 164.127 190.274L156.005 190.257C156.005 190.257 156.005 189.32 157.309 189.111C158.613 188.902 160.905 188.138 161.292 186.435C161.679 184.732 164.239 184.367 164.239 184.367Z" fill="#1C3154"/>
<path d="M170.481 128.847C170.553 130.099 170.553 131.353 170.481 132.605C170.401 133.96 169.028 135.784 168.833 136.233C168.344 137.363 167.794 137.546 167.794 137.546L163.53 138.593L162.031 138.96L157.304 137.546C157.304 137.546 155.151 131.529 156.016 128.142C156.881 124.755 158.201 122.403 158.201 122.403C158.201 122.403 161.414 121.68 167.081 122.083L170.481 128.847Z" fill="#F99746"/>
<path d="M170.887 132.652C170.807 134.007 169.028 135.784 168.833 136.233C168.344 137.363 167.794 137.546 167.794 137.546L163.53 138.593L162.761 136.384C162.761 136.384 168.99 134.745 167.988 128.972L170.887 132.652Z" fill="#ED7D2B"/>
<path d="M157.604 138.46C157.604 138.46 155.264 145.755 155.114 148.239C154.964 150.724 159.589 183.525 159.775 184.669C159.95 185.747 161.287 186.435 161.287 186.435C161.753 186.663 162.287 186.703 162.781 186.548C164 186.209 164.385 185.791 164.385 185.791C164.385 185.791 166.207 162.398 165.08 154.041C164.393 148.873 164.012 143.668 163.938 138.455L157.604 138.46Z" fill="#233862"/>
<path d="M167.523 138.242C167.523 138.242 171.093 143.039 171.426 146.282C171.759 149.525 171.948 160.915 172.658 164.076C173.367 167.237 175.971 173.321 175.971 183.181C175.971 183.181 175.7 183.746 174.863 184.048C174.544 184.155 174.219 184.245 173.89 184.318C173.554 184.394 173.203 184.355 172.893 184.207C172.582 184.06 172.33 183.812 172.177 183.503C170.416 179.952 164.805 168.498 164.517 166.12C164.313 164.437 162.542 153.301 158.676 146.768C157.749 145.199 159.24 138.96 159.24 138.96L167.523 138.242Z" fill="#2A4E96"/>
<path d="M157.231 137.338C157.231 137.338 158.171 138.082 160.038 138.12C162.268 138.165 167.793 137.555 167.793 137.555C167.945 138.01 168.025 138.487 168.028 138.967C168.028 138.967 161.28 140.671 157.37 139.216C157.37 139.207 156.866 138.257 157.231 137.338Z" fill="#233862"/>
<path d="M159.502 140.04C158.938 140.04 158.487 139.523 158.487 138.887C158.487 138.251 158.938 137.733 159.502 137.733C160.066 137.733 160.517 138.251 160.517 138.887C160.517 139.523 160.066 140.04 159.502 140.04ZM159.502 138.071C159.126 138.071 158.825 138.437 158.825 138.887C158.825 139.336 159.13 139.702 159.502 139.702C159.874 139.702 160.179 139.336 160.179 138.887C160.179 138.437 159.878 138.071 159.502 138.071Z" fill="white"/>
<path d="M164.378 142.137L154.235 142.232L149.244 130.487L159.387 130.392L164.378 142.137Z" fill="#B5453C"/>
<path d="M163.052 136.83L162.309 135.915C162.309 135.915 161.806 135.463 161.44 135.389C161.075 135.314 160.304 134.868 160.23 134.993C160.155 135.119 160.822 136.01 160.822 136.01H160.856C160.09 136.587 158.156 136.078 157.923 136.313C157.634 136.599 158.321 137.216 158.69 137.555C159.059 137.894 160.114 138.479 160.936 138.223C161.537 138.035 162.483 137.844 162.483 137.844L163.052 136.83Z" fill="#FFB27D"/>
<path d="M150.006 132.554C150.006 132.554 150.645 131.828 151.05 132.177C151.455 132.526 150.944 134.236 150.558 134.062C150.172 133.888 149.785 132.766 150.006 132.554Z" fill="#FFB27D"/>
<path d="M167.081 122.083C167.081 122.083 169.984 122.403 172.068 126.194C173.711 129.184 176.52 134.694 175.46 136.246C174.995 136.929 170.535 139.361 161.93 137.972C161.93 137.972 162.066 136.883 162.761 136.379C162.761 136.379 170 134.051 169.989 133.588C169.965 132.713 169.01 131.956 164.966 127.905C163.866 126.808 167.081 122.083 167.081 122.083Z" fill="#F99746"/>
<path d="M164.847 122.237C164.946 122.103 164.818 121.672 164.659 120.882C164.514 120.161 164.269 119.046 164.274 117.792L164.061 117.828L160.461 118.434C160.461 118.434 160.543 119.397 160.545 120.306V120.328C160.545 121.119 160.333 122.308 160.598 122.463C161.962 123.263 164.466 122.752 164.847 122.237Z" fill="#FFB27D"/>
<path d="M160.461 118.433C160.461 118.433 160.533 119.788 160.535 120.7C162.549 120.651 163.624 118.693 164.061 117.827L160.461 118.433Z" fill="#E8945B"/>
<path d="M160.244 120.058C160.244 120.058 164.961 119.38 164.498 116.444C164.034 113.507 164.331 111.445 161.299 111.751C158.267 112.057 157.861 113.269 157.777 114.287C157.694 115.304 159.004 120.153 160.244 120.058Z" fill="#FFB27D"/>
<path d="M159.144 112.022C159.144 112.022 160.981 115.259 163.038 115.453C165.096 115.647 165.869 114.979 165.869 114.979C164.758 114.277 163.924 113.21 163.512 111.96C163.512 111.96 159.856 110.232 159.144 112.022Z" fill="#163560"/>
<path d="M159.509 112.25C159.509 112.25 158.606 112.761 158.328 113.521C157.982 114.411 157.91 115.385 158.12 116.317C158.12 116.317 156.778 114.131 157.658 112.633C158.591 111.045 159.509 112.25 159.509 112.25Z" fill="#163560"/>
<path d="M263.448 190.126H1.93461C1.75394 190.126 1.60748 190.273 1.60748 190.454V190.642C1.60748 190.823 1.75394 190.97 1.93461 190.97H263.448C263.628 190.97 263.775 190.823 263.775 190.642V190.454C263.775 190.273 263.628 190.126 263.448 190.126Z" fill="#233862"/>
</svg>
