<svg width="282" height="256" viewBox="0 0 282 256" fill="none" xmlns="http://www.w3.org/2000/svg">
<mask id="mask0_115_125" style="mask-type:luminance" maskUnits="userSpaceOnUse" x="27" y="54" width="211" height="199">
<rect x="27.9546" y="54.0816" width="210" height="198" fill="white"/>
</mask>
<g mask="url(#mask0_115_125)">
<path fill-rule="evenodd" clip-rule="evenodd" d="M237.91 153.059C237.91 207.723 193.771 252.037 139.323 252.037C84.875 252.037 40.7361 207.723 40.7361 153.059C40.7361 98.3954 84.875 54.0816 139.323 54.0816C193.771 54.0816 237.91 98.3954 237.91 153.059C237.91 207.723 237.91 153.059 237.91 153.059Z" fill="#F5F7FF"/>
<path d="M66.2987 99.308C66.1647 98.9042 66.3881 98.4555 66.7903 98.3658L75.1921 96.616C75.639 96.5262 76.0412 96.8852 76.0412 97.3338L74.7005 117.479C74.6558 118.242 73.628 118.377 73.3598 117.704L66.2987 99.308Z" fill="#D9E0FF"/>
<path d="M82.3427 91.5903C82.3874 91.1416 82.7896 90.8724 83.2365 91.007L91.5043 93.2952C91.9512 93.4298 92.1299 93.9234 91.9065 94.3272L81.4936 111.646C81.1361 112.274 80.1529 111.96 80.2423 111.197L82.3427 91.5903Z" fill="#D9E0FF"/>
<path fill-rule="evenodd" clip-rule="evenodd" d="M181.955 101.082C181.955 105.5 178.373 109.082 173.955 109.082C169.536 109.082 165.955 105.5 165.955 101.082C165.955 96.6633 169.536 93.0816 173.955 93.0816C178.373 93.0816 181.955 96.6633 181.955 101.082C181.955 105.5 181.955 101.082 181.955 101.082Z" fill="url(#paint0_linear_115_125)"/>
<path d="M97.6238 215.471C92.5738 213.855 89.803 208.426 91.4118 203.356L126.092 94.7772C127.7 89.7072 133.108 86.9254 138.158 88.5406L181.776 102.584C186.826 104.199 189.597 109.628 187.988 114.698L153.308 223.278C151.699 228.348 146.292 231.129 141.242 229.514L97.6238 215.471Z" fill="url(#paint1_linear_115_125)"/>
<path d="M174.616 104.012L174.035 105.762C173.499 107.377 171.8 108.274 170.147 107.781L144.316 99.4801C142.707 98.9417 141.813 97.2367 142.305 95.5766L142.886 93.8268L137.21 91.9872C133.545 90.8207 129.613 92.8397 128.406 96.5188L94.0391 204.066C92.8771 207.745 94.8882 211.694 98.5528 212.905L141.59 226.769C145.254 227.936 149.187 225.917 150.394 222.237L184.761 114.69C186.012 111.011 183.956 107.063 180.291 105.851L174.616 104.012Z" fill="white"/>
<path d="M190.047 178.23L123.413 192.229L119.659 203.939L185.533 192.318L190.047 178.23Z" fill="#EDEFFF"/>
<path d="M130.429 170.243L196.08 159.251L205.777 128.92L141.021 137.131L130.429 170.243Z" fill="#EDEFFF"/>
<path d="M154.148 99.8836C153.835 99.7938 153.656 99.4349 153.746 99.1208C153.835 98.8067 154.193 98.6273 154.505 98.717L162.147 101.185C162.46 101.274 162.639 101.633 162.55 101.947C162.46 102.262 162.103 102.441 161.79 102.351L154.148 99.8836Z" fill="white"/>
<path fill-rule="evenodd" clip-rule="evenodd" d="M188.751 113.98C188.751 114.5 188.33 114.922 187.812 114.922C187.294 114.922 186.874 114.5 186.874 113.98C186.874 113.46 187.294 113.038 187.812 113.038C188.33 113.038 188.751 113.46 188.751 113.98C188.751 114.5 188.751 113.98 188.751 113.98Z" fill="white"/>
<mask id="mask1_115_125" style="mask-type:luminance" maskUnits="userSpaceOnUse" x="81" y="145" width="100" height="77">
<rect x="81.9546" y="145.082" width="99" height="76" fill="white"/>
</mask>
<g mask="url(#mask1_115_125)">
<path fill-rule="evenodd" clip-rule="evenodd" d="M113.97 177.023L111.202 175.259L109.173 175.398L106.774 152.232L104.006 150.467L104.236 152.51L98.7467 153.067L84.7225 181.48L85.1838 184.034L82.8311 184.684L85.599 186.448L101.376 184.823L100.177 191.694L102.945 193.458L110.926 192.623L110.003 183.894L114.616 183.477L113.97 177.023ZM99.9462 164.024L101.422 178.277L92.5188 179.205L99.531 164.999L99.9462 164.024Z" fill="#F59187"/>
<path fill-rule="evenodd" clip-rule="evenodd" d="M111.202 175.222L111.848 181.676L107.281 182.14L108.204 190.868L100.223 191.704L99.3003 182.976L82.8311 184.693L81.9546 179.679L95.9788 151.313L104.052 150.477L106.635 175.687L111.202 175.222ZM98.6545 176.522L97.1783 162.223L96.7631 163.198L89.751 177.451L98.6545 176.522Z" fill="#FFA9A0"/>
<path fill-rule="evenodd" clip-rule="evenodd" d="M180.909 183.894L178.833 181.109L177.91 182.548L173.528 180.598L147.37 198.194L146.309 201.119L143.542 200.19L145.617 202.976L160.749 209.708L155.121 214.954L157.197 217.739L164.532 220.989L168.084 212.957L172.282 214.814L174.911 208.872L172.836 206.086L171.083 206.226L180.909 183.894ZM169.145 190.673L163.378 203.811L155.213 200.19L168.315 191.323L169.145 190.673Z" fill="#F59187"/>
<path fill-rule="evenodd" clip-rule="evenodd" d="M172.836 206.142L170.206 212.085L166.008 210.228L162.456 218.26L155.121 215.01L158.673 206.978L143.542 200.246L145.248 195.464L171.405 177.869L178.833 181.165L168.637 204.285L172.836 206.142ZM161.302 200.989L167.069 187.85L166.239 188.5L153.137 197.368L161.302 200.989Z" fill="#FFA9A0"/>
<path fill-rule="evenodd" clip-rule="evenodd" d="M149.954 156.364L148.062 152.092L147.693 152.975C146.032 151.257 143.726 150.05 140.866 149.4C136.575 148.425 132.977 149.075 130.025 151.442C127.072 153.764 124.996 157.71 123.751 163.235L122.09 170.431C121.398 173.681 121.213 176.606 121.536 179.113L120.706 178.648L122.643 183.059C122.689 183.198 122.782 183.337 122.828 183.477C124.443 186.866 127.395 189.048 131.685 190.023C136.022 191.044 139.666 190.348 142.573 187.934C145.479 185.566 147.555 181.62 148.8 176.141L150.461 168.852C151.568 163.931 151.43 159.799 150.046 156.549C150 156.503 150 156.41 149.954 156.364ZM137.037 182.316L131.639 183.152C130.532 182.548 129.794 181.62 129.425 180.366C128.917 178.602 129.01 176.095 129.748 172.845L131.962 163.188C132.7 160.171 133.669 158.035 134.868 156.828C136.068 155.621 137.59 155.203 139.436 155.621C141.327 156.039 142.573 157.106 143.08 158.824C143.587 160.31 143.587 162.353 143.126 164.906L137.037 182.316Z" fill="#F59187"/>
<path fill-rule="evenodd" clip-rule="evenodd" d="M140.912 184.182C138.006 186.55 134.361 187.247 130.025 186.272C125.734 185.297 122.782 183.115 121.167 179.726C119.553 176.336 119.322 172.019 120.475 166.68L122.09 159.344C123.335 153.82 125.458 149.873 128.364 147.552C131.316 145.231 134.915 144.534 139.205 145.509C143.495 146.484 146.448 148.666 148.062 152.055C149.677 155.398 149.908 159.762 148.754 165.101L147.14 172.39C145.894 177.868 143.818 181.815 140.912 184.182ZM141.419 155.12C140.866 153.402 139.666 152.334 137.775 151.916C135.93 151.498 134.407 151.87 133.208 153.123C132.008 154.33 131.04 156.466 130.301 159.484L128.087 169.094C127.349 172.344 127.257 174.851 127.764 176.615C128.272 178.379 129.517 179.493 131.409 179.958C133.3 180.422 134.869 179.958 136.068 178.658C137.267 177.358 138.236 175.129 138.974 172.065L141.143 162.594C141.881 159.298 141.973 156.791 141.419 155.12Z" fill="#FFA9A0"/>
</g>
<path fill-rule="evenodd" clip-rule="evenodd" d="M219.319 120.754C219.319 118.511 219.721 116.627 220.525 115.146C221.33 113.665 222.536 112.005 224.1 110.211C225.262 108.865 226.156 107.698 226.693 106.801C227.229 105.903 227.497 104.871 227.497 103.75C227.497 102.538 227.05 101.551 226.156 100.833C225.262 100.115 224.056 99.7564 222.492 99.7564C221.106 99.7564 219.766 100.026 218.559 100.609C217.352 101.192 215.743 102.045 213.732 103.256C212.481 103.974 211.408 104.333 210.559 104.333C209.621 104.333 208.861 103.929 208.235 103.121C207.61 102.314 207.297 101.327 207.297 100.205C207.297 99.3975 207.431 98.7245 207.744 98.1861C208.012 97.6477 208.459 97.1093 209.084 96.6157C211.006 95.0902 213.241 93.8788 215.743 93.0263C218.246 92.1738 220.793 91.7252 223.341 91.7252C226.067 91.7252 228.48 92.2187 230.67 93.1609C232.86 94.148 234.513 95.4492 235.72 97.1541C236.927 98.8591 237.508 100.744 237.508 102.852C237.508 104.468 237.195 105.948 236.569 107.294C235.943 108.64 235.184 109.807 234.29 110.794C233.396 111.781 232.234 112.992 230.759 114.473C229.106 115.998 227.854 117.3 227.005 118.332C226.156 119.364 225.665 120.53 225.441 121.786C225.262 122.639 224.905 123.267 224.369 123.716C223.832 124.164 223.162 124.389 222.358 124.389C221.419 124.389 220.659 124.075 220.123 123.402C219.587 122.729 219.319 121.876 219.319 120.754ZM216.95 133.542C216.95 131.926 217.486 130.58 218.514 129.504C219.587 128.427 220.883 127.888 222.536 127.888C224.1 127.888 225.441 128.427 226.469 129.504C227.542 130.58 228.033 131.926 228.033 133.542C228.033 135.157 227.497 136.503 226.469 137.58C225.396 138.657 224.1 139.195 222.536 139.195C220.883 139.195 219.542 138.657 218.514 137.58C217.442 136.503 216.95 135.157 216.95 133.542Z" fill="url(#paint2_linear_115_125)"/>
</g>
<path fill-rule="evenodd" clip-rule="evenodd" d="M154.955 247.582C154.955 251.724 151.597 255.082 147.455 255.082C143.312 255.082 139.955 251.724 139.955 247.582C139.955 243.439 143.312 240.082 147.455 240.082C151.597 240.082 154.955 243.439 154.955 247.582C154.955 251.724 154.955 247.582 154.955 247.582Z" fill="url(#paint3_linear_115_125)"/>
<path fill-rule="evenodd" clip-rule="evenodd" d="M43.9546 129.082C43.9546 131.843 41.716 134.082 38.9546 134.082C36.1932 134.082 33.9546 131.843 33.9546 129.082C33.9546 126.32 36.1932 124.082 38.9546 124.082C41.716 124.082 43.9546 126.32 43.9546 129.082C43.9546 131.843 43.9546 129.082 43.9546 129.082Z" fill="url(#paint4_linear_115_125)"/>
<path fill-rule="evenodd" clip-rule="evenodd" d="M73.9546 221.082C73.9546 226.052 69.9252 230.082 64.9546 230.082C59.984 230.082 55.9546 226.052 55.9546 221.082C55.9546 216.111 59.984 212.082 64.9546 212.082C69.9252 212.082 73.9546 216.111 73.9546 221.082C73.9546 226.052 73.9546 221.082 73.9546 221.082Z" fill="url(#paint5_linear_115_125)"/>
<path fill-rule="evenodd" clip-rule="evenodd" d="M117.955 72.5816C117.955 76.1715 115.044 79.0816 111.455 79.0816C107.865 79.0816 104.955 76.1715 104.955 72.5816C104.955 68.9918 107.865 66.0816 111.455 66.0816C115.044 66.0816 117.955 68.9918 117.955 72.5816C117.955 76.1715 117.955 72.5816 117.955 72.5816Z" fill="url(#paint6_linear_115_125)"/>
<path fill-rule="evenodd" clip-rule="evenodd" d="M216.955 191.082C216.955 194.948 213.821 198.082 209.955 198.082C206.089 198.082 202.955 194.948 202.955 191.082C202.955 187.216 206.089 184.082 209.955 184.082C213.821 184.082 216.955 187.216 216.955 191.082C216.955 194.948 216.955 191.082 216.955 191.082Z" fill="url(#paint7_linear_115_125)"/>
<path d="M23.7168 187.905C23.1606 186.122 22.6109 184.276 22.0835 182.416L23.3857 182.01C23.9092 183.858 24.4562 185.693 25.0085 187.462L23.7168 187.905ZM256.711 185.603L255.363 185.429C255.587 183.531 255.8 181.62 255.995 179.75L257.346 179.904C257.153 181.782 256.936 183.698 256.711 185.603ZM20.5824 176.886C20.1073 175.054 19.6466 173.178 19.2121 171.323L20.5313 170.984C20.9632 172.827 21.4213 174.688 21.895 176.515L20.5824 176.886ZM257.902 174.192L256.55 174.061C256.721 172.157 256.881 170.241 257.023 168.367L258.377 168.479C258.234 170.361 258.07 172.285 257.902 174.192ZM17.9702 165.726C17.5775 163.853 17.2045 161.959 16.8604 160.098L18.1953 159.827C18.5368 161.678 18.9072 163.56 19.2972 165.421L17.9702 165.726ZM258.767 162.756L257.411 162.667C257.526 160.763 257.627 158.843 257.711 156.96L259.068 157.026C258.986 158.918 258.882 160.843 258.767 162.756ZM15.8867 154.442C15.5843 152.547 15.3056 150.635 15.0556 148.761L16.401 148.564C16.6496 150.427 16.9245 152.326 17.2268 154.208L15.8867 154.442ZM259.275 151.289L257.918 151.247C257.97 149.335 258.007 147.414 258.026 145.535L259.385 145.55C259.365 147.44 259.328 149.37 259.275 151.289ZM14.3738 143.057C14.1709 141.142 13.9942 139.217 13.8503 137.334L15.2048 137.219C15.3488 139.089 15.5241 141 15.7283 142.9L14.3738 143.057ZM258.032 139.825C258.016 137.911 257.98 135.99 257.928 134.113L259.287 134.071C259.339 135.957 259.374 137.889 259.39 139.811L258.032 139.825ZM13.493 131.595C13.4027 129.67 13.3438 127.737 13.315 125.849L14.6748 125.826C14.7023 127.699 14.7611 129.622 14.8501 131.526L13.493 131.595ZM257.71 128.407C257.617 126.496 257.502 124.579 257.369 122.709L258.724 122.603C258.855 124.485 258.973 126.413 259.067 128.334L257.71 128.407ZM14.6866 120.126L13.3281 120.097C13.366 118.165 13.4393 116.231 13.5453 114.348L14.9025 114.431C14.7965 116.298 14.7245 118.212 14.6866 120.126ZM256.898 117.021C256.716 115.112 256.506 113.204 256.287 111.351L257.635 111.173C257.86 113.038 258.067 114.959 258.25 116.881L256.898 117.021ZM15.3331 108.755L13.9811 108.614C14.1657 106.69 14.3908 104.768 14.6499 102.899L15.994 103.103C15.7375 104.948 15.515 106.85 15.3331 108.755ZM255.527 105.703C255.244 103.806 254.932 101.908 254.604 100.082L255.939 99.8207C256.271 101.667 256.584 103.573 256.868 105.486L255.527 105.703ZM94.8279 105.503C92.9394 105.192 91.5744 104.291 89.6819 102.738L90.5418 101.636C92.1986 102.993 93.3948 103.807 94.9731 104.088L94.8279 105.503ZM99.5393 102.119L98.3287 101.471C98.9517 100.196 99.5066 98.4269 99.9633 96.2125L101.292 96.5161C100.8 98.8797 100.226 100.712 99.5419 102.116L99.5393 102.119ZM85.6942 98.6546C84.6119 97.393 83.455 95.9403 82.1607 94.2154L83.2286 93.3359C84.5072 95.0373 85.6458 96.4664 86.7085 97.7044L85.6942 98.6546ZM16.9022 97.4885L15.5621 97.2176C15.9141 95.3186 16.3133 93.4223 16.7399 91.5901L18.0591 91.9316C17.643 93.7442 17.249 95.6131 16.9022 97.4885ZM253.506 94.4902C253.103 92.6122 252.668 90.7499 252.216 88.9543L253.524 88.5905C253.982 90.403 254.419 92.2837 254.833 94.18L253.506 94.4902ZM102.208 90.7878L100.86 90.6072C101.069 88.9059 101.252 87.0488 101.432 84.9221L102.786 85.0451C102.608 87.1914 102.418 89.0708 102.208 90.7878ZM78.83 89.6322C77.7267 88.0774 76.5803 86.4193 75.5935 84.9954L76.6928 84.1604C77.6783 85.5817 78.8208 87.2294 79.9228 88.7855L78.83 89.6322ZM178.309 89.5144C177.206 89.5009 176.131 89.1587 175.223 88.5316L175.947 87.3275C177.434 88.3104 178.895 88.3117 180.475 87.5291L181.059 88.8129C180.209 89.2586 179.268 89.4997 178.309 89.517V89.5144ZM19.5158 86.4494L18.2162 86.0345C18.7567 84.1853 19.3482 82.3478 19.9777 80.5706L21.2511 81.064C20.6321 82.8163 20.0484 84.6276 19.5158 86.4494ZM185.502 85.0935L184.503 84.129C185.714 82.7278 186.841 81.2569 187.88 79.7238L188.98 80.5575C187.911 82.1363 186.749 83.651 185.502 85.0935ZM171.36 84.1159C170.362 82.4708 169.472 80.7628 168.695 79.0027L169.924 78.3941C170.675 80.0976 171.535 81.7505 172.5 83.3425L171.36 84.1159ZM250.714 83.4864C250.167 81.6424 249.582 79.8285 248.978 78.0931L250.255 77.6063C250.866 79.3626 251.458 81.1988 252.011 83.0637L250.714 83.4864ZM72.3727 80.3559C71.1294 78.5774 70.0942 77.1168 69.1126 75.761L70.1963 74.9025C71.1818 76.2649 72.2222 77.7306 73.4681 79.5157L72.3727 80.3559ZM103.195 79.2985L101.839 79.2069C101.942 77.5409 102.047 75.6668 102.159 73.4799L103.515 73.5571C103.403 75.7505 103.298 77.6285 103.195 79.2998V79.2985ZM23.2836 75.7989L22.0403 75.2244C22.7863 73.455 23.5811 71.7205 24.4248 70.0209L25.6301 70.6753C24.803 72.3487 24.0208 74.0566 23.2836 75.7989ZM192.089 75.7989L190.953 75.0137C191.919 73.4773 192.916 71.8492 193.926 70.2041L195.069 70.9724C194.062 72.624 193.064 74.2546 192.094 75.7976L192.089 75.7989ZM166.503 73.6958C165.888 72.0795 165.252 70.3167 164.558 68.3052L165.837 67.8222C166.524 69.8181 167.155 71.5678 167.765 73.1684L166.503 73.6958ZM246.974 72.8085C246.244 71.0273 245.47 69.2972 244.677 67.6652L245.888 67.02C246.695 68.6781 247.481 70.4371 248.223 72.247L246.974 72.8085ZM65.7584 71.255C64.5242 69.6518 63.3778 68.2266 62.2497 66.8957L63.2652 65.9508C64.4078 67.3001 65.5699 68.7423 66.8158 70.3625L65.7584 71.255ZM103.798 67.8196L102.441 67.749C102.532 65.8474 102.624 63.9536 102.721 62.0115L104.078 62.0861C103.981 64.0204 103.889 65.9207 103.798 67.8196ZM198.053 66.1706L196.919 65.3854C198.055 63.5872 199.069 62.0311 200.023 60.6295L201.131 61.4553C200.186 62.8438 199.177 64.3894 198.053 66.1706ZM28.33 65.7688L27.1849 65.0046C28.1724 63.3687 29.2653 61.7988 30.4567 60.3049L31.4946 61.221C30.3423 62.6668 29.2852 64.1859 28.33 65.7688ZM162.75 62.8752C162.127 60.9632 161.515 59.0511 161 57.4323L162.288 56.982C162.803 58.5983 163.413 60.5156 164.036 62.4159L162.75 62.8752ZM58.5133 62.7758C57.234 61.4594 55.8794 60.2184 54.4562 59.059L55.2846 57.9322C56.7498 59.1251 58.1446 60.402 59.4621 61.7563L58.5133 62.7758ZM242.044 62.7156C241.07 61.0522 240.05 59.4791 239.01 58.0395L240.094 57.181C241.161 58.6572 242.206 60.2696 243.202 61.9722L242.044 62.7156ZM35.3056 57.3498L34.4824 56.2191C36.1052 54.9234 37.7935 53.9877 39.5014 53.4406L39.894 54.8017C38.3457 55.3016 36.8001 56.1589 35.3056 57.3524V57.3498ZM204.412 56.9166L203.355 56.0214C204.51 54.5167 205.741 53.0726 207.043 51.6948L208.004 52.7012C206.735 54.0435 205.536 55.4505 204.412 56.9166ZM104.385 56.3578L103.026 56.2753C103.144 54.2088 103.26 52.3308 103.383 50.5352L104.739 50.6373C104.616 52.4237 104.499 54.2965 104.382 56.3578H104.385ZM49.966 56.0607C48.2646 55.1773 46.6025 54.6132 45.0098 54.3842L45.1943 52.9747C46.9349 53.2247 48.7436 53.8345 50.5719 54.786L49.966 56.0607ZM235.519 53.7613C234.283 52.4228 232.936 51.1912 231.493 50.0798L232.293 48.9294C233.797 50.0886 235.202 51.3722 236.491 52.7666L235.519 53.7613ZM159.26 51.9892C158.585 49.8717 158.028 48.1468 157.508 46.558L158.793 46.096C159.317 47.6888 159.873 49.4176 160.55 51.5377L159.26 51.9892ZM212.066 49.0655L211.281 47.8995C212.951 46.6758 214.639 45.7702 216.298 45.2061L216.716 46.5593C215.199 47.0789 213.632 47.923 212.072 49.0655H212.066ZM226.892 47.3236C225.287 46.601 223.578 46.1393 221.828 45.956L221.959 44.54C223.847 44.7364 225.692 45.2335 227.423 46.0123L226.892 47.3236ZM105.173 44.9234L103.82 44.7925C103.989 42.7967 104.173 40.8664 104.367 39.0629L105.718 39.2226C105.524 41.0221 105.341 42.9381 105.173 44.9234ZM155.705 41.1477C155.05 39.2291 154.43 37.4754 153.814 35.7819L155.083 35.2742C155.702 36.9755 156.325 38.7357 156.985 40.6635L155.705 41.1477ZM106.409 33.5571L105.065 33.353C105.34 31.3611 105.641 29.4464 105.963 27.66L107.297 27.9217C106.981 29.6885 106.681 31.5835 106.409 33.5558V33.5571ZM151.801 30.4751C151.07 28.6363 150.334 26.8774 149.613 25.2467L150.845 24.6486C151.574 26.2963 152.318 28.0722 153.055 29.928L151.801 30.4751ZM108.457 22.3609L107.138 22.0154C107.613 20.0301 108.135 18.1586 108.691 16.4546L109.976 16.9153C109.428 18.5761 108.916 20.4083 108.452 22.3557L108.457 22.3609ZM147.195 20.1466C146.301 18.3837 145.389 16.7295 144.482 15.2297L145.63 14.4693C146.555 15.9992 147.486 17.6848 148.395 19.4791L147.195 20.1466ZM112.015 11.6974L110.797 11.0679C111.606 9.31461 112.591 7.64828 113.738 6.09475L114.804 6.97552C113.717 8.45102 112.783 10.0331 112.015 11.6974ZM141.369 10.6112C140.267 9.14783 139.049 7.77576 137.727 6.50831L138.643 5.45347C140.02 6.77286 141.29 8.20092 142.438 9.72385L141.369 10.6112ZM118.597 3.28229L117.864 2.0848C119.448 1.01652 121.246 0.305182 123.132 0L123.339 1.40557C121.639 1.68134 120.02 2.3235 118.593 3.28753L118.597 3.28229ZM133.442 3.28229C131.92 2.41079 130.263 1.79742 128.541 1.46708L128.779 0.0667454C130.644 0.423644 132.437 1.08698 134.086 2.02984L133.442 3.28229Z" fill="#DCE6FF"/>
<path d="M49.61 195.6C49.61 195.6 16.5162 110.517 40.3311 91.5704C56.2492 78.9072 73.1213 106.822 93.26 92.0547C111.19 78.9072 105.489 38.9059 134.082 33.3765C166.231 27.1601 173.31 101.768 199.692 91.5704C231.706 79.1964 263.552 104.316 236.032 195.762L49.61 195.6Z" fill="#8CCC8B"/>
<path d="M265.322 166.267C254.048 164.518 255.887 180.324 239.814 180.324C225.12 180.324 220.419 120.123 209.726 137.334C154.913 225.554 186.744 99.8167 143.15 98.2188C123.439 97.4964 110.301 119.5 105.459 158.458C98.4386 193.679 82.1554 131.595 65.3985 137.368C54.7493 141.033 55.9691 180.324 41.2747 180.324C25.2022 180.324 27.0409 164.518 15.7663 166.267C3.62649 168.151 0 196.13 0 196.13H281.089C281.089 196.13 277.462 168.151 265.322 166.267Z" fill="#EEF7FF"/>
<path d="M255.337 183.378C244.964 182.632 246.657 189.381 231.87 189.381C218.352 189.381 218.723 174.253 209.677 171.038C193.017 165.117 179.281 195.083 172.822 180.044C160.555 140.139 124.775 120.126 108.27 180.044C101.81 195.083 86.7059 168.248 71.4147 171.038C62.0037 172.756 62.7392 189.381 49.2213 189.381C34.4327 189.381 36.1275 182.632 25.7545 183.378C14.5858 184.183 11.2498 196.13 11.2498 196.13H269.848C269.848 196.13 266.506 184.183 255.337 183.378Z" fill="#DCE6FF"/>
<path d="M0.212023 196.13C0.212023 196.13 -1.76023 204.857 6.40885 207.041C17.5841 210.029 83.1776 217.88 67.2425 223.846C58.2476 227.214 71.8348 231.788 115.65 233.471C159.465 235.154 234.645 228.556 209.363 218.795C184.081 209.033 287.087 216.439 280.819 196.13H0.212023Z" fill="#CFDDF9"/>
<path d="M134.828 128.597C136.296 141.139 117.683 143.638 115.788 131.154C114.321 118.611 132.935 116.113 134.828 128.597Z" fill="#7689D6"/>
<path d="M87.3603 50.6479C80.4567 27.8367 98.6284 6.2113 122.269 8.36678C153.357 11.7852 158.959 52.0783 140.788 72.8099C132.093 81.7289 124.103 97.2059 124.56 108.341C124.599 114.935 119.194 114.413 117.222 108.537C110.292 81.3153 125.37 74.0715 131.786 52.6764C136.792 18.0828 98.5983 23.4774 92.1567 50.5275C91.45 52.8492 88.0225 53.0939 87.3603 50.6479Z" fill="#7689D6"/>
<path d="M200.868 96.8826C193.145 95.4064 194.611 90.1714 187.136 92.7889C187.136 92.7889 180.437 87.431 179.593 100.143C178.911 110.395 183.935 115.333 191.744 119.546C201.01 124.545 215.58 119.1 214.974 107.526C214.552 99.4778 208.446 98.33 200.868 96.8826Z" fill="#1D3F70"/>
<path d="M181.339 112.764C170.462 120.236 162.43 117.517 154.13 108.053C153.032 106.197 150.318 107.237 151.14 109.321C151.281 109.666 151.555 110.098 151.716 110.431C159.368 124.45 172.917 128.042 185.909 118.318C189.524 115.317 184.991 109.791 181.339 112.764Z" fill="#F99370"/>
<path d="M184.76 110.929C184.76 110.929 181.733 111.12 180.256 112.298C178.78 113.476 174.582 115.529 171.467 115.956C168.352 116.383 163.201 114.766 161.273 113.219C159.346 111.673 157.995 110.097 156.714 110.957C156.714 110.957 155.733 112.332 153.18 112.866C153.18 112.866 151.886 116.374 156.907 120.67C161.809 124.858 172.502 129.743 184.666 123.579L184.76 110.929Z" fill="#23659B"/>
<path d="M184.536 109.323L184.76 110.929C185.583 113.607 189.144 111.509 189.733 110.448C189.733 110.448 189.411 108.927 189.349 108.212L184.536 109.323Z" fill="#F99370"/>
<path d="M217.049 210.241L224.508 201.088C224.15 200.535 221.569 199.182 220.826 198.429C220.292 198.05 214.337 191.985 213.702 191.378L209.417 196.633L216.877 201.297C217.305 201.566 217.627 201.975 217.786 202.455C217.946 202.934 217.933 203.455 217.751 203.926C217.019 206.139 215.134 207.81 215.582 209.974C215.63 210.118 215.717 210.247 215.832 210.346C215.947 210.446 216.087 210.513 216.236 210.54C216.386 210.567 216.541 210.554 216.683 210.501C216.826 210.449 216.952 210.359 217.049 210.241Z" fill="#F99370"/>
<path d="M223.857 200.093C224.139 200.377 224.362 200.716 224.511 201.087L216.987 210.313C216.903 210.418 216.794 210.501 216.671 210.555C216.548 210.61 216.414 210.634 216.279 210.626C216.145 210.618 216.014 210.578 215.898 210.51C215.782 210.441 215.685 210.346 215.613 210.232C214.909 209.075 214.464 206.688 217.707 202.248C217.707 202.248 219.317 201.153 220.826 198.422C220.828 198.429 222.734 198.918 223.857 200.093Z" fill="#1D3F70"/>
<path d="M215.113 207.405C215.542 207.515 215.837 206.92 217.245 207.33C217.275 207.339 217.307 207.343 217.339 207.34C217.37 207.337 217.401 207.327 217.429 207.313C217.457 207.298 217.481 207.278 217.501 207.253C217.522 207.229 217.537 207.201 217.546 207.17C217.461 206.265 214.24 206.847 215.113 207.405Z" fill="#E8C0A6"/>
<path d="M215.667 205.707C215.699 205.726 215.736 205.737 215.773 205.739C215.811 205.742 215.848 205.735 215.883 205.72C216.642 205.436 217.479 205.436 218.238 205.72C218.526 205.842 218.711 205.385 218.419 205.273C217.542 204.935 216.57 204.935 215.693 205.273C215.651 205.291 215.616 205.32 215.59 205.356C215.564 205.393 215.548 205.437 215.546 205.482C215.543 205.527 215.553 205.572 215.574 205.612C215.596 205.652 215.628 205.685 215.667 205.707Z" fill="#E8C0A6"/>
<path d="M216.69 203.785C217.009 203.9 217.86 203.374 219.387 203.916C219.678 204.027 219.849 203.565 219.552 203.463C218 202.958 216.126 203.157 216.69 203.785Z" fill="#E8C0A6"/>
<path d="M215.603 210.218L223.857 200.093C224.139 200.377 224.362 200.716 224.511 201.087L216.987 210.313C216.902 210.419 216.792 210.503 216.667 210.558C216.542 210.613 216.406 210.637 216.27 210.627C216.134 210.618 216.002 210.576 215.886 210.505C215.77 210.434 215.673 210.335 215.603 210.218Z" fill="#395B96"/>
<path d="M180.236 212.085L192.031 211.954C192.225 211.323 191.614 208.479 191.714 207.426C191.714 206.982 191.831 204.556 191.873 204.113L190.989 197.458L185.79 197.516L186.979 206.226C187.048 206.727 186.94 207.236 186.673 207.666C186.407 208.096 185.999 208.42 185.52 208.581C183.353 209.432 180.879 209.063 179.492 210.772C179.411 210.903 179.367 211.054 179.364 211.208C179.362 211.362 179.4 211.514 179.476 211.648C179.552 211.782 179.663 211.893 179.796 211.97C179.93 212.047 180.081 212.087 180.236 212.085Z" fill="#F99370"/>
<path d="M192.371 210.817C192.334 211.216 192.217 211.603 192.026 211.955L180.116 212.086C179.982 212.088 179.848 212.058 179.728 211.999C179.607 211.939 179.502 211.851 179.422 211.743C179.342 211.635 179.289 211.509 179.268 211.376C179.246 211.243 179.257 211.107 179.298 210.979C179.737 209.698 181.286 207.829 186.773 207.481C186.773 207.481 188.647 208.016 191.712 207.427C191.717 207.433 192.556 209.198 192.371 210.817Z" fill="#1D3F70"/>
<path d="M182.803 210.521C182.843 210.52 182.882 210.51 182.917 210.491C182.951 210.472 182.981 210.445 183.003 210.412C183.025 210.379 183.038 210.341 183.042 210.302C183.046 210.262 183.041 210.222 183.026 210.186C182.494 208.915 181.523 208.532 181.481 208.516C181.192 208.401 181.015 208.859 181.309 208.966C181.345 208.982 182.133 209.302 182.581 210.372C182.599 210.416 182.63 210.453 182.669 210.48C182.709 210.506 182.756 210.521 182.803 210.521Z" fill="#E8C0A6"/>
<path d="M184.676 210.273C184.714 210.273 184.752 210.264 184.785 210.247C184.819 210.23 184.849 210.205 184.871 210.174C184.894 210.143 184.908 210.108 184.915 210.07C184.921 210.033 184.918 209.994 184.906 209.958C184.465 208.358 182.37 207.176 182.943 208.293C183.646 208.697 184.18 209.341 184.447 210.106C184.462 210.155 184.493 210.197 184.534 210.227C184.575 210.257 184.625 210.273 184.676 210.273Z" fill="#E8C0A6"/>
<path d="M186.807 209.988C186.845 209.988 186.883 209.978 186.917 209.96C186.952 209.942 186.981 209.917 187.003 209.885C187.026 209.853 187.04 209.817 187.045 209.779C187.051 209.74 187.047 209.701 187.034 209.665C186.699 208.768 186.101 207.992 185.319 207.44C185.057 207.267 184.795 207.678 185.057 207.844C185.749 208.344 186.279 209.037 186.58 209.835C186.598 209.88 186.629 209.919 186.67 209.947C186.71 209.974 186.758 209.988 186.807 209.988Z" fill="#E8C0A6"/>
<path d="M179.309 210.959L192.377 210.817C192.339 211.216 192.222 211.603 192.031 211.955L180.122 212.086C179.985 212.089 179.85 212.058 179.728 211.997C179.606 211.936 179.5 211.846 179.42 211.735C179.341 211.625 179.289 211.496 179.269 211.361C179.25 211.226 179.263 211.088 179.309 210.959Z" fill="#395B96"/>
<path d="M189.23 103.136C189.23 103.222 189.23 103.31 189.213 103.397C189.092 103.336 189.14 106.445 189.404 108.677C187.422 109.88 185.035 109.738 184.596 109.702C184.213 106.883 184.166 104.278 184.388 102.612C184.912 99.7736 189.323 100.258 189.23 103.136Z" fill="#E57D61"/>
<path d="M192.434 101.426C192.041 103.62 191.269 106.087 189.512 107.516C188.79 108.083 187.938 108.46 187.033 108.613C181.929 110.008 175.926 103.871 180.021 99.6361C181.497 98.3117 181.84 95.9311 183.022 94.6093C184.745 92.1829 188.45 92.3635 190.424 94.3907C192.204 96.2295 192.786 98.7292 192.434 101.426Z" fill="#F99370"/>
<path d="M184.061 99.9542C183.865 99.5694 184.474 99.271 184.659 99.661C184.844 100.051 184.245 100.345 184.061 99.9542Z" fill="#C16256"/>
<path d="M181.268 99.4438C181.073 99.059 181.682 98.7606 181.866 99.1506C182.051 99.5406 181.453 99.8338 181.268 99.4438Z" fill="#C16256"/>
<path d="M186.413 205.732C190.429 206.517 193.335 204.134 193.335 204.134C193.096 203.308 192.874 202.497 192.661 201.671C185.273 173.533 193.01 158.737 193.01 158.737C194.645 173.281 198.528 187.529 212.56 200.093C213.15 200.622 213.761 201.148 214.392 201.671C217.555 200.966 220.489 195.75 220.489 195.75C219.996 195.171 219.523 194.59 219.071 194.006C203.549 174.028 211.398 152.63 204.304 139.399C200.533 132.364 185.589 136.766 179.906 143.345C170.357 173.311 181.405 196.215 186.413 205.732Z" fill="#9358E0"/>
<path d="M182.093 102.343C182.298 102.343 182.747 102.432 182.739 102.153C182.728 102.122 182.706 102.096 182.677 102.08C182.648 102.065 182.614 102.061 182.582 102.069C182.158 102.2 181.563 101.977 181.484 101.785C181.457 101.717 181.548 101.654 181.629 101.61C182.341 101.266 183.285 99.292 182.632 99.7448C182.632 99.7579 182.146 101.054 181.513 101.386C180.797 101.861 181.531 102.25 182.093 102.343Z" fill="#C16256"/>
<path d="M216.028 198.899L216.481 198.471C216.358 198.34 204.151 185.312 200.699 173.803C197.239 162.271 197.623 143.31 197.627 143.116L197.006 143.102C197.006 143.293 196.613 162.354 200.102 173.988C203.598 185.634 215.905 198.768 216.028 198.899Z" fill="#7640CC"/>
<path d="M192.434 101.427C192.042 103.62 191.269 106.087 189.512 107.516C190.492 106.338 191.131 103.671 191.131 103.671L190.692 102.475C183.092 99.9005 183.835 93.7796 183.835 93.7796C188.755 90.3612 193.51 96.4115 192.434 101.427Z" fill="#E57D61"/>
<path d="M184.65 93.2509C184.65 93.2509 183.948 99.288 190.747 101.868L193.219 100.55C195.68 95.8919 191.446 88.9412 184.65 93.2509Z" fill="#1D3F70"/>
<path d="M192.654 91.5037C190.987 97.2386 184.308 95.405 185.801 89.6244C187.469 83.8895 194.149 85.7217 192.654 91.5037Z" fill="#1D3F70"/>
<path d="M193.811 102.562C193.278 105.049 190.156 104.336 190.745 101.868C191.281 99.3888 194.402 100.096 193.811 102.562Z" fill="#F99370"/>
<path d="M192.999 103.066C193.523 102.531 193.336 101.436 193.068 101.245C192.575 100.843 191.683 101.043 191.746 101.296C191.901 101.548 192.413 101.023 192.895 101.427C193.388 101.802 192.705 102.853 192.999 103.066Z" fill="#C16256"/>
<path d="M191.826 102.874C192.087 102.863 192.192 101.928 193.183 101.843C193.215 101.84 193.246 101.825 193.268 101.8C193.29 101.776 193.302 101.745 193.302 101.712C192.615 101.178 191.354 102.918 191.826 102.874Z" fill="#C16256"/>
<path d="M192.421 103.696C192.421 104.062 191.845 104.053 191.856 103.687C191.866 103.32 192.432 103.328 192.421 103.696Z" fill="#F4D4BE"/>
<path d="M193.335 204.136C193.335 204.136 190.429 206.511 186.413 205.732C186.413 205.732 185.965 204.998 185.256 203.629C185.256 203.629 190.078 204.083 192.659 201.666C192.871 202.48 193.096 203.303 193.335 204.136Z" fill="#7640CC"/>
<path d="M192.661 201.675C192.734 201.96 192.81 202.246 192.887 202.534H191.447C186.417 187.464 185.537 162.644 193.005 158.742C193.005 158.742 185.268 173.539 192.657 201.669L192.661 201.675Z" fill="#7640CC"/>
<path d="M187.948 204.883C183.998 195.877 181.364 187.084 180.116 178.751C179.118 172.077 179.003 165.682 179.773 159.739C181.082 149.602 184.584 144.217 184.616 144.166L185.075 144.468C185.041 144.522 181.603 149.834 180.31 159.852C179.116 169.11 179.56 184.4 188.449 204.664L187.948 204.883Z" fill="#7640CC"/>
<path d="M178.661 128.788C179.708 131.849 181.288 135.058 179.33 141.12C179.111 142.734 179.899 143.345 179.899 143.345C187.456 145.868 198.221 143.573 204.686 140.476C208.388 137.466 203.333 131.734 203.037 129.77C199.886 108.819 193.009 109.723 189.589 109.723C188.462 111.031 185.671 113.185 184.719 110.907C182.391 111.907 181.272 117.114 179.986 119.135C178.656 121.239 178.087 122.93 177.957 124.426C177.818 126.021 178.183 127.39 178.661 128.788Z" fill="#3A72AA"/>
<path d="M182.556 103.276C182.424 103.277 182.294 103.254 182.171 103.208C182.137 103.189 182.111 103.159 182.098 103.122C182.085 103.086 182.087 103.046 182.102 103.01C182.117 102.975 182.145 102.946 182.181 102.93C182.216 102.915 182.256 102.913 182.293 102.925C182.314 102.934 182.774 103.116 183.251 102.663C183.265 102.649 183.282 102.638 183.3 102.63C183.319 102.622 183.339 102.618 183.359 102.618C183.379 102.618 183.399 102.622 183.417 102.63C183.436 102.638 183.453 102.649 183.467 102.663C183.495 102.692 183.511 102.731 183.511 102.772C183.511 102.813 183.495 102.852 183.467 102.88C183.348 103.003 183.207 103.101 183.051 103.169C182.894 103.237 182.726 103.273 182.556 103.276Z" fill="#C16256"/>
<path d="M185.672 98.7711C185.652 98.7709 185.633 98.7669 185.614 98.7593L184.193 98.1848C184.159 98.1672 184.132 98.1375 184.119 98.1013C184.105 98.0651 184.106 98.0252 184.12 97.9894C184.134 97.9536 184.162 97.9245 184.197 97.9078C184.231 97.8912 184.271 97.8882 184.308 97.8995L185.73 98.4753C185.763 98.4883 185.791 98.5127 185.808 98.5441C185.825 98.5755 185.831 98.612 185.824 98.6472C185.817 98.6824 185.798 98.7141 185.771 98.7368C185.743 98.7594 185.708 98.7716 185.672 98.7711Z" fill="#C16256"/>
<path d="M182.852 98.0238H181.568C181.527 98.0238 181.488 98.0077 181.46 97.979C181.431 97.9502 181.415 97.9113 181.415 97.8707C181.415 97.8301 181.431 97.7911 181.46 97.7624C181.488 97.7337 181.527 97.7176 181.568 97.7176H182.852C182.892 97.7176 182.931 97.7337 182.96 97.7624C182.989 97.7911 183.005 97.8301 183.005 97.8707C183.005 97.9113 182.989 97.9502 182.96 97.979C182.931 98.0077 182.892 98.0238 182.852 98.0238Z" fill="#C16256"/>
<path d="M197.991 114.013C199.232 119.664 200.153 125.88 197.806 131.419C193.759 139.507 183.247 139.742 175.549 137.879C174.329 137.659 172.856 137.215 173.226 135.654C173.742 133.907 175.786 134.698 177.113 134.574C191.313 134.122 193.621 129.579 189.578 116.486C187.988 110.98 196.352 108.521 197.991 114.013Z" fill="#F99370"/>
<path d="M175.138 137.856C175.138 137.856 175.998 136.572 175.104 134.49C175.263 134.43 175.433 134.405 175.603 134.416C175.772 134.427 175.938 134.473 176.088 134.553C176.088 134.553 177.06 136.124 176.058 138.087C175.897 138.116 175.732 138.111 175.573 138.071C175.414 138.032 175.266 137.958 175.138 137.856Z" fill="#10325B"/>
<path d="M187.906 114.348C187.759 115.749 188.462 117.496 189.493 119.758C190.525 122.019 191.337 124.779 190.398 127.078C189.458 129.376 187.78 131.454 184.779 131.988C182.031 132.476 179.185 133.069 178.872 134.49C178.872 134.49 179.242 136.705 178.263 138.426C178.263 138.426 179.39 141.983 188.689 140.83C197.987 139.677 202.362 129.59 202.886 125.245C203.696 118.537 200.006 112.229 194.997 110.224C189.987 108.219 188.132 112.195 187.906 114.348Z" fill="#23659B"/>
<path d="M212.557 200.093C213.148 200.622 213.759 201.148 214.389 201.671C217.553 200.966 220.487 195.751 220.487 195.751C219.994 195.171 219.521 194.59 219.068 194.006C219.068 194.006 216.483 198.814 212.557 200.093Z" fill="#7640CC"/>
<path d="M143.624 92.7876L140.24 95.0708L177.638 150.494L181.021 148.211L143.624 92.7876Z" fill="#EB5648"/>
<path d="M161.447 119.202L158.063 121.485L177.638 150.495L181.022 148.212L161.447 119.202Z" fill="#CE3932"/>
<path opacity="0.4" d="M145.386 91.0441C154.971 81.4596 154.971 65.9201 145.386 56.3356C135.802 46.7511 120.262 46.7511 110.678 56.3356C101.093 65.9201 101.093 81.4596 110.678 91.0441C120.262 100.629 135.802 100.629 145.386 91.0441Z" fill="white"/>
<path opacity="0.4" d="M101.458 73.5898C101.444 76.194 101.813 78.7861 102.555 81.2825L104.421 80.4057L106.299 79.5236L146.392 60.6779L150.137 58.9177C150.073 58.8208 150.006 58.7253 149.942 58.6284C148.536 56.5784 146.848 54.7364 144.929 53.1566L142.869 54.1264L140.751 55.121L105.637 71.6267L103.509 72.6253L101.458 73.5898Z" fill="white"/>
<path opacity="0.4" d="M103.886 84.8122C105.596 88.5209 108.135 91.7873 111.307 94.3594L113.376 93.387L115.508 92.3845L150.419 75.9783L152.54 74.9823L154.62 74.0047C154.677 69.9198 153.78 65.878 152.002 62.2L148.306 63.9367L107.581 83.0742L105.733 83.9445L103.886 84.8122Z" fill="white"/>
<path d="M111.307 94.3594C125.87 107.027 151.245 97.9505 154.17 78.5421C158.723 55.8173 132.251 38.2856 112.979 51.7838C98.3077 61.4998 97.7502 83.7953 111.307 94.3594ZM148.313 63.938C158.229 84.485 134.217 105.01 115.508 92.3858C108.813 88.0434 104.777 79.5995 105.637 71.632C107.613 49.1441 138.555 43.5467 148.313 63.9327V63.938Z" fill="#CE3932"/>
<path d="M170.331 132.348L171.45 134.006C170.729 134.207 169.987 134.322 169.24 134.346C168.301 134.24 166.676 134.23 166.676 134.23C164.936 135.197 168.291 135.296 168.77 135.515C168.77 135.515 168.77 135.528 168.77 135.535C168.77 135.541 168.886 135.592 167.439 135.455C165.476 136.486 168.367 136.633 168.912 136.702V136.712L168.412 136.812C166.527 138.028 168.915 138.012 169.459 137.899C169.462 137.905 169.465 137.91 169.469 137.914C169.459 137.899 169.283 138.102 169.283 138.102C168.426 138.956 169.851 139.122 170.34 138.965C170.733 139.025 172.714 138.556 174.942 137.465C175.672 137.108 175.213 134.881 174.556 134.427C173.939 134.002 173.073 133.45 172.736 133.299C172.363 133.129 171.398 132.124 170.331 132.348Z" fill="#F99370"/>
<path d="M150.39 109.41C148.831 110.279 147.952 108.162 149.9 108.28L149.873 108.295C150.725 107.839 151.199 108.996 150.39 109.41Z" fill="#F99370"/>
<path d="M149.55 108.543C147.61 109.198 147.515 106.703 149.179 107.322C149.14 107.322 149.349 107.309 149.31 107.308C150.249 107.028 150.377 108.32 149.55 108.543Z" fill="#F99370"/>
<path d="M148.64 107.67L147.958 107.682C147.006 107.667 147.364 106.336 148.156 106.373L148.838 106.36C149.791 106.377 149.432 107.708 148.64 107.67Z" fill="#F99370"/>
<path d="M147.969 106.792L147.287 106.804C146.334 106.788 146.693 105.457 147.486 105.495L148.166 105.482C149.119 105.495 148.762 106.826 147.969 106.792Z" fill="#F99370"/>
<path d="M154.13 108.055C154.13 108.055 154.392 105.007 151.311 104.166C149.654 103.714 149.927 104.963 150.988 105.312C152.049 105.662 153.54 107.468 153.54 107.468L154.13 108.055Z" fill="#F99370"/>
<path d="M151.249 210.513L71.4887 210.52C71.4887 210.52 70.8288 206.213 75.0226 196.171C77.6031 189.994 91.6094 182.553 91.8523 197.566C95.5406 181.255 116.431 177.4 110.156 203.302C110.215 203.173 114.649 193.566 122.544 196.692C130.493 199.839 129.388 206.725 134.471 206.398C139.553 206.071 149.216 199.832 151.249 210.513Z" fill="#9AB1E8"/>
<path d="M142.35 210.52H76.7158C76.7158 210.52 77.1482 196.595 83.5238 191.865C89.7519 187.246 97.0471 193.768 99.2402 202.551C102.109 209.72 108.63 198.585 113.175 198.252C113.976 198.063 114.81 198.063 115.611 198.252C119.757 199.269 119.465 206.995 125.47 206.995C132.038 206.995 131.875 203.399 136.492 203.308C141.818 203.211 142.35 210.52 142.35 210.52Z" fill="#ABC1EF"/>
<defs>
<linearGradient id="paint0_linear_115_125" x1="165.955" y1="93.0816" x2="165.955" y2="109.082" gradientUnits="userSpaceOnUse">
<stop stop-color="#D9E0FF"/>
<stop offset="1" stop-color="#D9E0FF" stop-opacity="0.01"/>
</linearGradient>
<linearGradient id="paint1_linear_115_125" x1="90.9546" y1="88.0816" x2="90.9546" y2="229.973" gradientUnits="userSpaceOnUse">
<stop stop-color="#89C1FF"/>
<stop offset="1" stop-color="#65ADFD"/>
</linearGradient>
<linearGradient id="paint2_linear_115_125" x1="207.309" y1="79.9086" x2="178.57" y2="116.618" gradientUnits="userSpaceOnUse">
<stop stop-color="#FB5072"/>
<stop offset="1" stop-color="#F55978"/>
</linearGradient>
<linearGradient id="paint3_linear_115_125" x1="139.955" y1="240.082" x2="139.955" y2="255.082" gradientUnits="userSpaceOnUse">
<stop stop-color="#D9E0FF"/>
<stop offset="1" stop-color="#D9E0FF" stop-opacity="0.01"/>
</linearGradient>
<linearGradient id="paint4_linear_115_125" x1="33.9546" y1="124.082" x2="33.9546" y2="134.082" gradientUnits="userSpaceOnUse">
<stop stop-color="#D9E0FF"/>
<stop offset="1" stop-color="#D9E0FF" stop-opacity="0.01"/>
</linearGradient>
<linearGradient id="paint5_linear_115_125" x1="55.9546" y1="212.082" x2="55.9546" y2="230.082" gradientUnits="userSpaceOnUse">
<stop stop-color="#D9E0FF"/>
<stop offset="1" stop-color="#D9E0FF" stop-opacity="0.01"/>
</linearGradient>
<linearGradient id="paint6_linear_115_125" x1="104.955" y1="66.0816" x2="104.955" y2="79.0816" gradientUnits="userSpaceOnUse">
<stop stop-color="#D9E0FF"/>
<stop offset="1" stop-color="#D9E0FF" stop-opacity="0.01"/>
</linearGradient>
<linearGradient id="paint7_linear_115_125" x1="202.955" y1="184.082" x2="202.955" y2="198.082" gradientUnits="userSpaceOnUse">
<stop stop-color="#D9E0FF"/>
<stop offset="1" stop-color="#D9E0FF" stop-opacity="0.01"/>
</linearGradient>
</defs>
</svg>
