<svg xmlns="http://www.w3.org/2000/svg" viewBox="0 0 500 372.61"><title>Asset 1</title><g id="Layer_2" data-name="Layer 2"><g id="Background_Complete" data-name="Background Complete"><rect y="327.45" width="500" height="0.25" style="fill:#ebebeb"/><rect x="363" y="343.54" width="86.9" height="0.25" style="fill:#ebebeb"/><rect x="357.66" y="334.26" width="8.69" height="0.25" style="fill:#ebebeb"/><rect x="280.12" y="342.55" width="19.19" height="0.25" style="fill:#ebebeb"/><rect x="52.46" y="335.94" width="21.6" height="0.25" style="fill:#ebebeb"/><rect x="82.96" y="335.94" width="27.93" height="0.25" style="fill:#ebebeb"/><rect x="207.67" y="340.03" width="46.84" height="0.25" style="fill:#ebebeb"/><path d="M237,282.85H43.91a5.71,5.71,0,0,1-5.7-5.71V5.71A5.71,5.71,0,0,1,43.91,0H237a5.71,5.71,0,0,1,5.71,5.71V277.14A5.71,5.71,0,0,1,237,282.85ZM43.91.25a5.46,5.46,0,0,0-5.45,5.46V277.14a5.46,5.46,0,0,0,5.45,5.46H237a5.47,5.47,0,0,0,5.46-5.46V5.71A5.47,5.47,0,0,0,237,.25Z" style="fill:#ebebeb"/><path d="M453.31,282.85H260.21a5.72,5.72,0,0,1-5.71-5.71V5.71A5.72,5.72,0,0,1,260.21,0h193.1A5.71,5.71,0,0,1,459,5.71V277.14A5.71,5.71,0,0,1,453.31,282.85ZM260.21.25a5.47,5.47,0,0,0-5.46,5.46V277.14a5.47,5.47,0,0,0,5.46,5.46h193.1a5.47,5.47,0,0,0,5.46-5.46V5.71A5.47,5.47,0,0,0,453.31.25Z" style="fill:#ebebeb"/><path d="M258.6,264.89H194l-6.16-107a4.48,4.48,0,0,1,4.52-4.8h55a5.14,5.14,0,0,1,5.07,4.8Z" style="fill:#d2dcf7"/><path d="M265.12,264.89H200.49l-6.17-107a4.49,4.49,0,0,1,4.53-4.8h55a5.15,5.15,0,0,1,5.08,4.8Z" style="fill:#d2dcf7"/><path d="M201.78,251.53h45a0,0,0,0,1,0,0v13.35a0,0,0,0,1,0,0H197a0,0,0,0,1,0,0v-8.55A4.8,4.8,0,0,1,201.78,251.53Z" style="fill:#d2dcf7"/><path d="M236.86,251.53h57.28a4.8,4.8,0,0,1,4.8,4.8v8.55a0,0,0,0,1,0,0H232.06a0,0,0,0,1,0,0v-8.55A4.8,4.8,0,0,1,236.86,251.53Z" style="fill:#d2dcf7"/><rect x="193.96" y="264.89" width="4.43" height="62.56" style="fill:#d2dcf7"/><rect x="226.49" y="264.89" width="4.43" height="62.56" style="fill:#d2dcf7"/><rect x="260.97" y="264.89" width="4.43" height="62.56" style="fill:#d2dcf7"/><rect x="293.49" y="264.89" width="4.43" height="62.56" style="fill:#d2dcf7"/><rect x="90.73" y="215.48" width="98.73" height="5.75" style="fill:#d2dcf7"/><rect x="97.29" y="221.23" width="92.18" height="99.26" style="fill:#dee5fe"/><rect x="189.47" y="221.23" width="222.25" height="99.26" transform="translate(601.18 541.72) rotate(180)" style="fill:#dee5fe"/><rect x="97.29" y="221.23" width="314.43" height="4.26" transform="translate(509.01 446.72) rotate(180)" style="fill:#9fb0e4"/><rect x="189.47" y="215.48" width="228.81" height="5.75" transform="translate(607.74 436.71) rotate(180)" style="fill:#dee5fe"/><polygon points="97.29 320.49 97.29 327.45 115.65 320.49 97.29 320.49" style="fill:#9fb0e4"/><polygon points="189.47 320.49 189.47 327.45 207.83 320.49 189.47 320.49" style="fill:#f5f5f5"/><polygon points="411.72 320.49 411.72 327.45 393.36 320.49 411.72 320.49" style="fill:#f5f5f5"/><polygon points="189.47 320.49 189.47 327.45 171.1 320.49 189.47 320.49" style="fill:#9fb0e4"/><polygon points="319.54 320.49 319.54 327.45 301.18 320.49 319.54 320.49" style="fill:#e0e0e0"/><polygon points="319.54 320.49 319.54 327.45 337.91 320.49 319.54 320.49" style="fill:#e0e0e0"/><rect x="206.48" y="22.37" width="82.03" height="103.79" style="fill:#e6e6e6"/><rect x="211.49" y="22.37" width="82.03" height="103.79" style="fill:#f5f5f5"/><rect x="205.28" y="42.25" width="94.44" height="64.04" transform="translate(326.77 -178.24) rotate(90)" style="fill:#fff"/><rect x="235.41" y="72.37" width="94.44" height="3.79" transform="translate(356.9 -208.36) rotate(90)" style="fill:#e6e6e6"/><rect x="215.21" y="69.22" width="74.59" height="6.27" style="fill:#f5f5f5"/><rect x="215.21" y="48.36" width="74.59" height="6.27" style="fill:#f5f5f5"/><rect x="317.07" y="22.37" width="82.03" height="103.79" style="fill:#e6e6e6"/><rect x="322.09" y="22.37" width="82.03" height="103.79" style="fill:#f5f5f5"/><rect x="315.88" y="42.25" width="94.44" height="64.04" transform="translate(437.37 -288.83) rotate(90)" style="fill:#fff"/><rect x="346" y="72.37" width="94.44" height="3.79" transform="translate(467.49 -318.96) rotate(90)" style="fill:#e6e6e6"/><rect x="325.81" y="98.97" width="74.59" height="6.27" style="fill:#f5f5f5"/><rect x="325.81" y="48.36" width="74.59" height="6.27" style="fill:#f5f5f5"/><rect x="95.88" y="22.37" width="82.03" height="103.79" style="fill:#dee5fe"/><rect x="100.9" y="22.37" width="82.03" height="103.79" style="fill:#f5f7fe"/><rect x="94.69" y="42.25" width="94.44" height="64.04" transform="translate(216.18 -67.64) rotate(90)" style="fill:#fff"/><rect x="124.81" y="72.37" width="94.44" height="3.79" transform="translate(246.3 -97.77) rotate(90)" style="fill:#e6e6e6"/><rect x="104.62" y="106.52" width="74.59" height="6.27" style="fill:#f5f5f5"/><rect x="104.62" y="59.31" width="74.59" height="6.27" style="fill:#f5f5f5"/><path d="M369.82,177H354s2.75,8.57,2.75,13.62-12.05,24.83,5.17,24.83,5.17-19.78,5.17-24.83S369.82,177,369.82,177Z" style="fill:#e6e6e6"/><path d="M311.29,207.23c0,4.53,8.93,8.25,19.86,8.25H341c10.93,0,19.86-3.72,19.86-8.25Z" style="fill:#f0f0f0"/><rect x="123.94" y="194.72" width="17.4" height="20.76" style="fill:#e6e6e6"/><rect x="141.35" y="194.72" width="17.4" height="20.76" transform="translate(300.1 410.2) rotate(180)" style="fill:#f5f5f5"/><rect x="147.5" y="198.98" width="13.83" height="16.5" style="fill:#e6e6e6"/><rect x="161.33" y="198.98" width="13.83" height="16.5" transform="translate(336.5 414.45) rotate(180)" style="fill:#f5f5f5"/><rect x="207.4" y="42.81" width="1.92" height="76.91" transform="translate(0.66 164.2) rotate(-43.07)" style="fill:#dee5fe"/></g><g id="Shadow"><ellipse id="_Path_" data-name="&lt;Path&gt;" cx="250" cy="361.29" rx="193.89" ry="11.32" style="fill:#f5f5f5"/></g><g id="Online_Shop" data-name="Online Shop"><path d="M286.76,302.4H152a12.73,12.73,0,0,1-12.55-12L128.26,47.07a11.39,11.39,0,0,1,11.45-12H274.49a12.73,12.73,0,0,1,12.55,12L298.21,290.4A11.39,11.39,0,0,1,286.76,302.4Z" style="fill:#6a9354"/><rect x="174.17" y="30.86" width="20.33" height="1" style="fill:#a0cb8c"/><rect x="162.03" y="30.86" width="5.47" height="1" style="fill:#a0cb8c"/><path d="M288.17,301.69H153.4a12.73,12.73,0,0,1-12.55-12L129.68,46.36a11.39,11.39,0,0,1,11.45-12H275.9a12.73,12.73,0,0,1,12.55,12l11.17,243.33A11.39,11.39,0,0,1,288.17,301.69Z" style="fill:#a0cb8c"/><path d="M153.17,296.69a7.4,7.4,0,0,1-7.32-7L134.68,46.36a6.62,6.62,0,0,1,6.67-7H276.13a7.4,7.4,0,0,1,7.32,7l11.17,243.33a6.63,6.63,0,0,1-6.67,7Z" style="fill:#fff"/><path d="M210.79,102.34a24.22,24.22,0,0,1-23.93-22.88,21.69,21.69,0,0,1,21.86-22.91,24.22,24.22,0,0,1,23.93,22.88,21.69,21.69,0,0,1-21.86,22.91Zm-2.07-45.07a21,21,0,0,0-21.14,22.16,23.49,23.49,0,0,0,23.21,22.19,21,21,0,0,0,21.14-22.16A23.49,23.49,0,0,0,208.72,57.27Z" style="fill:#7b88d2"/><path d="M193.61,95.17h2.31a3.33,3.33,0,0,0-.86,2.4,3.71,3.71,0,0,0,3.67,3.51,3.32,3.32,0,0,0,3.35-3.51,3.71,3.71,0,0,0-1.08-2.4H220a3.33,3.33,0,0,0-.85,2.4,3.71,3.71,0,0,0,3.67,3.51,3.32,3.32,0,0,0,3.34-3.51,3.65,3.65,0,0,0-1.07-2.4h2.3l-.1-2.21H193.51Z" style="fill:#7b88d2"/><polygon points="235.93 64.28 231.44 64.28 228.44 64.28 186.68 64.28 194.54 89.49 225.9 89.49 230.95 66.48 236.03 66.48 235.93 64.28" style="fill:#7b88d2"/><path d="M212.93,239.76H159.21a.34.34,0,0,1-.34-.33l-2.47-53.72a.37.37,0,0,1,.09-.25.36.36,0,0,1,.25-.11h53.72a.35.35,0,0,1,.34.33l2.47,53.72a.35.35,0,0,1-.1.25A.32.32,0,0,1,212.93,239.76Zm-53.4-.69h53l-2.43-53h-53Z" style="fill:#e0e0e0"/><path d="M195.51,193.3H172.39a.55.55,0,0,0-.55.58l.07,1.52.52,11.34,1.11,24.08a1,1,0,0,0,1,1h7.79a.93.93,0,0,0,.94-.91l.51-24.15h1.51l2.73,24.15a1,1,0,0,0,1,.91h7.8a.94.94,0,0,0,.94-1l-1.11-24.08-.52-11.34-.07-1.52A.6.6,0,0,0,195.51,193.3Z" style="fill:#e0e0e0"/><path d="M276.65,239.76H222.93a.34.34,0,0,1-.34-.33l-2.47-53.72a.37.37,0,0,1,.09-.25.36.36,0,0,1,.25-.11h53.72a.35.35,0,0,1,.34.33L277,239.4a.35.35,0,0,1-.1.25A.32.32,0,0,1,276.65,239.76Zm-53.4-.69h53l-2.43-53h-53Z" style="fill:#e0e0e0"/><polygon points="261.42 232.48 237.52 232.48 235.79 194.72 259.68 194.72 261.42 232.48" style="fill:#e0e0e0"/><polygon points="231.71 212.89 226.39 202.37 235.79 194.72 241 202.83 231.71 212.89" style="fill:#e0e0e0"/><polygon points="265.43 212.89 269.79 202.37 259.68 194.72 255.22 202.83 265.43 212.89" style="fill:#e0e0e0"/><path d="M241.84,194.72a6.24,6.24,0,0,0,6.17,5.9,5.58,5.58,0,0,0,5.63-5.9Z" style="fill:#ebebeb"/><path d="M273.72,176.19H220a.5.5,0,0,1-.5-.47L217,122a.47.47,0,0,1,.13-.36.52.52,0,0,1,.37-.16h53.72a.5.5,0,0,1,.5.48l2.46,53.72a.5.5,0,0,1-.13.37A.51.51,0,0,1,273.72,176.19Zm-53.24-1H273.2l-2.42-52.72H218.06Z" style="fill:#7b88d2"/><path d="M262.82,142.94l-5.83-.42.13-.44a2.54,2.54,0,0,0-2.44-3.22h-6.06a2.32,2.32,0,0,0-2.1,3.32l.75,1.7-.5.13-1.39.37-2.32.6-1.39.36-2.31.6-1.39.36-5.74,1.49v0c-2.38.68-4.38,2.11-4.26,4.62a5,5,0,0,0,4.9,4.69v0H261a3.75,3.75,0,0,0,3.79-4l-.39-8.53A1.77,1.77,0,0,0,262.82,142.94Z" style="fill:#7b88d2"/><polygon points="250.37 145.75 249 146.12 245.38 144.38 246.78 144.01 250.37 145.75" style="fill:#7b88d2;opacity:0.30000000000000004"/><polygon points="246.71 146.74 245.34 147.11 241.67 145.34 243.06 144.98 246.71 146.74" style="fill:#7b88d2;opacity:0.30000000000000004"/><polygon points="243.05 147.72 241.68 148.1 237.97 146.3 239.36 145.94 243.05 147.72" style="fill:#7b88d2;opacity:0.30000000000000004"/><path d="M264.73,150.79l.1,2.35a3.75,3.75,0,0,1-3.79,4h-4.66a7.37,7.37,0,0,1,7.38-6.38C264.09,150.74,264.41,150.76,264.73,150.79Z" style="fill:#7b88d2;opacity:0.30000000000000004"/><path d="M210,176H156.28a.34.34,0,0,1-.34-.32L153.47,122a.36.36,0,0,1,.34-.36h53.73a.34.34,0,0,1,.34.33l2.46,53.72a.34.34,0,0,1-.09.25A.35.35,0,0,1,210,176Zm-53.39-.68h53l-2.44-53h-53Z" style="fill:#e0e0e0"/><path d="M201,139.92l.21,4.46a3.09,3.09,0,0,1-3.48,3.28,9.2,9.2,0,0,0-1.17-.08,8.08,8.08,0,0,0-8.13,8.53v.2a4.41,4.41,0,0,1-.55,2.38,4.34,4.34,0,0,1-3.82,2.22h-3.14a4.79,4.79,0,0,1-4-2.22,4.68,4.68,0,0,1-.78-2.38v-.2a8.8,8.8,0,0,0-1.7-4.8,9.29,9.29,0,0,0-3.54-2.91,8.57,8.57,0,0,0-3.67-.82,9,9,0,0,0-1.17.08,3.44,3.44,0,0,1-3.78-3.28l-.2-4.46a1.36,1.36,0,0,1,1.37-1.44h36.06A1.53,1.53,0,0,1,201,139.92Z" style="fill:#e0e0e0"/><path d="M187.85,158.69a4.34,4.34,0,0,1-3.82,2.22h-3.14a4.79,4.79,0,0,1-4-2.22,5.59,5.59,0,0,1,5.31-3.7A6.29,6.29,0,0,1,187.85,158.69Z" style="fill:#ebebeb"/><path d="M240.6,283.92H199.34a9.23,9.23,0,0,1-9.1-8.7l-.54-11.61a8.27,8.27,0,0,1,8.31-8.7h41.26a9.23,9.23,0,0,1,9.1,8.7l.54,11.61A8.27,8.27,0,0,1,240.6,283.92Z" style="fill:#7b88d2"/><path d="M199.54,263.22h7a4,4,0,0,1,2.74.88,3,3,0,0,1,1.05,2.16,2.66,2.66,0,0,1-.59,1.85,2.89,2.89,0,0,1-1.28.81,3.57,3.57,0,0,1,2,1.08,3.08,3.08,0,0,1,.71,1.94,3.22,3.22,0,0,1-.36,1.7,3,3,0,0,1-1.15,1.19,3.67,3.67,0,0,1-1.41.4,16.78,16.78,0,0,1-1.68.17H200.1Zm4,4.78h1.64a1.82,1.82,0,0,0,1.21-.3,1.25,1.25,0,0,0-.08-1.71,1.9,1.9,0,0,0-1.21-.3h-1.66Zm.22,4.78h1.92a2.06,2.06,0,0,0,1.36-.34,1.23,1.23,0,0,0-.08-1.8,2.37,2.37,0,0,0-1.4-.32h-1.91Z" style="fill:#7b88d2"/><path d="M220.24,263.22H224l.34,7.26a5.87,5.87,0,0,1-.25,2,4.17,4.17,0,0,1-1,1.68,4,4,0,0,1-1.46,1,7.47,7.47,0,0,1-2.62.41,17.37,17.37,0,0,1-1.94-.13,5.29,5.29,0,0,1-1.78-.49,4.85,4.85,0,0,1-1.34-1.05,4.25,4.25,0,0,1-.87-1.4,8,8,0,0,1-.44-2.06l-.33-7.26h3.75l.34,7.43a2.23,2.23,0,0,0,.63,1.56,2.13,2.13,0,0,0,1.55.56,2,2,0,0,0,1.5-.56,2,2,0,0,0,.48-1.56Z" style="fill:#7b88d2"/><path d="M225.26,263.22h4.17l2.64,4.11,2.27-4.11h4.16l-4.41,7.08.24,5.1h-3.77l-.24-5.1Z" style="fill:#7b88d2"/></g><g id="Character"><path d="M342.41,136.33c1,1.21,1.75,2.27,2.55,3.44s1.53,2.31,2.26,3.48c1.45,2.36,2.75,4.8,4,7.29.61,1.24,1.17,2.52,1.72,3.79s1,2.58,1.48,3.91a63.54,63.54,0,0,1,2.25,8.11l0,.19a2.6,2.6,0,0,1,.06.78,62,62,0,0,1-.76,6.27c-.35,2.06-.81,4.09-1.35,6.08s-1.17,4-1.86,5.9a58.85,58.85,0,0,1-2.43,5.73,2.1,2.1,0,0,1-3.94-1.38l0-.1c.4-1.82.81-3.77,1.12-5.67s.64-3.81.86-5.72.42-3.81.55-5.69.15-3.77.16-5.63l.1,1a65.83,65.83,0,0,0-2.37-7c-.94-2.3-2-4.57-3.12-6.8s-2.4-4.4-3.73-6.53c-.67-1.07-1.34-2.12-2.05-3.15s-1.45-2.1-2.1-3l-.09-.11a4.22,4.22,0,0,1,6.67-5.18Z" style="fill:#ff8b7b"/><path d="M347.49,188l-5.06,6.63,8.39-.41s2.33-4.76.32-7.55Z" style="fill:#ff8b7b"/><polygon points="342.51 201.55 349.52 200.83 350.82 194.19 342.43 194.6 342.51 201.55" style="fill:#ff8b7b"/><path d="M328.51,116.6c-.8,4.93-1.45,14,2.09,17.1a25,25,0,0,1-11.47,10.38c-6.7-3.89-3.76-9.86-3.76-9.86,5.42-1.49,5.14-5.54,4.06-9.32Z" style="fill:#ff8b7b"/><path d="M310.79,107c-.09.65-.52,1.14-1,1.08s-.7-.65-.61-1.31.52-1.14.95-1.08S310.89,106.32,310.79,107Z" style="fill:#263238"/><path d="M310.37,105.73l-1.52-.68S309.48,106.4,310.37,105.73Z" style="fill:#263238"/><path d="M310.42,108.46a17.56,17.56,0,0,1-2.95,3.88,2.87,2.87,0,0,0,2.29.78Z" style="fill:#ff5652"/><path d="M313.13,103.7a.37.37,0,0,0,.29,0,.38.38,0,0,0,.14-.53,3.87,3.87,0,0,0-3-2,.4.4,0,0,0-.41.37.39.39,0,0,0,.37.41,3.13,3.13,0,0,1,2.34,1.6A.38.38,0,0,0,313.13,103.7Z" style="fill:#263238"/><path d="M333.37,107.43c-1.65,8-2.18,11.47-6.86,15-7.05,5.38-16.56,1.6-17.34-6.77-.71-7.53,2.11-19.4,10.5-21.5A11.19,11.19,0,0,1,333.37,107.43Z" style="fill:#e39371"/><path d="M311.9,185.31s-2,62.23-1.51,87.44c.56,26.21.81,87.43.81,87.43h4.58s12.59-50.88,9.47-87.43c4.72-28.07,7.92-87.44,7.92-87.44Z" style="fill:#e29370"/><path d="M313.27,185.31s16.45,62.23,22.71,87.44c6.52,26.21,20.68,87.43,20.68,87.43h4.58s1-50.88-10.39-87.43c-1.65-28.07-11.94-87.44-11.94-87.44Z" style="fill:#e29370"/><path d="M302.09,141a6.59,6.59,0,0,1,5.48-6.36c2.67-.46,6.18-1,9.46-1.29a107.59,107.59,0,0,1,15.24,0c2,.12,3.85.27,5.57.47a7.34,7.34,0,0,1,6.35,8.82c-4.72,22.18-4.12,30.36-3.61,42.71,13.82,20.22,10.3,48.9,12,73.4l-44.26,15.5c-2.32-40.38-1.31-82.72.12-88.9C304.23,159.42,302,147,302.09,141Z" style="fill:#406497"/><polygon points="328.89 242.35 330.89 214.35 339.12 209.07 328.89 242.35" style="fill:#263238;opacity:0.2"/><path d="M340.89,185.93l-32.78,2.43a.75.75,0,0,1-.85-.71l-.12-2.73a1.14,1.14,0,0,1,1-1.12L341,181.36a.75.75,0,0,1,.84.72l.13,2.73A1.15,1.15,0,0,1,340.89,185.93Z" style="fill:#263238"/><polygon points="319.89 132.77 327.67 134.63 329.28 132.91 326.72 132.3 319.89 132.77" style="fill:#ff8b7b"/><path d="M310.06,140.32c0,1.45,0,2.65,0,4s-.15,2.54-.26,3.8c-.23,2.52-.65,5-1.13,7.52a64,64,0,0,1-4.72,14.58L303,172c-.17.31-.26.55-.49.93s-.5.78-.75,1.12a8.95,8.95,0,0,1-10.35,3.28,16.12,16.12,0,0,1-4-2.07,32.71,32.71,0,0,1-5.8-5.4c-.85-.95-1.61-2-2.35-3s-1.44-2-2.12-3.16a2.1,2.1,0,0,1,3.31-2.54l.05,0c1.56,1.62,3.29,3.27,5,4.73a28.89,28.89,0,0,0,5.32,3.75,9.29,9.29,0,0,0,2.49.95,2.28,2.28,0,0,0,1.47-.08,2.89,2.89,0,0,0,.88-1c.09-.15.16-.29.22-.4s.2-.46.29-.69l.63-1.48a68.19,68.19,0,0,0,3.61-13c.39-2.23.65-4.5.88-6.76.11-1.13.19-2.27.24-3.4s.09-2.31.09-3.26v-.16a4.23,4.23,0,0,1,8.45-.13Z" style="fill:#e39271"/><path d="M281.32,162.19l-5.16-6.56-1.7,8.23s4,3.45,7.23,2.2Z" style="fill:#ff8b7b"/><polygon points="269.42 153.97 268.36 160.93 274.45 163.85 276.17 155.63 269.42 153.97" style="fill:#ff8b7b"/><path d="M315.54,110.26c2.41,3-8,5.48-4.24,13.95s-6,5-.52,16.58c5.4,11.41,24.82,17.38,36,12.7-4.33-.79-7.8-6.14-4.15-8.78,5.23-3.78,6.53-9.23,3.71-14.21s-9.74-12.84-6.56-19c3.89-7.48,4-12.73-4-18.59-8.18-6-26.55-10.95-26,.14S315.54,110.26,315.54,110.26Z" style="fill:#263238"/><path d="M336.23,118.44l-9.56-.94a3.23,3.23,0,0,1-2.87-4.14h0a4.64,4.64,0,0,1,4.78-3.4l9.55.93A3.24,3.24,0,0,1,341,115h0A4.65,4.65,0,0,1,336.23,118.44Z" style="fill:#407bff"/><path d="M318,109.5a6,6,0,0,1-3.09,3.37c-1.91.88-3.2-.75-2.94-2.73.23-1.77,1.51-4.37,3.56-4.42A2.7,2.7,0,0,1,318,109.5Z" style="fill:#ff8b7b"/><path d="M310.89,358.75h5.43a.63.63,0,0,1,.62.51L318,364.5a1.07,1.07,0,0,1-1.06,1.31c-2.89-.05-3.77-.22-7.4-.22-3.12,0-3.81.23-8.8.23-3,0-2.26-2.45-1-2.63,4.5-.67,6.39-1,9.69-3.41C310,359.41,310.25,358.75,310.89,358.75Z" style="fill:#263238"/><path d="M355.87,358.75h5.43a.65.65,0,0,1,.63.51l1,5.24a1.07,1.07,0,0,1-1.05,1.31c-2.9-.05-2,0-5.6,0h-5.19c-3,0-2.25-2.35-1-2.63,2.49-.56,3.12-1.45,4.29-3.41A1.8,1.8,0,0,1,355.87,358.75Z" style="fill:#263238"/><rect x="208.46" y="49.07" width="2.37" height="64.38" transform="translate(3.94 172.04) rotate(-45)" style="fill:#dee5fe"/><rect x="208.46" y="49.07" width="2.37" height="64.38" transform="translate(90.45 -109.39) rotate(36.8)" style="fill:#dee5fe"/></g></g></svg>