<svg xmlns="http://www.w3.org/2000/svg" viewBox="0 0 500 368.76"><title>Asset 1</title><g id="Layer_2" data-name="Layer 2"><g id="Background_Complete" data-name="Background Complete"><rect x="416.78" y="343.54" width="33.12" height="0.25" style="fill:#ebebeb"/><rect x="322.53" y="346.26" width="8.69" height="0.25" style="fill:#ebebeb"/><rect x="396.59" y="334.26" width="19.19" height="0.25" style="fill:#ebebeb"/><rect x="52.46" y="335.94" width="43.19" height="0.25" style="fill:#ebebeb"/><rect x="104.56" y="335.94" width="6.33" height="0.25" style="fill:#ebebeb"/><rect x="131.47" y="340.16" width="93.68" height="0.25" style="fill:#ebebeb"/><path d="M237,282.85H43.92a5.71,5.71,0,0,1-5.71-5.71V5.71A5.71,5.71,0,0,1,43.92,0H237a5.71,5.71,0,0,1,5.71,5.71V277.14A5.71,5.71,0,0,1,237,282.85ZM43.92.25a5.47,5.47,0,0,0-5.46,5.46V277.14a5.47,5.47,0,0,0,5.46,5.46H237a5.47,5.47,0,0,0,5.46-5.46V5.71A5.47,5.47,0,0,0,237,.25Z" style="fill:#ebebeb"/><path d="M453.31,282.85H260.21a5.72,5.72,0,0,1-5.71-5.71V5.71A5.72,5.72,0,0,1,260.21,0h193.1A5.71,5.71,0,0,1,459,5.71V277.14A5.71,5.71,0,0,1,453.31,282.85ZM260.21.25a5.47,5.47,0,0,0-5.46,5.46V277.14a5.47,5.47,0,0,0,5.46,5.46h193.1a5.47,5.47,0,0,0,5.46-5.46V5.71A5.47,5.47,0,0,0,453.31.25Z" style="fill:#ebebeb"/><rect y="327.45" width="500" height="0.25" style="fill:#ebebeb"/><rect x="140.18" y="19.54" width="19.19" height="41.96" style="fill:#e2e2e2"/><rect x="140.18" y="167.51" width="19.19" height="41.96" style="fill:#e2e2e2"/><rect x="103.19" y="29.45" width="19.19" height="41.96" transform="translate(-10.11 63.15) rotate(-30)" style="fill:#e2e2e2"/><rect x="177.17" y="157.6" width="19.19" height="41.96" transform="translate(-64.27 117.31) rotate(-30)" style="fill:#e2e2e2"/><rect x="76.11" y="56.53" width="19.19" height="41.96" transform="translate(-24.27 112.98) rotate(-60)" style="fill:#e2e2e2"/><rect x="204.25" y="130.52" width="19.19" height="41.96" transform="translate(-24.27 260.95) rotate(-60)" style="fill:#e2e2e2"/><rect x="66.2" y="93.52" width="19.19" height="41.96" transform="translate(-38.71 190.3) rotate(-90)" style="fill:#e2e2e2"/><rect x="214.17" y="93.52" width="19.19" height="41.96" transform="translate(109.26 338.26) rotate(-90)" style="fill:#e2e2e2"/><rect x="76.11" y="130.52" width="19.19" height="41.96" transform="translate(-2.64 301.47) rotate(-120)" style="fill:#e2e2e2"/><rect x="204.25" y="56.53" width="19.19" height="41.96" transform="matrix(-0.5, -0.87, 0.87, -0.5, 253.65, 301.47)" style="fill:#e2e2e2"/><rect x="103.19" y="157.6" width="19.19" height="41.96" transform="translate(121.17 389.62) rotate(-150)" style="fill:#e2e2e2"/><rect x="177.17" y="29.45" width="19.19" height="41.96" transform="matrix(-0.87, -0.5, 0.5, -0.87, 323.3, 187.49)" style="fill:#e2e2e2"/><path d="M436.75,239.19H434.1a4.78,4.78,0,0,1-.06-.53q-.44-3.6-.81-7.22c-.38-3.57-.69-7.15-1-10.75v-.14c-.12-1.3-.21-2.61-.3-3.92-.06-.77-.11-1.54-.15-2.32,0-.29,0-.58-.05-.87l1.25-.1,1.05-.09.3,0c0,.36,0,.72.08,1.08.05.78.09,1.55.14,2.32.09,1.31.2,2.62.29,3.92,0,0,0,.09,0,.14q.42,5.4,1,10.75c.21,2,.43,4.05.68,6.06C436.6,238.07,436.68,238.63,436.75,239.19Z" style="fill:#dee5fe"/><path d="M425.55,239.19c0-.17,0-.35-.05-.53-.28-2.4-.55-4.81-.78-7.22,0-.26-.06-.52-.08-.78-.33-3.31-.62-6.64-.87-10v-.14c-.11-1.3-.2-2.61-.29-3.92,0-.77-.1-1.55-.15-2.32,0-.55-.06-1.11-.1-1.66l2.57-.22h0c0,.63.07,1.25.11,1.88l.15,2.32c.1,1.31.19,2.61.28,3.92,0,0,0,.09,0,.14q.33,4.37.75,8.72c.05.42.09.83.13,1.25,0,.26,0,.52.07.78.24,2.41.5,4.81.79,7.22,0,.18.05.35.07.53Z" style="fill:#dee5fe"/><path d="M436.54,220.55v-6.24H399.92v1.38a4.91,4.91,0,0,0,.09.94,5,5,0,0,0,3.74,3.92,5.06,5.06,0,0,0,1.17.14h31.62Z" style="fill:#dee5fe"/><polygon points="436.55 155.02 436.55 214.31 434 214.31 434.06 213.25 434.11 211.99 436.55 155.02" style="fill:#dee5fe"/><polygon points="420.08 153.39 423.28 153.39 425.89 214.31 421.83 214.31 420.08 153.39" style="fill:#dee5fe"/><polygon points="398.76 153.39 401.95 153.39 405.44 214.31 401.38 214.31 398.76 153.39" style="fill:#dee5fe"/><rect x="397.31" y="211.98" width="35.68" height="4.64" transform="translate(830.3 428.61) rotate(180)" style="fill:#dee5fe"/><polygon points="436.55 214.31 436.55 211.99 434.11 211.99 433 211.99 433 213.34 433 214.31 433 216.63 434.57 216.63 436.55 216.63 436.55 214.31" style="fill:#dee5fe"/><polygon points="336.11 234.62 335.95 238.66 335.94 239.19 328.89 239.19 328.89 234.62 336.11 234.62" style="fill:#dee5fe"/><polygon points="336.11 234.62 335.95 238.66 335.94 239.19 328.89 239.19 328.89 234.62 336.11 234.62" style="fill:#dee5fe;opacity:0.2"/><polygon points="317.81 234.62 317.65 238.66 317.63 239.19 310.6 239.19 310.6 234.62 317.81 234.62" style="fill:#dee5fe"/><polygon points="317.81 234.62 317.65 238.66 317.64 239.19 310.6 239.19 310.6 234.62 317.81 234.62" style="fill:#dee5fe;opacity:0.2"/><path d="M436.54,220.55h-126l-.28.09c-.38.12-.75.26-1.12.41a16.6,16.6,0,0,0-5.06,3.23l-.24.24a15.92,15.92,0,0,0-1.56,1.74,15,15,0,0,0-1.18,1.72h0a16.39,16.39,0,0,0-1.29,2.67,8.11,8.11,0,0,0-.28.78c-.08.24-.15.48-.22.72l-.09.35c-.07.27-.13.54-.19.81s-.09.43-.12.64-.07.43-.09.64,0,.29-.05.43a14.46,14.46,0,0,0-.07,1.47c0,.11,0,.23,0,.34a1.93,1.93,0,0,0,0,.34c0,.2,0,.41,0,.61s.06.58.1.87l.09.53H436.74c-.07-.56-.14-1.12-.2-1.69V220.55Z" style="fill:#dee5fe"/><path d="M436.75,239.19H299c0-.18-.06-.35-.1-.53s-.08-.58-.1-.87,0-.41,0-.61a1.94,1.94,0,0,1,0-.34v-.34q0-.74.06-1.47c0-.14,0-.29.05-.43s.07-.43.09-.64.07-.42.12-.64.13-.54.2-.81a3.59,3.59,0,0,1,.08-.35c.08-.24.15-.48.22-.72h137v6.06C436.6,238.07,436.68,238.63,436.75,239.19Z" style="fill:#dee5fe;opacity:0.4"/><rect x="331.59" y="220.55" width="7.76" height="18.64" style="fill:#dee5fe;opacity:0.4"/><rect x="360.86" y="220.55" width="7.75" height="18.64" style="fill:#dee5fe;opacity:0.4"/><path d="M310.09,220.73v18.46h-7.76V226.26a15.92,15.92,0,0,1,1.56-1.74l.24-.21a16,16,0,0,1,5.14-3.26C309.54,220.93,309.81,220.83,310.09,220.73Z" style="fill:#dee5fe;opacity:0.4"/><rect x="419.38" y="220.55" width="7.76" height="18.64" style="fill:#dee5fe;opacity:0.4"/><rect x="390.12" y="220.55" width="7.76" height="18.64" style="fill:#dee5fe;opacity:0.4"/><path d="M293.73,216l2.59.18c0,.27,0,.53-.05.8-.08,1.1-.18,2.2-.27,3.29-.27,3.47-.61,6.93-1,10.38q-.4,4-.93,8h-2.61c.32-2.66.64-5.33.91-8q.76-6.81,1.25-13.67c0-.17,0-.34.05-.52S293.72,216.16,293.73,216Z" style="fill:#dee5fe"/><path d="M302.25,215.2l2.59.19c0,.53-.07,1.07-.11,1.6-.1,1.36-.19,2.71-.32,4.06-.08,1.08-.18,2.16-.28,3.23v0c-.18,2.12-.4,4.24-.63,6.35,0,.26-.05.52-.07.78-.27,2.41-.55,4.82-.86,7.22a3.35,3.35,0,0,1-.07.53h-2.64c0-.17.05-.35.08-.53.31-2.4.58-4.81.85-7.22,0-.26,0-.52.08-.78.11-.89.19-1.78.27-2.67h0q.35-3.45.64-6.93c.11-1.35.23-2.7.32-4.06C302.16,216.39,302.2,215.8,302.25,215.2Z" style="fill:#dee5fe"/><path d="M308.4,239.19c0-.18.05-.36.08-.53.29-2.4.57-4.81.82-7.22,0-.26.06-.52.08-.78q.39-3.71.71-7.41c.06-.73.14-1.47.18-2.2,0-.14,0-.27,0-.41.1-1.21.19-2.43.27-3.65.06-.77.12-1.55.17-2.32a1.23,1.23,0,0,1,0-.27l2.6.2v.07c-.05.77-.1,1.55-.17,2.32-.08,1.19-.16,2.38-.25,3.56,0,.17,0,.33-.05.5q-.39,4.81-.88,9.61c0,.26,0,.52-.08.78l-.36,3.18c-.14,1.34-.31,2.69-.48,4l-.06.53Z" style="fill:#dee5fe"/><path d="M320.65,213.7l1.24.1-.06.87c0,.78-.08,1.55-.14,2.32-.09,1.19-.17,2.38-.25,3.56a4.45,4.45,0,0,0-.05.5c-.25,3.21-.54,6.42-.87,9.61,0,.26,0,.52-.07.78-.25,2.41-.51,4.82-.81,7.22l-.06.53H317c0-.18,0-.35.05-.53.18-1.35.32-2.69.48-4l.33-3.18c0-.26.06-.52.08-.78.34-3.2.61-6.4.86-9.61a4.21,4.21,0,0,0,0-.5c.1-1.18.19-2.37.26-3.56.06-.77.11-1.54.17-2.32,0-.36,0-.72.07-1.08l.29,0Z" style="fill:#dee5fe"/><path d="M330.4,213c0,.55-.06,1.11-.1,1.66-.05.77-.08,1.55-.15,2.32-.08,1.19-.15,2.38-.25,3.56,0,.17,0,.34,0,.5-.24,3.21-.52,6.42-.82,9.61,0,.26-.06.52-.09.78-.22,2.41-.48,4.82-.76,7.22,0,.18-.05.35-.07.53H325.5c0-.17,0-.35.05-.53q.42-3.6.78-7.22c0-.26.05-.52.07-.78.33-3.2.6-6.4.85-9.61a4,4,0,0,1,0-.5c.08-1.19.16-2.37.25-3.56,0-.77.09-1.55.15-2.32s.06-1.25.1-1.88h0Z" style="fill:#dee5fe"/><path d="M293.67,214.67h60a0,0,0,0,1,0,0v1.38a5,5,0,0,1-5,5H298.66a5,5,0,0,1-5-5v-1.38A0,0,0,0,1,293.67,214.67Z" style="fill:#dee5fe"/><polygon points="295.7 153.75 292.51 153.75 295.12 214.67 299.18 214.67 295.7 153.75" style="fill:#dee5fe"/><polygon points="317.02 153.75 313.83 153.75 315.57 214.67 319.63 214.67 317.02 153.75" style="fill:#dee5fe"/><polygon points="333.56 153.75 330.37 153.75 327.75 214.67 331.82 214.67 333.56 153.75" style="fill:#dee5fe"/><polygon points="354.88 153.75 351.69 153.75 348.21 214.67 352.27 214.67 354.88 153.75" style="fill:#dee5fe"/><rect x="320.65" y="212.35" width="35.68" height="4.64" style="fill:#dee5fe"/><rect x="291.05" y="212.35" width="29.6" height="4.64" style="fill:#dee5fe"/><rect x="389.35" y="267.67" width="46.4" height="17.21" rx="7.22" style="fill:#dee5fe"/><rect x="286.16" y="267.67" width="46.4" height="17.21" rx="7.22" style="fill:#dee5fe"/><rect x="338.61" y="267.67" width="46.4" height="17.21" rx="7.22" style="fill:#dee5fe"/><rect x="363.98" y="289.13" width="46.4" height="17.21" rx="7.22" style="fill:#dee5fe"/><rect x="313.24" y="289.13" width="46.4" height="17.21" rx="7.22" style="fill:#dee5fe"/></g><g id="Shadow"><ellipse id="_Path_" data-name="&lt;Path&gt;" cx="245.18" cy="357.44" rx="193.89" ry="11.32" style="fill:#f5f7fe"/></g><g id="Door"><path d="M144.61,39.16h8.77a76.5,76.5,0,0,1,76.5,76.5V327.29a0,0,0,0,1,0,0H68.11a0,0,0,0,1,0,0V115.65A76.5,76.5,0,0,1,144.61,39.16Z" style="fill:#407bff"/><path d="M144.61,39.16h8.77a76.5,76.5,0,0,1,76.5,76.5V327.29a0,0,0,0,1,0,0H68.11a0,0,0,0,1,0,0V115.65A76.5,76.5,0,0,1,144.61,39.16Z" style="fill:#dee5fe"/><path d="M149,39.15,71.75,168.34v35.42L168.24,44.45S166.29,37.29,149,39.15Z" style="fill:#fff;opacity:0.1"/><path d="M207.64,76.8,74.6,292.22v35.42L220.47,92.47S217.83,76.66,207.64,76.8Z" style="fill:#fff;opacity:0.1"/><path d="M229.87,117.23V327.29H221V115.45a71,71,0,0,0-71-71h-2.64a71,71,0,0,0-70.95,71V327.29H68.11V117.23a80.88,80.88,0,0,1,161.76,0Z" style="fill:#407bff"/><path d="M229.87,117.23V327.29H221V115.45a71,71,0,0,0-71-71h-2.64a71,71,0,0,0-70.95,71V327.29H68.11V117.23a80.88,80.88,0,0,1,161.76,0Z" style="fill:#8590a8"/><rect x="76.43" y="316.9" width="144.5" height="10.2" style="opacity:0.2"/><rect x="87.13" y="186.71" width="8.16" height="33.05" style="opacity:0.30000000000000004"/><rect x="85.09" y="184.66" width="8.16" height="33.05" style="fill:#fff"/><rect x="76.43" y="146.96" width="144.57" height="15.29" style="fill:#fff;opacity:0.8"/></g><g id="Sign"><rect x="121" y="166.44" width="67.82" height="42.91" rx="3.88" style="fill:#6475bc"/><rect x="121" y="163.26" width="67.82" height="42.91" rx="3.88" style="fill:#7b88d2"/><path d="M127.33,187a5,5,0,0,1,8.74-3.12l-1.36,1.26a2.93,2.93,0,0,0-2.3-1.07,2.93,2.93,0,0,0,0,5.86,2.92,2.92,0,0,0,2.3-1.09l1.36,1.26a5,5,0,0,1-8.74-3.1Z" style="fill:#7b88d2"/><path d="M137.5,182.44h2.12v7.43h4.59v1.73H137.5Z" style="fill:#7b88d2"/><path d="M144.67,187a5,5,0,1,1,5,4.74A4.74,4.74,0,0,1,144.67,187Zm7.88,0a2.87,2.87,0,1,0-2.87,2.93A2.79,2.79,0,0,0,152.55,187Z" style="fill:#7b88d2"/><path d="M155.57,190.7l.72-1.6a5.4,5.4,0,0,0,3,1c1.26,0,1.77-.42,1.77-1,0-1.71-5.33-.53-5.33-3.94,0-1.55,1.26-2.85,3.86-2.85a6.11,6.11,0,0,1,3.18.81l-.65,1.61a5.23,5.23,0,0,0-2.54-.72c-1.26,0-1.74.47-1.74,1.05,0,1.69,5.33.52,5.33,3.89,0,1.53-1.27,2.84-3.89,2.84A6.52,6.52,0,0,1,155.57,190.7Z" style="fill:#7b88d2"/><path d="M171.73,189.9v1.7h-7.09v-9.16h6.92v1.7h-4.82v2H171v1.65h-4.26v2.12Z" style="fill:#7b88d2"/><path d="M173.42,182.44h4.16c3,0,5,1.8,5,4.58s-2,4.58-5,4.58h-4.16Zm4.05,7.42a2.85,2.85,0,1,0,0-5.68h-1.93v5.68Z" style="fill:#7b88d2"/><path d="M127,175.29l.42-.93a3.16,3.16,0,0,0,1.77.56c.73,0,1-.25,1-.57,0-1-3.11-.32-3.11-2.3,0-.91.73-1.66,2.25-1.66a3.65,3.65,0,0,1,1.86.47l-.39.94a3,3,0,0,0-1.48-.42c-.73,0-1,.27-1,.61,0,1,3.1.3,3.1,2.26,0,.9-.74,1.66-2.26,1.66A3.81,3.81,0,0,1,127,175.29Z" style="fill:#7b88d2"/><path d="M132,173.15a2.92,2.92,0,1,1,2.92,2.76A2.76,2.76,0,0,1,132,173.15Zm4.59,0a1.67,1.67,0,1,0-1.67,1.71A1.63,1.63,0,0,0,136.54,173.15Z" style="fill:#7b88d2"/><path d="M142.13,175.82l-1-1.49H140v1.49h-1.23v-5.34H141c1.42,0,2.32.74,2.32,1.94a1.74,1.74,0,0,1-1.1,1.68l1.2,1.72ZM141,171.48h-1v1.87h1c.75,0,1.14-.36,1.14-.93S141.72,171.48,141,171.48Z" style="fill:#7b88d2"/><path d="M147.74,175.82l-1-1.49h-1.14v1.49h-1.23v-5.34h2.31c1.43,0,2.32.74,2.32,1.94a1.74,1.74,0,0,1-1.1,1.68l1.2,1.72Zm-1.16-4.34h-1v1.87h1c.76,0,1.14-.36,1.14-.93S147.34,171.48,146.58,171.48Z" style="fill:#7b88d2"/><path d="M152.43,173.93v1.89H151.2v-1.91l-2.07-3.43h1.31l1.43,2.37,1.43-2.37h1.21Z" style="fill:#7b88d2"/><path d="M165.26,170.48l-1.74,5.34h-1.33L161,172.2l-1.21,3.62h-1.32l-1.75-5.34H158l1.2,3.75,1.26-3.75h1.15l1.22,3.78,1.24-3.78Z" style="fill:#7b88d2"/><path d="M170.09,174.83v1H166v-5.34h4v1h-2.81v1.16h2.48v1h-2.48v1.24Z" style="fill:#7b88d2"/><path d="M172.18,170.83a1.81,1.81,0,0,1-.2.76l-.44,1.1h-.75l.32-1.21a.67.67,0,0,1-.4-.65.71.71,0,0,1,.74-.73A.69.69,0,0,1,172.18,170.83Z" style="fill:#7b88d2"/><path d="M176.48,175.82l-1-1.49h-1.14v1.49h-1.23v-5.34h2.31c1.42,0,2.32.74,2.32,1.94a1.74,1.74,0,0,1-1.1,1.68l1.2,1.72Zm-1.16-4.34h-1v1.87h1c.75,0,1.14-.36,1.14-.93S176.07,171.48,175.32,171.48Z" style="fill:#7b88d2"/><path d="M182.82,174.83v1h-4.13v-5.34h4v1h-2.81v1.16h2.48v1h-2.48v1.24Z" style="fill:#7b88d2"/><path d="M127.27,199.08v-1.84H128v1.81c0,.62.27.88.73.88s.73-.26.73-.88v-1.81h.75v1.84a1.49,1.49,0,1,1-3,0Z" style="fill:#7b88d2"/><path d="M134,197.24v3.28h-.62l-1.64-2v2H131v-3.28h.63l1.63,2v-2Z" style="fill:#7b88d2"/><path d="M135.45,197.86h-1v-.62h2.85v.62h-1v2.66h-.76Z" style="fill:#7b88d2"/><path d="M137.66,197.24h.76v3.28h-.76Z" style="fill:#7b88d2"/><path d="M139.2,197.24H140v2.66h1.65v.62h-2.4Z" style="fill:#7b88d2"/><path d="M145.89,199.91v.61h-2.54v-3.28h2.48v.61H144.1v.71h1.53v.59H144.1v.76Z" style="fill:#7b88d2"/><path d="M149.5,197.24v3.28h-.63l-1.63-2v2h-.75v-3.28h.63l1.63,2v-2Z" style="fill:#7b88d2"/><path d="M150.27,197.24h1.49a1.65,1.65,0,1,1,0,3.28h-1.49Zm1.46,2.66a1,1,0,1,0,0-2H151v2Z" style="fill:#7b88d2"/><path d="M155.26,198.88a1.8,1.8,0,1,1,1.79,1.69A1.7,1.7,0,0,1,155.26,198.88Zm2.82,0a1,1,0,1,0-1,1.05A1,1,0,0,0,158.08,198.88Z" style="fill:#7b88d2"/><path d="M159.39,199.08v-1.84h.76v1.81c0,.62.27.88.73.88s.73-.26.73-.88v-1.81h.75v1.84a1.49,1.49,0,1,1-3,0Z" style="fill:#7b88d2"/><path d="M163.73,197.86h-1v-.62h2.86v.62h-1v2.66h-.76Z" style="fill:#7b88d2"/><path d="M169,199.62c0,.57-.45.9-1.31.9h-1.7v-3.28h1.61c.82,0,1.24.34,1.24.85a.78.78,0,0,1-.44.72A.81.81,0,0,1,169,199.62Zm-2.25-1.81v.77h.75c.37,0,.57-.13.57-.39s-.2-.38-.57-.38Zm1.49,1.73c0-.27-.21-.4-.61-.4h-.88V200h.88C168,200,168.19,199.82,168.19,199.54Z" style="fill:#7b88d2"/><path d="M171.61,200.52l-.63-.91h-.7v.91h-.75v-3.28h1.41c.88,0,1.43.45,1.43,1.19a1.06,1.06,0,0,1-.68,1l.74,1.06Zm-.71-2.66h-.62V199h.62c.47,0,.7-.22.7-.57S171.37,197.86,170.9,197.86Z" style="fill:#7b88d2"/><path d="M175.51,199.91v.61H173v-3.28h2.47v.61h-1.72v.71h1.52v.59h-1.52v.76Z" style="fill:#7b88d2"/><path d="M178.27,199.81h-1.52l-.3.71h-.77l1.46-3.28h.75l1.46,3.28h-.79Zm-.24-.57-.52-1.26-.52,1.26Z" style="fill:#7b88d2"/><path d="M180.89,199.23l-.44.46v.83h-.76v-3.28h.76v1.53l1.45-1.53h.84l-1.35,1.46,1.43,1.82h-.88Z" style="fill:#7b88d2"/><polygon points="178.63 164.09 154.2 148.49 130.43 164.08 129.88 163.25 154.19 147.3 179.17 163.25 178.63 164.09" style="fill:#407bff"/></g><g id="Character"><circle cx="226.17" cy="164.53" r="1.17" style="fill:#fff"/><path d="M212.79,111.92a8.86,8.86,0,0,1-3.13,7.69c-.65.53-1.38,1-2,1.54l0,0a2,2,0,0,0,.22,3,5.27,5.27,0,0,1,1.08,6.92c-1.15,1.77-2.92,2.83-4,4.63a1,1,0,0,0,.55,1.38c.46.15,1,.18,1.32.54a1.58,1.58,0,0,1,.12,1.55,6.77,6.77,0,0,1-3.91,4.19,14.12,14.12,0,0,1-3.59,1,4,4,0,0,0,2.51-4.84,8.67,8.67,0,0,0-1.46-2.39,5.07,5.07,0,0,1-1.26-2.84,2.32,2.32,0,0,1,1.26-2,3.22,3.22,0,0,0,.79-4.6,17.81,17.81,0,0,1-1.53-1.61c-.81-1.33-.1-3,.62-4.4l2.72-5.26a14,14,0,0,1,3-4.37,4.68,4.68,0,0,1,5-.89C211.7,111,212.37,111.46,212.79,111.92Z" style="fill:#263238"/><path d="M187.55,156.2s-17.33-6.85-18.72-6.72c-2.11.2-3.26,2.49-4,4.46,0,0,17,9.21,24,10.2,5.29.75,19.79-4.58,23.87-6.91a11.78,11.78,0,0,0,4.94-4.72c1-2.08,0-5-1.54-6.75-3.57-3.84-7.52.82-10.13,2.94C201.93,152,192.72,156.83,187.55,156.2Z" style="fill:#5072a7"/><path d="M169.77,150.08s-5.46-6-5.7-5.59-4.24,6.69-3.85,6.93l6.19,3.61S170.05,154.43,169.77,150.08Z" style="fill:#ffb573"/><polygon points="160.22 151.42 164.07 144.49 156.7 144.39 155.57 149.3 160.22 151.42" style="fill:#ffb573"/><path d="M215.7,344.82c3.08,2,5,2,6.91-1.48,2.68-22.35,4.35-49.45,1-61.91-2.11-7.75-13.51-12.65-12.24,4.55C212.06,295.72,215.6,336.73,215.7,344.82Z" style="fill:#ffb573"/><path d="M211.3,282.84c1,2.73,6.73,4.54,10,1.79,10.27-8.71,17.67-50.51,20.86-62.1.89-3.25,1.79-6.71.79-9.92-1.26-4.05-5.21-6.66-9.19-8.12-4.95-1.82-13.9-10.73-13.9-10.73C213.87,211.47,208.17,274.11,211.3,282.84Z" style="fill:#8459db"/><path d="M211.3,282.84c1,2.73,6.73,4.54,10,1.79,10.27-8.71,17.67-50.51,20.86-62.1.89-3.25,1.79-6.71.79-9.92-1.26-4.05-5.21-6.66-9.19-8.12-4.95-1.82-13.9-10.73-13.9-10.73C213.87,211.47,208.17,274.11,211.3,282.84Z" style="fill:#8459db"/><path d="M211.3,282.84c1,2.73,6.73,4.54,10,1.79,10.27-8.71,17.67-50.51,20.86-62.1.89-3.25,1.79-6.71.79-9.92-1.26-4.05-5.21-6.66-9.19-8.12-4.95-1.82-13.9-10.73-13.9-10.73C213.87,211.47,208.17,274.11,211.3,282.84Z" style="fill:#8459db;opacity:0.6000000000000001"/><path d="M244.56,235.06H251l-3.56-24.79c-3.28-5-27.16-4.48-24.22-.6C231.35,220.41,236.36,229.23,244.56,235.06Z" style="fill:#8459db;opacity:0.2"/><path d="M238,222.86c4.14-9.68,11.14-10.8,21.55-12.38.22-9.16-8.73-18-13.82-21.55h-25.9C213.42,208.59,222.39,214.6,238,222.86Z" style="fill:#407bff"/><path d="M247,193.38l-3.22.75a52.56,52.56,0,0,1-11.84,1.34,53.55,53.55,0,0,1-10.55-1.06s-8.95-12.09-11.2-15.77a32.34,32.34,0,0,1-4.08-8.53c-1.76-7-.66-18.67,3.77-24.18,2.9-3.64,10-5.08,19.86-1.37.58.22,1.19.47,1.8.73a56.14,56.14,0,0,1,6.06,3.09C248.17,154.58,247,193.38,247,193.38Z" style="fill:#5072a7"/><path d="M217.56,142.44a20.45,20.45,0,0,0-6.71,20.23,5.44,5.44,0,0,0,1.13,1.86l1.37-1.75a19.19,19.19,0,0,1,3.38-17,43.35,43.35,0,0,1,3.62-3.55A2.32,2.32,0,0,0,217.56,142.44Z" style="fill:#ebebeb"/><path d="M231.09,145.82a19.22,19.22,0,0,0-3.38,17c-.44.58-.93,1.17-1.37,1.75a5.57,5.57,0,0,1-1.14-1.87,20.61,20.61,0,0,1,4.53-18.1c.58.22,1.19.47,1.8.73C231.38,145.46,231.24,145.64,231.09,145.82Z" style="fill:#ebebeb"/><path d="M208.4,151.94c4,.23,5.9,3.29,6.84,7.17,7.15-5.46,11.74-7.72,17.92-8-1.36-2.57-2.77-5.22-5-7.08C221,138.09,211.87,145.54,208.4,151.94Z" style="fill:#fff"/><path d="M214,113.44c-1.81-1.93-2.23-3.64-.15-5.28,0,0,2.35-1.38,4.22-1a8.36,8.36,0,0,1,3.84,1.5,29.37,29.37,0,0,1,8.19,3,12.31,12.31,0,0,1,5.43,6.43c.34,1,.41,2.34-.44,3,5.41,3.33,2.93,8.26,2.51,9.15-.95,2-3.68,2.37-5.34,3.87-2.61,2.35-.55,6.56.87,7.16-8.61,1.78-10.77,1.39-15.21,0-5.73-.9-6-10.72-4.3-15.2.93-2.46,2.84-4.68,2.78-7.31A7.94,7.94,0,0,0,214,113.44Z" style="fill:#263238"/><path d="M224.85,130.66c-.26,3.16-.31,8.12.86,11.69a6.68,6.68,0,0,1-2.19,7.45c-1,.72-2.07,1.52-3.34,2.36a4.14,4.14,0,0,1-6.07-1.57,3.62,3.62,0,0,1-.2-.54,2.54,2.54,0,0,1,1.32-3c3.72-1.88,3.17-5.21,2.06-8.29Z" style="fill:#ffb573"/><path d="M221.75,134l-4.5,4.82a14.92,14.92,0,0,1,.7,2.39c1.84-.49,4.49-2.5,4.46-4.49A8,8,0,0,0,221.75,134Z" style="opacity:0.2;isolation:isolate"/><path d="M228.61,123.55c-1.68,7.24-2.23,10.34-6.56,13.47-5.42,3.93-11,3-14.07-2.59a13.06,13.06,0,0,1-1.45-6.56c.31-10.38,2.9-15,10-16.61a10.13,10.13,0,0,1,12.1,12.29Z" style="fill:#ffb573"/><path d="M224.16,134.54a5.66,5.66,0,0,0,.56-2.79c-.13-.49,2.28-3.47,2.7-3.73a1.38,1.38,0,0,1,1-.14c.29.13.31.51.3.82-.05,1.1-2,5.88-3.39,6.07C224.29,134.91,225.34,138.56,224.16,134.54Z" style="fill:#263238"/><path d="M218.86,114.66a12,12,0,0,1,2.65,5,35.79,35.79,0,0,1,1,5.66,5.29,5.29,0,0,1,2.45,4.77,3.77,3.77,0,0,1,4.69-2.5,12.34,12.34,0,0,0-12.83-16.76c-1,.11-2.19.52-2.44,1.5a8.41,8.41,0,0,0,2.38.95A5.26,5.26,0,0,1,218.86,114.66Z" style="fill:#263238"/><path d="M213.66,131.9a6.46,6.46,0,0,1-.86.24.17.17,0,0,1-.21-.12h0a.18.18,0,0,1,.15-.19,5.11,5.11,0,0,0,3.51-2.53.2.2,0,0,1,.24-.1.16.16,0,0,1,.09.22A5.22,5.22,0,0,1,213.66,131.9Z" style="fill:#263238"/><path d="M211.52,125.63a15.87,15.87,0,0,1-1.91,4,2.6,2.6,0,0,0,2.17.28Z" style="fill:#ed893e"/><path d="M228.17,124.41a29.71,29.71,0,0,1-21.51,4.16c-.37,3,0,5.79,2,8a10.55,10.55,0,0,0,8,3.43c3.43-.08,6.58-3.22,9-5.7A11,11,0,0,0,228.17,124.41Z" style="fill:#fff"/><path d="M229.37,129.63a5.47,5.47,0,0,1-3.12,2.74c-1.81.59-2.8-1-2.37-2.75.38-1.58,1.78-3.79,3.64-3.63a2.46,2.46,0,0,1,2.15,2.72A2.43,2.43,0,0,1,229.37,129.63Z" style="fill:#ffb573"/><path d="M210.82,343.34c-1.12-.09-2.18-.33-2.47-.86a.79.79,0,0,1,.1-.9,1,1,0,0,1,.7-.42c1.48-.27,4.35,1.72,4.47,1.81a.21.21,0,0,1,.09.22.21.21,0,0,1-.18.16A14.43,14.43,0,0,1,210.82,343.34Zm-1.22-1.81a1.89,1.89,0,0,0-.41,0,.66.66,0,0,0-.42.25c-.17.25-.13.37-.09.46.36.59,2.56.8,4.18.71a9.23,9.23,0,0,0-3.26-1.42Z" style="fill:#407bff"/><path d="M213.47,343.34l-.09,0c-1-.56-2.92-2.61-2.67-3.58a.75.75,0,0,1,.82-.51,1.49,1.49,0,0,1,1.12.39c1,1,1.06,3.36,1.06,3.46a.18.18,0,0,1-.07.19Zm-1.81-3.7-.12-.05c-.37,0-.4.15-.42.2-.19.56,1.14,2.17,2.15,2.91a4.85,4.85,0,0,0-.91-2.77A1,1,0,0,0,211.66,339.64Z" style="fill:#407bff"/><path d="M215,341.86l8.42.29a.74.74,0,0,1,.71.63l1.41,7c.09.72-1.28,1.48-1.36,1.48-5.17.32-16.25.17-19.9,0s-3.93-3.84-2.42-4.09c6.78-1.1,9.42-3,11.66-4.79A2.12,2.12,0,0,1,215,341.86Z" style="fill:#263238"/><polygon points="154.58 148.73 153.37 148.28 154.59 147.74 164.81 147.83 164.8 148.82 154.58 148.73" style="fill:#263238"/><path d="M166,150.19l-2.6-2.46-3.69,0,.11.85a1.2,1.2,0,0,0,.7.7c1.16.55,3.9,2.12,3.9,2.12Z" style="fill:#ffb573"/><path d="M211.3,282.84l.27,6.32L225.19,291s-.49-5.59-.94-6.62S211.3,282.84,211.3,282.84Z" style="opacity:0.2"/><path d="M208.59,279.71c-.09,0,.72,6.75.72,6.75l17.29-.16.06-6.19Z" style="fill:#407bff"/><path d="M208.59,279.71c-.09,0,.72,6.75.72,6.75l17.29-.16.06-6.19Z" style="fill:#6c43c5"/><path d="M215.74,124.66c0,.6-.36,1.08-.76,1.07s-.69-.52-.66-1.12.36-1.08.75-1.07S215.76,124.05,215.74,124.66Z" style="fill:#263238"/><path d="M209.19,124.41c0,.6-.36,1.08-.75,1.06s-.69-.51-.67-1.12.36-1.07.75-1.06S209.22,123.8,209.19,124.41Z" style="fill:#263238"/><path d="M208.69,123.33l-1.43-.47S208,124,208.69,123.33Z" style="fill:#263238"/><path d="M216.91,122.19a.37.37,0,0,0,.14-.07.29.29,0,0,0,0-.41h0a3.45,3.45,0,0,0-2.9-1.28.3.3,0,0,0-.26.33.29.29,0,0,0,.32.25,2.9,2.9,0,0,1,2.4,1.09A.3.3,0,0,0,216.91,122.19Z" style="fill:#263238"/><path d="M206.83,121.39a.31.31,0,0,0,.14-.07,2.87,2.87,0,0,1,2.55-.57.3.3,0,0,0,.38-.19h0a.3.3,0,0,0-.19-.37,3.49,3.49,0,0,0-3.11.67.29.29,0,0,0-.06.41.3.3,0,0,0,.29.12Z" style="fill:#263238"/><path d="M215.24,123.58l-1.43-.47S214.51,124.27,215.24,123.58Z" style="fill:#263238"/><path d="M304,322.9a4.27,4.27,0,0,1-5,3.85L261.7,288.11,257.54,284l0,0a1.4,1.4,0,0,1-.1-.16,11.25,11.25,0,0,1-.82-1.37c-3.49-6.64,1.08-11.49,7.26-9a15.75,15.75,0,0,1,1.56.75,19.43,19.43,0,0,1,4.82,3.9s0,0,0,0a37.67,37.67,0,0,1,2.6,3.14c.45.58.88,1.18,1.33,1.77C282.57,294.48,296.05,313.73,304,322.9Z" style="fill:#ffb573"/><path d="M241.86,242a291.84,291.84,0,0,0,13,38.5s15.45.22,15.67-4.24c.31-6.35-5.4-108-31.29-75.27C234,207.61,239.52,233.33,241.86,242Z" style="fill:#407bff"/><path d="M241.86,242a291.84,291.84,0,0,0,13,38.5s15.45.22,15.67-4.24c.31-6.35-5.4-108-31.29-75.27C234,207.61,239.52,233.33,241.86,242Z" style="fill:#8459dc"/><path d="M228,162.83c4.05,10.37,18.25,10,18.25,10,1.29,9,14.38,64.7,14.38,64.7-27.26,23.86-49.61,8.92-48.82,7.53,5.37-39.14.26-62.57-3.25-69.2h0c2-.77,2.44-13,2.44-13Z" style="fill:#406498"/><path d="M296.22,330.28c-.83.94-1.77,1.72-2.43,1.62a.87.87,0,0,1-.74-.69,1.12,1.12,0,0,1,.1-.91c.76-1.5,4.47-2.72,4.63-2.77a.26.26,0,0,1,.26.07.29.29,0,0,1,0,.27A16.51,16.51,0,0,1,296.22,330.28Zm-2.44-.14a2.26,2.26,0,0,0-.26.37.67.67,0,0,0-.06.55c.1.32.24.36.34.39.78.08,2.44-1.75,3.46-3.25a10.38,10.38,0,0,0-3.47,2Z" style="fill:#407bff"/><path d="M298,327.92l-.08.06c-1.18.52-4.3.84-5,0a.84.84,0,0,1,.09-1.08,1.72,1.72,0,0,1,1.11-.73c1.6-.24,3.7,1.32,3.8,1.38a.26.26,0,0,1,.13.2Zm-4.52-.89-.12.08c-.23.33-.13.46-.1.51.36.54,2.7.45,4.05,0a5.4,5.4,0,0,0-3.09-1.05A1.16,1.16,0,0,0,293.48,327Z" style="fill:#407bff"/><path d="M297.32,325l4.83-4.92c1.46-.4,7.9,4.12,7.9,4.12.7.4.45,2.14.39,2.21-3.2,4.82-8.93,11.9-11.57,15s-6.08.91-5.28-.6c3.6-6.79,3.7-10.42,3.6-13.63C297.15,326.61,296.94,325.47,297.32,325Z" style="fill:#263238"/><path d="M272.86,281.19h0l-11.15,6.92L257.54,284l-.14-.2-.94-1.3.12-.07c1.21-.74,10.84-6.67,11.71-6.07a12.57,12.57,0,0,1,1.93,1.7s0,0,0,0A39,39,0,0,1,272.86,281.19Z" style="opacity:0.2"/><path d="M252.45,277.73c-.09,0,2.87,7.09,2.87,7.09L274,279.3l-1.86-6.73Z" style="fill:#407bff"/><path d="M252.45,277.73c-.09,0,2.87,7.09,2.87,7.09L274,279.3l-1.86-6.73Z" style="fill:#6c43c5"/><path d="M212,114.65a13.34,13.34,0,0,0,3.79,1.56,4.54,4.54,0,0,1,3.05,2.54c.35,1.1,0,2.3,0,3.46a4.31,4.31,0,0,0,3.4,3.8,10.1,10.1,0,0,0-1.08,2.33,2.89,2.89,0,0,0,.11,2.34,9.32,9.32,0,0,0,1.44,1.51,1.7,1.7,0,0,1,.45,1.91,3.73,3.73,0,0,0,.55-3.85c-.23-.38,1.9-4,1.89-7.79a3,3,0,0,0-.82-1.88,4.73,4.73,0,0,0-1.47-.87,2,2,0,0,1-1.17-1.19,2.1,2.1,0,0,1,.23-1.29c.18-.4.67-.9.4-1.26-2.5-3.34-5.68-4-8.23-5.15a5.07,5.07,0,0,0-2-.53,1.9,1.9,0,0,0-1.73.9h0a3.29,3.29,0,0,0,1.07,3.43Z" style="fill:#263238"/><path d="M214.39,164.69a1.17,1.17,0,1,1-1.17-1.17A1.16,1.16,0,0,1,214.39,164.69Z" style="fill:#fff"/><path d="M190.63,143.61c.51,0,.94.12,1,.31l.88,23.52-1.94.07L189.7,144c0-.19.42-.35.93-.37Z" style="fill:#263238"/><rect x="184.76" y="144.21" width="12.02" height="6.91" rx="2.5" transform="translate(-5.16 6.92) rotate(-2.05)" style="fill:#7b88d2"/><path d="M239.18,152.63c-4.2-2-2.49-3.06-12.36,10-.78,1-6.94,8.3-6.94,8.3l-19.53-9.1s-1,3.4-2.42,4.86c0,0,10.35,7.21,18.84,12.15s13.72-4.64,16.55-8.25C239.09,163.21,245.35,155.59,239.18,152.63Z" style="fill:#5072a7"/><path d="M201,162.12s-6.8-4.35-6.93-4-2.26,6.53-1.88,6.66,6.92,2.51,6.92,2.51A4.29,4.29,0,0,0,201,162.12Z" style="fill:#ffb573"/><path d="M192.17,164.81l1.88-6.66-4.71,1a2,2,0,0,0-1.56,2v1.17a2,2,0,0,0,1.61,1.94Z" style="fill:#ffb573"/><path d="M217.15,193.76s1,14.08.92,17.37c0,0,13.17,6.58,13.46,5.6s8.95-7.21,8.95-7.21l-3.67-17.43S227.49,199.74,217.15,193.76Z" style="opacity:0.2;isolation:isolate"/></g><g id="Window"><path d="M332.67,238.08v.78h94.75v-.78Zm-19.42,0c0,.26-.05.52-.08.78H319c0-.26.06-.52.07-.78Zm19.42,0v.78h94.75v-.78Zm-19.42,0c0,.26-.05.52-.08.78H319c0-.26.06-.52.07-.78Zm19.42,0v.78h94.75v-.78Zm-19.42,0c0,.26-.05.52-.08.78H319c0-.26.06-.52.07-.78Zm19.42,0v.78h94.75v-.78Zm0,0v.78h94.75v-.78Zm0,0v.78h94.75v-.78ZM284.12,63.16V246.08H436.75V63.16Zm7.93,174.92V71.16H428.81V238.08Zm40.62,0v.78h94.75v-.78Zm0,0v.78h94.75v-.78Zm0,0v.78h94.75v-.78Zm-19.42,0c0,.26-.05.52-.08.78H319c0-.26.06-.52.07-.78Zm19.42,0v.78h94.75v-.78Zm-19.42,0c0,.26-.05.52-.08.78H319c0-.26.06-.52.07-.78Zm19.42,0v.78h94.75v-.78Zm-19.42,0c0,.26-.05.52-.08.78H319c0-.26.06-.52.07-.78Zm19.42,0v.78h94.75v-.78Z" style="fill:#a0cb8c"/><path d="M292.64,121.44h0a8.59,8.59,0,0,1-8.59-8.59V85.2h17.19v27.65A8.6,8.6,0,0,1,292.64,121.44Z" style="fill:#e6e6e6"/><path d="M292.64,121.44h0a8.59,8.59,0,0,1-8.59-8.59V85.2h17.19v27.65A8.6,8.6,0,0,1,292.64,121.44Z" style="fill:#e6e6e6;opacity:0.4"/><path d="M309.72,121.44h0a8.6,8.6,0,0,1-8.6-8.59V85.2h17.2v27.65A8.6,8.6,0,0,1,309.72,121.44Z" style="fill:#a0cb8c"/><path d="M326.8,121.44h0a8.6,8.6,0,0,1-8.6-8.59V85.2h17.19v27.65A8.59,8.59,0,0,1,326.8,121.44Z" style="fill:#e6e6e6"/><path d="M326.8,121.44h0a8.6,8.6,0,0,1-8.6-8.59V85.2h17.19v27.65A8.59,8.59,0,0,1,326.8,121.44Z" style="fill:#e6e6e6;opacity:0.4"/><path d="M343.88,121.44h0a8.6,8.6,0,0,1-8.6-8.59V85.2h17.19v27.65A8.6,8.6,0,0,1,343.88,121.44Z" style="fill:#a0cb8c"/><path d="M361,121.44h0a8.6,8.6,0,0,1-8.59-8.59V85.2h17.19v27.65A8.6,8.6,0,0,1,361,121.44Z" style="fill:#e6e6e6"/><path d="M361,121.44h0a8.6,8.6,0,0,1-8.6-8.59V85.2h17.19v27.65A8.59,8.59,0,0,1,361,121.44Z" style="fill:#e6e6e6;opacity:0.4"/><path d="M378,121.44h0a8.6,8.6,0,0,1-8.59-8.59V85.2h17.19v27.65A8.6,8.6,0,0,1,378,121.44Z" style="fill:#a0cb8c"/><path d="M395.11,121.44h0a8.59,8.59,0,0,1-8.59-8.59V85.2h17.19v27.65A8.6,8.6,0,0,1,395.11,121.44Z" style="fill:#e6e6e6"/><path d="M395.14,121.44h0a8.6,8.6,0,0,1-8.6-8.59V85.2h17.19v27.65A8.6,8.6,0,0,1,395.14,121.44Z" style="fill:#e6e6e6;opacity:0.4"/><path d="M412.19,121.44h0a8.6,8.6,0,0,1-8.6-8.59V85.2h17.2v27.65A8.6,8.6,0,0,1,412.19,121.44Z" style="fill:#a0cb8c"/><path d="M429.27,121.44h0a8.6,8.6,0,0,1-8.6-8.59V85.2h17.19v27.65A8.59,8.59,0,0,1,429.27,121.44Z" style="fill:#e6e6e6"/><path d="M429.28,121.44h0a8.59,8.59,0,0,1-8.59-8.59V85.2h17.19v27.65A8.6,8.6,0,0,1,429.28,121.44Z" style="fill:#e6e6e6;opacity:0.4"/><rect x="284.05" y="39.05" width="17.08" height="46.15" style="fill:#e6e6e6"/><rect x="284.05" y="39.05" width="17.08" height="46.15" style="fill:#e6e6e6;opacity:0.6000000000000001"/><rect x="301.04" y="39.05" width="17.08" height="46.15" style="fill:#a0cb8c"/><rect x="301.04" y="39.05" width="17.08" height="46.15" style="fill:#a0cb8c;opacity:0.1"/><rect x="318.17" y="39.05" width="17.08" height="46.15" style="fill:#e6e6e6"/><rect x="318.17" y="39.05" width="17.08" height="46.15" style="fill:#e6e6e6;opacity:0.6000000000000001"/><rect x="335.35" y="39.05" width="17.08" height="46.15" style="fill:#a0cb8c"/><rect x="335.35" y="39.05" width="17.08" height="46.15" style="fill:#a0cb8c;opacity:0.1"/><rect x="352.49" y="39.05" width="17.08" height="46.15" style="fill:#e6e6e6"/><rect x="352.49" y="39.05" width="17.08" height="46.15" style="fill:#e6e6e6;opacity:0.6000000000000001"/><rect x="369.48" y="39.05" width="17.08" height="46.15" style="fill:#a0cb8c"/><rect x="369.48" y="39.05" width="17.08" height="46.15" style="fill:#a0cb8c;opacity:0.1"/><rect x="386.62" y="39.05" width="17.08" height="46.15" style="fill:#e6e6e6"/><rect x="386.62" y="39.05" width="17.08" height="46.15" style="fill:#e6e6e6;opacity:0.6000000000000001"/><rect x="403.61" y="39.05" width="17.08" height="46.15" style="fill:#a0cb8c"/><rect x="403.61" y="39.05" width="17.08" height="46.15" style="fill:#a0cb8c;opacity:0.1"/><rect x="420.75" y="39.05" width="17.08" height="46.15" style="fill:#e6e6e6"/><rect x="420.75" y="39.05" width="17.08" height="46.15" style="fill:#e6e6e6;opacity:0.6000000000000001"/><path d="M155.3,201.25a15.9,15.9,0,1,1,15.9-15.86A15.87,15.87,0,0,1,155.3,201.25Z" style="fill:#fdfdfd"/><path d="M155.29,200A14.66,14.66,0,1,1,170,185.39,14.67,14.67,0,0,1,155.29,200Z" style="fill:#769575"/><path d="M150.75,178.76l-4-4c-.18-.18,0-.23.08-.31a13.6,13.6,0,0,1,5.13-2.52,13,13,0,0,1,8.05.4,13.53,13.53,0,0,1,8.94,10.49,13.36,13.36,0,0,1-2.62,11c-.17.22-.26.27-.48,0-.83-.86-1.67-1.7-2.51-2.55a.81.81,0,0,1,0-.38q.54-3,1.05-6l.06-.26a.37.37,0,0,1,.43-.34h.46c.23,0,.37-.13.37-.37a11.84,11.84,0,0,0,0-1.46,1.75,1.75,0,0,0-1.73-1.44c-.8,0-1.61,0-2.41,0a.67.67,0,0,1-.68-.38c-.75-1.3-1.49-2.6-2.25-3.89a4.23,4.23,0,0,0-.25-.42,1.11,1.11,0,0,0-1.43-.4,1.08,1.08,0,0,0-.38,1.43c.34.65.74,1.27,1.1,1.92.25.43.51.86.75,1.29s.13.44-.24.44h-4.82a1.47,1.47,0,0,1-.35-.08,3.08,3.08,0,0,1-.51-.51c0-.15.05-.25.12-.36.5-.85,1-1.71,1.5-2.55a1.18,1.18,0,0,0,0-1.32,1.06,1.06,0,0,0-1.76.11c-.38.63-.74,1.27-1.12,1.9C151.06,178.41,151,178.66,150.75,178.76Z" style="fill:#769575"/><path d="M162.5,194.6l1.42,1.39c.18.17,0,.22-.09.28a13,13,0,0,1-3.42,2,13.84,13.84,0,0,1-18.34-8.79,13.45,13.45,0,0,1,2.29-12.6c.14-.2.22-.22.41,0,1.34,1.37,2.7,2.73,4,4.09-.11.13-.27.1-.42.1-.53,0-1.07,0-1.6,0a1.76,1.76,0,0,0-1.83,1.85c0,.32,0,.65,0,1s.11.43.41.42c.91,0,.81.12.94.85q.67,3.81,1.32,7.64c.06.38.12.77.21,1.15a1.13,1.13,0,0,0,1.25,1h12.31A3.35,3.35,0,0,0,162.5,194.6Z" style="fill:#769575"/><path d="M152.28,184.37l1.34,1.34a.86.86,0,0,1,.09.47v7.56c0,.52-.06.58-.58.58h-3.77c-.68,0-.86-.14-1-.82-.36-2-.7-4.09-1.06-6.13-.14-.85-.29-1.71-.44-2.56-.08-.46,0-.53.43-.53h4.56A.73.73,0,0,1,152.28,184.37Z" style="fill:#fdfdfd"/><path d="M152.28,184.37h-5c-.28,0-.36,0-.31.35.48,2.7.94,5.4,1.41,8.1,0,.31.1.62.16.93a.52.52,0,0,0,.59.47c1.4,0,2.8,0,4.2,0,.25,0,.3-.08.29-.32V186.1c0-.13,0-.26,0-.39a7.18,7.18,0,0,1,.78.78,1,1,0,0,1,.1.57v6.8a.23.23,0,0,0,.24.25h1.14a.21.21,0,0,0,.22-.23c0-.11,0-.22,0-.32v-4.72c0-.18,0-.37.12-.52a7.18,7.18,0,0,1,.78.78.91.91,0,0,1,.09.54v4c0,.46,0,.47.48.47h3.74c.22,0,.43-.07.64-.07a2.81,2.81,0,0,1,.54.55,1.13,1.13,0,0,1-.92.4H149a1.19,1.19,0,0,1-1.26-1.11q-.47-2.64-.91-5.28c-.23-1.31-.46-2.63-.68-3.94,0-.22-.1-.3-.34-.3-1,0-.95,0-.94-.93v-.68a1.79,1.79,0,0,1,1.8-1.83h2.14a6.47,6.47,0,0,1,.79.78c-.13.14-.3.11-.46.11h-2.24a1.54,1.54,0,0,0-.57.08.8.8,0,0,0-.58.79c0,.93-.06.81.78.82H151a.91.91,0,0,1,.51.09A7.18,7.18,0,0,1,152.28,184.37Z" style="fill:#769575"/><path d="M152.93,180.94h5.51l-.83-1.46c-.39-.66-.77-1.33-1.15-2a1.15,1.15,0,0,1,.36-1.64,1.2,1.2,0,0,1,1.61.52c.84,1.44,1.68,2.89,2.5,4.34a.4.4,0,0,0,.41.23c.83,0,1.67,0,2.5,0a1.8,1.8,0,0,1,1.89,1.87c0,.38,0,.76,0,1.14s-.12.46-.43.44h-.13c-.67,0-.67,0-.79.65l-1.08,6.27-.7-.7a1,1,0,0,1,0-.54c.29-1.72.6-3.44.89-5.16.07-.41.06-.42-.37-.42H157a1.42,1.42,0,0,1-.61-.09l-.78-.78c.14-.15.33-.11.49-.11h8.15c.61,0,.61,0,.61-.61s-.32-1.06-1.07-1.08H162a.4.4,0,0,0-.46.34,1.16,1.16,0,0,1-1.34,1,1,1,0,0,1-.84-.43,2.52,2.52,0,0,1-.28-.44.72.72,0,0,0-.78-.44c-1.33,0-2.67,0-4,0a1.44,1.44,0,0,1-.58-.09Z" style="fill:#769575"/><path d="M146,175.17l.22.2,6.49,6.5,12.6,12.59c.2.19.23.3,0,.52-.59.6-.58.61-1.16,0l-18.79-18.79c-.17-.17-.23-.28,0-.45s.32-.32.48-.48Z" style="fill:#fdfdfd"/><path d="M156.38,184.39h7.09c.13,0,.23,0,.19.18-.36,2-.71,4-1.06,6l-.87-.84-5.11-5.11Z" style="fill:#fdfdfd"/><path d="M153.71,181.72h5a.27.27,0,0,1,.28.16c.09.17.2.34.29.51a1.15,1.15,0,0,0,1.36.63,1.12,1.12,0,0,0,.86-1.12c0-.14.05-.18.19-.18.77,0,1.54,0,2.31,0a.93.93,0,0,1,1,1c0,.27.13.64-.06.8s-.52,0-.78,0h-8.5Q154.63,182.7,153.71,181.72Z" style="fill:#fdfdfd"/><path d="M162,194.05a.47.47,0,0,1-.43.17h-4.27c-.17,0-.27,0-.27-.24,0-1.62,0-3.25,0-4.88l2.16,2.14Z" style="fill:#fff"/><path d="M156.23,188.32c0,1.85,0,3.71,0,5.56,0,.27-.05.36-.33.35a9.61,9.61,0,0,0-1.2,0c-.26,0-.31-.07-.3-.3v-6.58c0-.28,0-.56,0-.85Z" style="fill:#fdfdfd"/><path d="M151.5,183.59h-5.63c-.18,0-.22-.06-.21-.22s0-.42,0-.62a1,1,0,0,1,1.06-1h2.89Z" style="fill:#fdfdfd"/><path d="M150.75,178.76l1.44-2.43a1.14,1.14,0,0,1,1.6-.49,1.17,1.17,0,0,1,.36,1.65c-.57,1-1.15,2-1.73,2.94l-.57-.57a2.79,2.79,0,0,1,.46-.89q.49-.87,1-1.74c.17-.28.17-.54,0-.61s-.39.11-.5.29c-.43.68-.81,1.39-1.23,2.07-.07.13-.13.28-.29.34Z" style="fill:#769575"/><path d="M151.31,179.32l1.4-2.38a1.59,1.59,0,0,1,.13-.22c.14-.21.35-.32.56-.2a.4.4,0,0,1,.09.58c-.27.48-.55,1-.83,1.43l-.81,1.33A3.45,3.45,0,0,1,151.31,179.32Z" style="fill:#fdfdfd"/><path d="M160.67,181.83c0,.16,0,.32-.18.38a.42.42,0,0,1-.45-.1,1.16,1.16,0,0,1-.18-.27c-.9-1.54-1.78-3.07-2.67-4.61l-.07-.11c-.12-.22-.13-.46.08-.58a.41.41,0,0,1,.58.2l2.82,4.93A.71.71,0,0,1,160.67,181.83Z" style="fill:#fdfdfd"/></g></g></svg>